<?xml version="1.0" encoding="UTF-8" standalone="no"?>
<!DOCTYPE svg PUBLIC "-//W3C//DTD SVG 1.1//EN"
 "http://www.w3.org/Graphics/SVG/1.1/DTD/svg11.dtd">
<!-- Generated by graphviz version 11.0.0 (20240428.1522)
 -->
<!-- Title: G Pages: 1 -->
<svg width="2690pt" height="1217pt"
 viewBox="0.00 0.00 2690.45 1216.54" xmlns="http://www.w3.org/2000/svg" xmlns:xlink="http://www.w3.org/1999/xlink">
<g id="graph0" class="graph" transform="scale(1 1) rotate(0) translate(21.6 1194.94)">
<title>G</title>
<polygon fill="#111111" stroke="none" points="-21.6,21.6 -21.6,-1194.94 2668.85,-1194.94 2668.85,21.6 -21.6,21.6"/>
<!-- ../js&#45;utilities/commonDomComponents.js -->
<g id="node1" class="node">
<title>../js&#45;utilities/commonDomComponents.js</title>
<path fill="none" stroke="#c6c5fe" d="M2367.33,-887.25C2367.33,-887.25 2112.67,-887.25 2112.67,-887.25 2108.58,-887.25 2104.5,-883.17 2104.5,-879.08 2104.5,-879.08 2104.5,-870.92 2104.5,-870.92 2104.5,-866.83 2108.58,-862.75 2112.67,-862.75 2112.67,-862.75 2367.33,-862.75 2367.33,-862.75 2371.42,-862.75 2375.5,-866.83 2375.5,-870.92 2375.5,-870.92 2375.5,-879.08 2375.5,-879.08 2375.5,-883.17 2371.42,-887.25 2367.33,-887.25"/>
<text text-anchor="middle" x="2240" y="-869.95" font-family="Arial" font-size="14.00" fill="#c6c5fe">../js&#45;utilities/commonDomComponents.js</text>
</g>
<!-- ../js&#45;utilities/fontAwesomeUtilities.js -->
<g id="node2" class="node">
<title>../js&#45;utilities/fontAwesomeUtilities.js</title>
<path fill="none" stroke="#cfffac" d="M2639.08,-707.25C2639.08,-707.25 2419.67,-707.25 2419.67,-707.25 2415.58,-707.25 2411.5,-703.17 2411.5,-699.08 2411.5,-699.08 2411.5,-690.92 2411.5,-690.92 2411.5,-686.83 2415.58,-682.75 2419.67,-682.75 2419.67,-682.75 2639.08,-682.75 2639.08,-682.75 2643.17,-682.75 2647.25,-686.83 2647.25,-690.92 2647.25,-690.92 2647.25,-699.08 2647.25,-699.08 2647.25,-703.17 2643.17,-707.25 2639.08,-707.25"/>
<text text-anchor="middle" x="2529.38" y="-689.95" font-family="Arial" font-size="14.00" fill="#cfffac">../js&#45;utilities/fontAwesomeUtilities.js</text>
</g>
<!-- ../js&#45;utilities/commonDomComponents.js&#45;&gt;../js&#45;utilities/fontAwesomeUtilities.js -->
<g id="edge1" class="edge">
<title>../js&#45;utilities/commonDomComponents.js&#45;&gt;../js&#45;utilities/fontAwesomeUtilities.js</title>
<path fill="none" stroke="#757575" d="M2261.21,-862.34C2311.09,-831.1 2440.24,-750.2 2498.77,-713.54"/>
<polygon fill="#757575" stroke="#757575" points="2500.29,-716.72 2506.91,-708.45 2496.57,-710.79 2500.29,-716.72"/>
</g>
<!-- ../js&#45;utilities/commonDomUtilities.js -->
<g id="node3" class="node">
<title>../js&#45;utilities/commonDomUtilities.js</title>
<path fill="none" stroke="#cfffac" d="M2348.96,-407.25C2348.96,-407.25 2131.04,-407.25 2131.04,-407.25 2126.96,-407.25 2122.88,-403.17 2122.88,-399.08 2122.88,-399.08 2122.88,-390.92 2122.88,-390.92 2122.88,-386.83 2126.96,-382.75 2131.04,-382.75 2131.04,-382.75 2348.96,-382.75 2348.96,-382.75 2353.04,-382.75 2357.12,-386.83 2357.12,-390.92 2357.12,-390.92 2357.12,-399.08 2357.12,-399.08 2357.12,-403.17 2353.04,-407.25 2348.96,-407.25"/>
<text text-anchor="middle" x="2240" y="-389.95" font-family="Arial" font-size="14.00" fill="#cfffac">../js&#45;utilities/commonDomUtilities.js</text>
</g>
<!-- ../js&#45;utilities/creditFooter.js -->
<g id="node4" class="node">
<title>../js&#45;utilities/creditFooter.js</title>
<path fill="none" stroke="#c6c5fe" d="M740.58,-228.25C740.58,-228.25 576.67,-228.25 576.67,-228.25 572.58,-228.25 568.5,-224.17 568.5,-220.08 568.5,-220.08 568.5,-211.92 568.5,-211.92 568.5,-207.83 572.58,-203.75 576.67,-203.75 576.67,-203.75 740.58,-203.75 740.58,-203.75 744.67,-203.75 748.75,-207.83 748.75,-211.92 748.75,-211.92 748.75,-220.08 748.75,-220.08 748.75,-224.17 744.67,-228.25 740.58,-228.25"/>
<text text-anchor="middle" x="658.62" y="-210.95" font-family="Arial" font-size="14.00" fill="#c6c5fe">../js&#45;utilities/creditFooter.js</text>
</g>
<!-- ../js&#45;utilities/creditFooter.js&#45;&gt;../js&#45;utilities/fontAwesomeUtilities.js -->
<g id="edge2" class="edge">
<title>../js&#45;utilities/creditFooter.js&#45;&gt;../js&#45;utilities/fontAwesomeUtilities.js</title>
<path fill="none" stroke="#757575" d="M677.17,-203.45C743.43,-157.35 986.04,0 1210.5,0 1210.5,0 1210.5,0 1967.75,0 2320.71,0 2489.29,-549.74 2522.27,-671.37"/>
<polygon fill="#757575" stroke="#757575" points="2518.85,-672.12 2524.8,-680.88 2525.61,-670.32 2518.85,-672.12"/>
</g>
<!-- ../js&#45;utilities/mathUtilities.js -->
<g id="node5" class="node">
<title>../js&#45;utilities/mathUtilities.js</title>
<path fill="none" stroke="#cfffac" d="M1815.58,-184.25C1815.58,-184.25 1653.17,-184.25 1653.17,-184.25 1649.08,-184.25 1645,-180.17 1645,-176.08 1645,-176.08 1645,-167.92 1645,-167.92 1645,-163.83 1649.08,-159.75 1653.17,-159.75 1653.17,-159.75 1815.58,-159.75 1815.58,-159.75 1819.67,-159.75 1823.75,-163.83 1823.75,-167.92 1823.75,-167.92 1823.75,-176.08 1823.75,-176.08 1823.75,-180.17 1819.67,-184.25 1815.58,-184.25"/>
<text text-anchor="middle" x="1734.38" y="-166.95" font-family="Arial" font-size="14.00" fill="#cfffac">../js&#45;utilities/mathUtilities.js</text>
</g>
<!-- baseComponent.js -->
<g id="node6" class="node">
<title>baseComponent.js</title>
<path fill="none" stroke="#cfffac" d="M2026.58,-182.25C2026.58,-182.25 1906.92,-182.25 1906.92,-182.25 1902.83,-182.25 1898.75,-178.17 1898.75,-174.08 1898.75,-174.08 1898.75,-165.92 1898.75,-165.92 1898.75,-161.83 1902.83,-157.75 1906.92,-157.75 1906.92,-157.75 2026.58,-157.75 2026.58,-157.75 2030.67,-157.75 2034.75,-161.83 2034.75,-165.92 2034.75,-165.92 2034.75,-174.08 2034.75,-174.08 2034.75,-178.17 2030.67,-182.25 2026.58,-182.25"/>
<text text-anchor="middle" x="1966.75" y="-164.95" font-family="Arial" font-size="14.00" fill="#cfffac">baseComponent.js</text>
</g>
<!-- baseDomComponent.js -->
<g id="node7" class="node">
<title>baseDomComponent.js</title>
<path fill="none" stroke="#c6c5fe" d="M2041.96,-733.25C2041.96,-733.25 1891.54,-733.25 1891.54,-733.25 1887.46,-733.25 1883.38,-729.17 1883.38,-725.08 1883.38,-725.08 1883.38,-716.92 1883.38,-716.92 1883.38,-712.83 1887.46,-708.75 1891.54,-708.75 1891.54,-708.75 2041.96,-708.75 2041.96,-708.75 2046.04,-708.75 2050.12,-712.83 2050.12,-716.92 2050.12,-716.92 2050.12,-725.08 2050.12,-725.08 2050.12,-729.17 2046.04,-733.25 2041.96,-733.25"/>
<text text-anchor="middle" x="1966.75" y="-715.95" font-family="Arial" font-size="14.00" fill="#c6c5fe">baseDomComponent.js</text>
</g>
<!-- baseDomComponent.js&#45;&gt;../js&#45;utilities/commonDomComponents.js -->
<g id="edge3" class="edge">
<title>baseDomComponent.js&#45;&gt;../js&#45;utilities/commonDomComponents.js</title>
<path fill="none" stroke="#757575" d="M1989.95,-733.6C2037.95,-760.86 2151.56,-825.36 2207.19,-856.94"/>
<polygon fill="#757575" stroke="#757575" points="2205.14,-859.8 2215.56,-861.69 2208.59,-853.71 2205.14,-859.8"/>
</g>
<!-- baseDomComponent.js&#45;&gt;../js&#45;utilities/commonDomUtilities.js -->
<g id="edge4" class="edge">
<title>baseDomComponent.js&#45;&gt;../js&#45;utilities/commonDomUtilities.js</title>
<path fill="none" stroke="#757575" d="M1978.05,-708.62C2018.83,-659.61 2169.23,-478.85 2221.2,-416.39"/>
<polygon fill="#757575" stroke="#757575" points="2223.72,-418.83 2227.43,-408.91 2218.34,-414.36 2223.72,-418.83"/>
</g>
<!-- uiIcons.js -->
<g id="node8" class="node">
<title>uiIcons.js</title>
<path fill="none" stroke="#cfffac" d="M2269.83,-733.25C2269.83,-733.25 2210.17,-733.25 2210.17,-733.25 2206.08,-733.25 2202,-729.17 2202,-725.08 2202,-725.08 2202,-716.92 2202,-716.92 2202,-712.83 2206.08,-708.75 2210.17,-708.75 2210.17,-708.75 2269.83,-708.75 2269.83,-708.75 2273.92,-708.75 2278,-712.83 2278,-716.92 2278,-716.92 2278,-725.08 2278,-725.08 2278,-729.17 2273.92,-733.25 2269.83,-733.25"/>
<text text-anchor="middle" x="2240" y="-715.95" font-family="Arial" font-size="14.00" fill="#cfffac">uiIcons.js</text>
</g>
<!-- baseDomComponent.js&#45;&gt;uiIcons.js -->
<g id="edge5" class="edge">
<title>baseDomComponent.js&#45;&gt;uiIcons.js</title>
<path fill="none" stroke="#757575" d="M2050.61,-721C2096.21,-721 2151.25,-721 2190.03,-721"/>
<polygon fill="#757575" stroke="#757575" points="2190,-724.5 2200,-721 2190,-717.5 2190,-724.5"/>
</g>
<!-- baseFormDomComponent.js -->
<g id="node9" class="node">
<title>baseFormDomComponent.js</title>
<path fill="none" stroke="#c6c5fe" d="M1303.58,-350.25C1303.58,-350.25 1119.42,-350.25 1119.42,-350.25 1115.33,-350.25 1111.25,-346.17 1111.25,-342.08 1111.25,-342.08 1111.25,-333.92 1111.25,-333.92 1111.25,-329.83 1115.33,-325.75 1119.42,-325.75 1119.42,-325.75 1303.58,-325.75 1303.58,-325.75 1307.67,-325.75 1311.75,-329.83 1311.75,-333.92 1311.75,-333.92 1311.75,-342.08 1311.75,-342.08 1311.75,-346.17 1307.67,-350.25 1303.58,-350.25"/>
<text text-anchor="middle" x="1211.5" y="-332.95" font-family="Arial" font-size="14.00" fill="#c6c5fe">baseFormDomComponent.js</text>
</g>
<!-- baseFormDomComponent.js&#45;&gt;../js&#45;utilities/commonDomComponents.js -->
<g id="edge6" class="edge">
<title>baseFormDomComponent.js&#45;&gt;../js&#45;utilities/commonDomComponents.js</title>
<path fill="none" stroke="#757575" d="M1254.59,-350.74C1418.32,-400.62 2006.82,-582.86 2068.5,-644 2101.45,-676.67 2079.4,-702.97 2104.5,-742 2134.47,-788.61 2183.37,-831.56 2213.22,-855.42"/>
<polygon fill="#757575" stroke="#757575" points="2210.98,-858.11 2221,-861.54 2215.31,-852.61 2210.98,-858.11"/>
</g>
<!-- baseFormDomComponent.js&#45;&gt;../js&#45;utilities/commonDomUtilities.js -->
<g id="edge7" class="edge">
<title>baseFormDomComponent.js&#45;&gt;../js&#45;utilities/commonDomUtilities.js</title>
<path fill="none" stroke="#757575" d="M1312.04,-335.54C1472.02,-332.77 1796.04,-332.02 2068.5,-362 2103.75,-365.88 2142.61,-373.16 2174.31,-379.9"/>
<polygon fill="#757575" stroke="#757575" points="2173.22,-383.24 2183.73,-381.93 2174.69,-376.4 2173.22,-383.24"/>
</g>
<!-- baseFormDomComponent.js&#45;&gt;uiIcons.js -->
<g id="edge8" class="edge">
<title>baseFormDomComponent.js&#45;&gt;uiIcons.js</title>
<path fill="none" stroke="#757575" d="M1312,-349.44C1509.62,-373.6 1943.37,-434.22 2068.5,-514 2144.34,-562.35 2202.81,-655.61 2226.94,-698.46"/>
<polygon fill="#757575" stroke="#757575" points="2223.82,-700.05 2231.72,-707.12 2229.95,-696.67 2223.82,-700.05"/>
</g>
<!-- baseListComponent.js -->
<g id="node10" class="node">
<title>baseListComponent.js</title>
<path fill="none" stroke="#c6c5fe" d="M1805.46,-139.25C1805.46,-139.25 1663.29,-139.25 1663.29,-139.25 1659.21,-139.25 1655.12,-135.17 1655.12,-131.08 1655.12,-131.08 1655.12,-122.92 1655.12,-122.92 1655.12,-118.83 1659.21,-114.75 1663.29,-114.75 1663.29,-114.75 1805.46,-114.75 1805.46,-114.75 1809.54,-114.75 1813.62,-118.83 1813.62,-122.92 1813.62,-122.92 1813.62,-131.08 1813.62,-131.08 1813.62,-135.17 1809.54,-139.25 1805.46,-139.25"/>
<text text-anchor="middle" x="1734.38" y="-121.95" font-family="Arial" font-size="14.00" fill="#c6c5fe">baseListComponent.js</text>
</g>
<!-- baseListComponent.js&#45;&gt;baseComponent.js -->
<g id="edge9" class="edge">
<title>baseListComponent.js&#45;&gt;baseComponent.js</title>
<path fill="none" stroke="#757575" d="M1803.56,-139.73C1829.91,-144.65 1860.23,-150.3 1887.47,-155.39"/>
<polygon fill="#757575" stroke="#757575" points="1886.57,-158.78 1897.05,-157.18 1887.86,-151.9 1886.57,-158.78"/>
</g>
<!-- baseListDomComponent.js -->
<g id="node11" class="node">
<title>baseListDomComponent.js</title>
<path fill="none" stroke="#c6c5fe" d="M1820.83,-606.25C1820.83,-606.25 1647.92,-606.25 1647.92,-606.25 1643.83,-606.25 1639.75,-602.17 1639.75,-598.08 1639.75,-598.08 1639.75,-589.92 1639.75,-589.92 1639.75,-585.83 1643.83,-581.75 1647.92,-581.75 1647.92,-581.75 1820.83,-581.75 1820.83,-581.75 1824.92,-581.75 1829,-585.83 1829,-589.92 1829,-589.92 1829,-598.08 1829,-598.08 1829,-602.17 1824.92,-606.25 1820.83,-606.25"/>
<text text-anchor="middle" x="1734.38" y="-588.95" font-family="Arial" font-size="14.00" fill="#c6c5fe">baseListDomComponent.js</text>
</g>
<!-- baseListDomComponent.js&#45;&gt;../js&#45;utilities/commonDomComponents.js -->
<g id="edge10" class="edge">
<title>baseListDomComponent.js&#45;&gt;../js&#45;utilities/commonDomComponents.js</title>
<path fill="none" stroke="#757575" d="M1762.25,-606.54C1788.17,-618.31 1828.7,-635.87 1865,-648 1953.54,-677.58 1989.22,-650.72 2068.5,-700 2089.38,-712.98 2087.74,-724.01 2104.5,-742 2142.9,-783.24 2190.26,-828.95 2217.31,-854.61"/>
<polygon fill="#757575" stroke="#757575" points="2214.89,-857.14 2224.56,-861.47 2219.7,-852.06 2214.89,-857.14"/>
</g>
<!-- baseListDomComponent.js&#45;&gt;../js&#45;utilities/fontAwesomeUtilities.js -->
<g id="edge12" class="edge">
<title>baseListDomComponent.js&#45;&gt;../js&#45;utilities/fontAwesomeUtilities.js</title>
<path fill="none" stroke="#757575" d="M1829.35,-594.73C1896.23,-596.1 1988.13,-599.72 2068.5,-609 2210.49,-625.39 2374.57,-659.88 2463.28,-679.85"/>
<polygon fill="#757575" stroke="#757575" points="2462.24,-683.2 2472.76,-681.99 2463.78,-676.37 2462.24,-683.2"/>
</g>
<!-- baseListDomComponent.js&#45;&gt;../js&#45;utilities/commonDomUtilities.js -->
<g id="edge11" class="edge">
<title>baseListDomComponent.js&#45;&gt;../js&#45;utilities/commonDomUtilities.js</title>
<path fill="none" stroke="#757575" d="M1745.27,-581.35C1765.14,-556.87 1812.52,-503.05 1865,-476 1941.39,-436.63 2036.08,-416.36 2111.06,-405.95"/>
<polygon fill="#757575" stroke="#757575" points="2111.5,-409.42 2120.95,-404.62 2110.57,-402.48 2111.5,-409.42"/>
</g>
<!-- baseListDomComponent.js&#45;&gt;baseDomComponent.js -->
<g id="edge13" class="edge">
<title>baseListDomComponent.js&#45;&gt;baseDomComponent.js</title>
<path fill="none" stroke="#757575" d="M1750.96,-606.55C1774.54,-625.11 1821.2,-660.13 1865,-683 1880.77,-691.23 1898.73,-698.6 1915.09,-704.6"/>
<polygon fill="#757575" stroke="#757575" points="1913.54,-707.76 1924.13,-707.83 1915.9,-701.17 1913.54,-707.76"/>
</g>
<!-- baseListDomComponent.js&#45;&gt;uiIcons.js -->
<g id="edge14" class="edge">
<title>baseListDomComponent.js&#45;&gt;uiIcons.js</title>
<path fill="none" stroke="#757575" d="M1829.43,-606.39C1896.75,-616.43 1989.14,-632.59 2068.5,-655 2115.08,-668.15 2166.67,-689.06 2200.77,-703.81"/>
<polygon fill="#757575" stroke="#757575" points="2199.24,-706.96 2209.81,-707.76 2202.05,-700.55 2199.24,-706.96"/>
</g>
<!-- domStructure.js -->
<g id="node12" class="node">
<title>domStructure.js</title>
<path fill="none" stroke="#c6c5fe" d="M260.83,-310.25C260.83,-310.25 161.42,-310.25 161.42,-310.25 157.33,-310.25 153.25,-306.17 153.25,-302.08 153.25,-302.08 153.25,-293.92 153.25,-293.92 153.25,-289.83 157.33,-285.75 161.42,-285.75 161.42,-285.75 260.83,-285.75 260.83,-285.75 264.92,-285.75 269,-289.83 269,-293.92 269,-293.92 269,-302.08 269,-302.08 269,-306.17 264.92,-310.25 260.83,-310.25"/>
<text text-anchor="middle" x="211.12" y="-292.95" font-family="Arial" font-size="14.00" fill="#c6c5fe">domStructure.js</text>
</g>
<!-- domStructure.js&#45;&gt;../js&#45;utilities/creditFooter.js -->
<g id="edge15" class="edge">
<title>domStructure.js&#45;&gt;../js&#45;utilities/creditFooter.js</title>
<path fill="none" stroke="#757575" d="M227.17,-285.48C245.72,-270.86 278.86,-247.35 311.75,-237 391.38,-211.93 486.32,-207.87 556.56,-209.41"/>
<polygon fill="#757575" stroke="#757575" points="556.46,-212.9 566.55,-209.67 556.64,-205.91 556.46,-212.9"/>
</g>
<!-- headerDomComponent.js -->
<g id="node13" class="node">
<title>headerDomComponent.js</title>
<path fill="none" stroke="#c6c5fe" d="M499.58,-798.25C499.58,-798.25 336.42,-798.25 336.42,-798.25 332.33,-798.25 328.25,-794.17 328.25,-790.08 328.25,-790.08 328.25,-781.92 328.25,-781.92 328.25,-777.83 332.33,-773.75 336.42,-773.75 336.42,-773.75 499.58,-773.75 499.58,-773.75 503.67,-773.75 507.75,-777.83 507.75,-781.92 507.75,-781.92 507.75,-790.08 507.75,-790.08 507.75,-794.17 503.67,-798.25 499.58,-798.25"/>
<text text-anchor="middle" x="418" y="-780.95" font-family="Arial" font-size="14.00" fill="#c6c5fe">headerDomComponent.js</text>
</g>
<!-- domStructure.js&#45;&gt;headerDomComponent.js -->
<g id="edge16" class="edge">
<title>domStructure.js&#45;&gt;headerDomComponent.js</title>
<path fill="none" stroke="#757575" d="M217.4,-310.55C244.82,-375.88 371.33,-677.21 407.38,-763.1"/>
<polygon fill="#757575" stroke="#757575" points="404.08,-764.27 411.18,-772.13 410.53,-761.56 404.08,-764.27"/>
</g>
<!-- mainDomComponent.js -->
<g id="node14" class="node">
<title>mainDomComponent.js</title>
<path fill="none" stroke="#c6c5fe" d="M492.46,-418.25C492.46,-418.25 343.54,-418.25 343.54,-418.25 339.46,-418.25 335.38,-414.17 335.38,-410.08 335.38,-410.08 335.38,-401.92 335.38,-401.92 335.38,-397.83 339.46,-393.75 343.54,-393.75 343.54,-393.75 492.46,-393.75 492.46,-393.75 496.54,-393.75 500.62,-397.83 500.62,-401.92 500.62,-401.92 500.62,-410.08 500.62,-410.08 500.62,-414.17 496.54,-418.25 492.46,-418.25"/>
<text text-anchor="middle" x="418" y="-400.95" font-family="Arial" font-size="14.00" fill="#c6c5fe">mainDomComponent.js</text>
</g>
<!-- domStructure.js&#45;&gt;mainDomComponent.js -->
<g id="edge17" class="edge">
<title>domStructure.js&#45;&gt;mainDomComponent.js</title>
<path fill="none" stroke="#757575" d="M235,-310.59C255.14,-321.63 285.3,-338.05 311.75,-352 334.95,-364.24 361.2,-377.71 381.69,-388.13"/>
<polygon fill="#757575" stroke="#757575" points="379.97,-391.19 390.47,-392.6 383.14,-384.95 379.97,-391.19"/>
</g>
<!-- noteFormDomComponent.js -->
<g id="node15" class="node">
<title>noteFormDomComponent.js</title>
<path fill="none" stroke="#c6c5fe" d="M748.83,-310.25C748.83,-310.25 568.42,-310.25 568.42,-310.25 564.33,-310.25 560.25,-306.17 560.25,-302.08 560.25,-302.08 560.25,-293.92 560.25,-293.92 560.25,-289.83 564.33,-285.75 568.42,-285.75 568.42,-285.75 748.83,-285.75 748.83,-285.75 752.92,-285.75 757,-289.83 757,-293.92 757,-293.92 757,-302.08 757,-302.08 757,-306.17 752.92,-310.25 748.83,-310.25"/>
<text text-anchor="middle" x="658.62" y="-292.95" font-family="Arial" font-size="14.00" fill="#c6c5fe">noteFormDomComponent.js</text>
</g>
<!-- domStructure.js&#45;&gt;noteFormDomComponent.js -->
<g id="edge18" class="edge">
<title>domStructure.js&#45;&gt;noteFormDomComponent.js</title>
<path fill="none" stroke="#757575" d="M269.45,-298C339.7,-298 460.22,-298 548.37,-298"/>
<polygon fill="#757575" stroke="#757575" points="548.26,-301.5 558.26,-298 548.26,-294.5 548.26,-301.5"/>
</g>
<!-- projectFormDomComponent.js -->
<g id="node16" class="node">
<title>projectFormDomComponent.js</title>
<path fill="none" stroke="#c6c5fe" d="M516.08,-270.25C516.08,-270.25 319.92,-270.25 319.92,-270.25 315.83,-270.25 311.75,-266.17 311.75,-262.08 311.75,-262.08 311.75,-253.92 311.75,-253.92 311.75,-249.83 315.83,-245.75 319.92,-245.75 319.92,-245.75 516.08,-245.75 516.08,-245.75 520.17,-245.75 524.25,-249.83 524.25,-253.92 524.25,-253.92 524.25,-262.08 524.25,-262.08 524.25,-266.17 520.17,-270.25 516.08,-270.25"/>
<text text-anchor="middle" x="418" y="-252.95" font-family="Arial" font-size="14.00" fill="#c6c5fe">projectFormDomComponent.js</text>
</g>
<!-- domStructure.js&#45;&gt;projectFormDomComponent.js -->
<g id="edge19" class="edge">
<title>domStructure.js&#45;&gt;projectFormDomComponent.js</title>
<path fill="none" stroke="#757575" d="M269.47,-286.8C291.54,-282.49 317.1,-277.5 340.69,-272.9"/>
<polygon fill="#757575" stroke="#757575" points="341.09,-276.39 350.24,-271.03 339.75,-269.52 341.09,-276.39"/>
</g>
<!-- todoFormDomComponent.js -->
<g id="node17" class="node">
<title>todoFormDomComponent.js</title>
<path fill="none" stroke="#c6c5fe" d="M997.33,-350.25C997.33,-350.25 816.17,-350.25 816.17,-350.25 812.08,-350.25 808,-346.17 808,-342.08 808,-342.08 808,-333.92 808,-333.92 808,-329.83 812.08,-325.75 816.17,-325.75 816.17,-325.75 997.33,-325.75 997.33,-325.75 1001.42,-325.75 1005.5,-329.83 1005.5,-333.92 1005.5,-333.92 1005.5,-342.08 1005.5,-342.08 1005.5,-346.17 1001.42,-350.25 997.33,-350.25"/>
<text text-anchor="middle" x="906.75" y="-332.95" font-family="Arial" font-size="14.00" fill="#c6c5fe">todoFormDomComponent.js</text>
</g>
<!-- domStructure.js&#45;&gt;todoFormDomComponent.js -->
<g id="edge20" class="edge">
<title>domStructure.js&#45;&gt;todoFormDomComponent.js</title>
<path fill="none" stroke="#757575" d="M269.44,-307.01C283.26,-308.92 298.01,-310.74 311.75,-312 480.41,-327.51 676.89,-333.82 796.24,-336.35"/>
<polygon fill="#757575" stroke="#757575" points="795.96,-339.84 806.03,-336.55 796.1,-332.84 795.96,-339.84"/>
</g>
<!-- navDomComponent.js -->
<g id="node37" class="node">
<title>navDomComponent.js</title>
<path fill="none" stroke="#c6c5fe" d="M2037.08,-1137.25C2037.08,-1137.25 1896.42,-1137.25 1896.42,-1137.25 1892.33,-1137.25 1888.25,-1133.17 1888.25,-1129.08 1888.25,-1129.08 1888.25,-1120.92 1888.25,-1120.92 1888.25,-1116.83 1892.33,-1112.75 1896.42,-1112.75 1896.42,-1112.75 2037.08,-1112.75 2037.08,-1112.75 2041.17,-1112.75 2045.25,-1116.83 2045.25,-1120.92 2045.25,-1120.92 2045.25,-1129.08 2045.25,-1129.08 2045.25,-1133.17 2041.17,-1137.25 2037.08,-1137.25"/>
<text text-anchor="middle" x="1966.75" y="-1119.95" font-family="Arial" font-size="14.00" fill="#c6c5fe">navDomComponent.js</text>
</g>
<!-- headerDomComponent.js&#45;&gt;navDomComponent.js -->
<g id="edge38" class="edge">
<title>headerDomComponent.js&#45;&gt;navDomComponent.js</title>
<path fill="none" stroke="#757575" d="M427.62,-798.43C471.01,-859.41 672.72,-1124 905.75,-1124 905.75,-1124 905.75,-1124 1504.12,-1124 1633.76,-1124 1783.87,-1124.4 1876.83,-1124.69"/>
<polygon fill="#757575" stroke="#757575" points="1876.63,-1128.19 1886.64,-1124.72 1876.65,-1121.19 1876.63,-1128.19"/>
</g>
<!-- mainDomComponent.js&#45;&gt;../js&#45;utilities/commonDomUtilities.js -->
<g id="edge47" class="edge">
<title>mainDomComponent.js&#45;&gt;../js&#45;utilities/commonDomUtilities.js</title>
<path fill="none" stroke="#757575" d="M501.03,-405.5C789.76,-403.76 1760.46,-397.89 2111.2,-395.77"/>
<polygon fill="#757575" stroke="#757575" points="2111.17,-399.27 2121.15,-395.71 2111.13,-392.27 2111.17,-399.27"/>
</g>
<!-- fixCircularDependenciesInDomComponents.js -->
<g id="node26" class="node">
<title>fixCircularDependenciesInDomComponents.js</title>
<path fill="none" stroke="#ff6c60" d="M1358.33,-714.25C1358.33,-714.25 1064.67,-714.25 1064.67,-714.25 1060.58,-714.25 1056.5,-710.17 1056.5,-706.08 1056.5,-706.08 1056.5,-697.92 1056.5,-697.92 1056.5,-693.83 1060.58,-689.75 1064.67,-689.75 1064.67,-689.75 1358.33,-689.75 1358.33,-689.75 1362.42,-689.75 1366.5,-693.83 1366.5,-697.92 1366.5,-697.92 1366.5,-706.08 1366.5,-706.08 1366.5,-710.17 1362.42,-714.25 1358.33,-714.25"/>
<text text-anchor="middle" x="1211.5" y="-696.95" font-family="Arial" font-size="14.00" fill="#ff6c60">fixCircularDependenciesInDomComponents.js</text>
</g>
<!-- mainDomComponent.js&#45;&gt;fixCircularDependenciesInDomComponents.js -->
<g id="edge48" class="edge">
<title>mainDomComponent.js&#45;&gt;fixCircularDependenciesInDomComponents.js</title>
<path fill="none" stroke="#757575" d="M453.01,-418.72C579.61,-466.06 1023.59,-632.1 1166.1,-685.4"/>
<polygon fill="#757575" stroke="#757575" points="1164.61,-688.57 1175.2,-688.8 1167.06,-682.02 1164.61,-688.57"/>
</g>
<!-- homeDomComponent.js -->
<g id="node38" class="node">
<title>homeDomComponent.js</title>
<path fill="none" stroke="#c6c5fe" d="M736.08,-694.25C736.08,-694.25 581.17,-694.25 581.17,-694.25 577.08,-694.25 573,-690.17 573,-686.08 573,-686.08 573,-677.92 573,-677.92 573,-673.83 577.08,-669.75 581.17,-669.75 581.17,-669.75 736.08,-669.75 736.08,-669.75 740.17,-669.75 744.25,-673.83 744.25,-677.92 744.25,-677.92 744.25,-686.08 744.25,-686.08 744.25,-690.17 740.17,-694.25 736.08,-694.25"/>
<text text-anchor="middle" x="658.62" y="-676.95" font-family="Arial" font-size="14.00" fill="#c6c5fe">homeDomComponent.js</text>
</g>
<!-- mainDomComponent.js&#45;&gt;homeDomComponent.js -->
<g id="edge49" class="edge">
<title>mainDomComponent.js&#45;&gt;homeDomComponent.js</title>
<path fill="none" stroke="#757575" d="M429.87,-418.58C467.45,-462.04 592.12,-606.23 639.31,-660.81"/>
<polygon fill="#757575" stroke="#757575" points="636.51,-662.93 645.7,-668.2 641.81,-658.35 636.51,-662.93"/>
</g>
<!-- noteFormDomComponent.js&#45;&gt;baseFormDomComponent.js -->
<g id="edge58" class="edge">
<title>noteFormDomComponent.js&#45;&gt;baseFormDomComponent.js</title>
<path fill="none" stroke="#757575" d="M757.37,-301.63C830.03,-304.69 931.55,-309.75 1020.5,-317 1046.14,-319.09 1073.68,-321.84 1099.61,-324.66"/>
<polygon fill="#757575" stroke="#757575" points="1099.18,-328.13 1109.5,-325.75 1099.95,-321.18 1099.18,-328.13"/>
</g>
<!-- projectFormDomComponent.js&#45;&gt;baseFormDomComponent.js -->
<g id="edge72" class="edge">
<title>projectFormDomComponent.js&#45;&gt;baseFormDomComponent.js</title>
<path fill="none" stroke="#757575" d="M524.63,-260.42C645.14,-264.29 847.87,-274.17 1020.5,-299 1062.64,-305.06 1109.49,-314.65 1146.13,-322.8"/>
<polygon fill="#757575" stroke="#757575" points="1145.16,-326.17 1155.68,-324.94 1146.69,-319.34 1145.16,-326.17"/>
</g>
<!-- todoFormDomComponent.js&#45;&gt;../js&#45;utilities/commonDomComponents.js -->
<g id="edge88" class="edge">
<title>todoFormDomComponent.js&#45;&gt;../js&#45;utilities/commonDomComponents.js</title>
<path fill="none" stroke="#757575" d="M909.91,-350.59C919.2,-401.79 959.8,-597.6 1056.5,-723 1200.21,-909.36 1266.79,-1009 1502.12,-1009 1502.12,-1009 1502.12,-1009 1735.38,-1009 1885.81,-1009 1924.51,-992.57 2068.5,-949 2117.27,-934.24 2170.75,-909.53 2204.57,-892.77"/>
<polygon fill="#757575" stroke="#757575" points="2206.1,-895.91 2213.47,-888.3 2202.97,-889.66 2206.1,-895.91"/>
</g>
<!-- todoFormDomComponent.js&#45;&gt;baseFormDomComponent.js -->
<g id="edge89" class="edge">
<title>todoFormDomComponent.js&#45;&gt;baseFormDomComponent.js</title>
<path fill="none" stroke="#757575" d="M1005.63,-338C1035.63,-338 1068.85,-338 1099.66,-338"/>
<polygon fill="#757575" stroke="#757575" points="1099.37,-341.5 1109.37,-338 1099.37,-334.5 1099.37,-341.5"/>
</g>
<!-- fixCircularDependenciesInComponents.js -->
<g id="node18" class="node">
<title>fixCircularDependenciesInComponents.js</title>
<path fill="none" stroke="#ff6c60" d="M1342.96,-183.25C1342.96,-183.25 1080.04,-183.25 1080.04,-183.25 1075.96,-183.25 1071.88,-179.17 1071.88,-175.08 1071.88,-175.08 1071.88,-166.92 1071.88,-166.92 1071.88,-162.83 1075.96,-158.75 1080.04,-158.75 1080.04,-158.75 1342.96,-158.75 1342.96,-158.75 1347.04,-158.75 1351.12,-162.83 1351.12,-166.92 1351.12,-166.92 1351.12,-175.08 1351.12,-175.08 1351.12,-179.17 1347.04,-183.25 1342.96,-183.25"/>
<text text-anchor="middle" x="1211.5" y="-165.95" font-family="Arial" font-size="14.00" fill="#ff6c60">fixCircularDependenciesInComponents.js</text>
</g>
<!-- todoFormDomComponent.js&#45;&gt;fixCircularDependenciesInComponents.js -->
<g id="edge90" class="edge">
<title>todoFormDomComponent.js&#45;&gt;fixCircularDependenciesInComponents.js</title>
<path fill="none" stroke="#757575" d="M930.51,-325.45C983.54,-296.19 1115.56,-223.37 1177.47,-189.22"/>
<polygon fill="#757575" stroke="#757575" points="1179.09,-192.32 1186.16,-184.43 1175.71,-186.19 1179.09,-192.32"/>
</g>
<!-- todoFormDomComponent.js&#45;&gt;fixCircularDependenciesInDomComponents.js -->
<g id="edge91" class="edge">
<title>todoFormDomComponent.js&#45;&gt;fixCircularDependenciesInDomComponents.js</title>
<path fill="none" stroke="#757575" d="M929.41,-350.56C953.48,-365.19 992.6,-391.08 1020.5,-420 1102.24,-504.72 1171.92,-628.57 1198.74,-679.18"/>
<polygon fill="#757575" stroke="#757575" points="1195.63,-680.78 1203.37,-688.01 1201.83,-677.53 1195.63,-680.78"/>
</g>
<!-- listInComponentMixin.js -->
<g id="node19" class="node">
<title>listInComponentMixin.js</title>
<path fill="none" stroke="#ff6c60" d="M1577.58,-267.25C1577.58,-267.25 1428.67,-267.25 1428.67,-267.25 1424.58,-267.25 1420.5,-263.17 1420.5,-259.08 1420.5,-259.08 1420.5,-250.92 1420.5,-250.92 1420.5,-246.83 1424.58,-242.75 1428.67,-242.75 1428.67,-242.75 1577.58,-242.75 1577.58,-242.75 1581.67,-242.75 1585.75,-246.83 1585.75,-250.92 1585.75,-250.92 1585.75,-259.08 1585.75,-259.08 1585.75,-263.17 1581.67,-267.25 1577.58,-267.25"/>
<text text-anchor="middle" x="1503.12" y="-249.95" font-family="Arial" font-size="14.00" fill="#ff6c60">listInComponentMixin.js</text>
</g>
<!-- fixCircularDependenciesInComponents.js&#45;&gt;listInComponentMixin.js -->
<g id="edge21" class="edge">
<title>fixCircularDependenciesInComponents.js&#45;&gt;listInComponentMixin.js</title>
<path fill="none" stroke="#757575" d="M1269.85,-183.64C1307.32,-195.22 1357.48,-211.71 1402.5,-224 1422.59,-229.48 1445.25,-234.57 1463.87,-239.34"/>
<polygon fill="#757575" stroke="#757575" points="1462.86,-242.69 1473.43,-241.88 1464.66,-235.93 1462.86,-242.69"/>
</g>
<!-- noteComponent.js -->
<g id="node20" class="node">
<title>noteComponent.js</title>
<path fill="none" stroke="#ff6c60" d="M1561.08,-310.25C1561.08,-310.25 1445.17,-310.25 1445.17,-310.25 1441.08,-310.25 1437,-306.17 1437,-302.08 1437,-302.08 1437,-293.92 1437,-293.92 1437,-289.83 1441.08,-285.75 1445.17,-285.75 1445.17,-285.75 1561.08,-285.75 1561.08,-285.75 1565.17,-285.75 1569.25,-289.83 1569.25,-293.92 1569.25,-293.92 1569.25,-302.08 1569.25,-302.08 1569.25,-306.17 1565.17,-310.25 1561.08,-310.25"/>
<text text-anchor="middle" x="1503.12" y="-292.95" font-family="Arial" font-size="14.00" fill="#ff6c60">noteComponent.js</text>
</g>
<!-- fixCircularDependenciesInComponents.js&#45;&gt;noteComponent.js -->
<g id="edge22" class="edge">
<title>fixCircularDependenciesInComponents.js&#45;&gt;noteComponent.js</title>
<path fill="none" stroke="#757575" d="M1240.54,-183.65C1276.56,-204.34 1341.68,-244.03 1402.5,-267 1420.17,-273.67 1440.41,-278.6 1458.01,-282.74"/>
<polygon fill="#757575" stroke="#757575" points="1457.13,-286.13 1467.66,-285 1458.73,-279.31 1457.13,-286.13"/>
</g>
<!-- noteListComponent.js -->
<g id="node21" class="node">
<title>noteListComponent.js</title>
<path fill="none" stroke="#ff6c60" d="M1572.33,-138.25C1572.33,-138.25 1433.92,-138.25 1433.92,-138.25 1429.83,-138.25 1425.75,-134.17 1425.75,-130.08 1425.75,-130.08 1425.75,-121.92 1425.75,-121.92 1425.75,-117.83 1429.83,-113.75 1433.92,-113.75 1433.92,-113.75 1572.33,-113.75 1572.33,-113.75 1576.42,-113.75 1580.5,-117.83 1580.5,-121.92 1580.5,-121.92 1580.5,-130.08 1580.5,-130.08 1580.5,-134.17 1576.42,-138.25 1572.33,-138.25"/>
<text text-anchor="middle" x="1503.12" y="-120.95" font-family="Arial" font-size="14.00" fill="#ff6c60">noteListComponent.js</text>
</g>
<!-- fixCircularDependenciesInComponents.js&#45;&gt;noteListComponent.js -->
<g id="edge23" class="edge">
<title>fixCircularDependenciesInComponents.js&#45;&gt;noteListComponent.js</title>
<path fill="none" stroke="#757575" d="M1260.98,-158.28C1302.67,-150.18 1363.87,-140.31 1414.17,-133.4"/>
<polygon fill="#757575" stroke="#757575" points="1414.45,-136.9 1423.89,-132.09 1413.51,-129.96 1414.45,-136.9"/>
</g>
<!-- projectComponent.js -->
<g id="node22" class="node">
<title>projectComponent.js</title>
<path fill="none" stroke="#ff6c60" d="M1568.96,-52.25C1568.96,-52.25 1437.29,-52.25 1437.29,-52.25 1433.21,-52.25 1429.12,-48.17 1429.12,-44.08 1429.12,-44.08 1429.12,-35.92 1429.12,-35.92 1429.12,-31.83 1433.21,-27.75 1437.29,-27.75 1437.29,-27.75 1568.96,-27.75 1568.96,-27.75 1573.04,-27.75 1577.12,-31.83 1577.12,-35.92 1577.12,-35.92 1577.12,-44.08 1577.12,-44.08 1577.12,-48.17 1573.04,-52.25 1568.96,-52.25"/>
<text text-anchor="middle" x="1503.12" y="-34.95" font-family="Arial" font-size="14.00" fill="#ff6c60">projectComponent.js</text>
</g>
<!-- fixCircularDependenciesInComponents.js&#45;&gt;projectComponent.js -->
<g id="edge24" class="edge">
<title>fixCircularDependenciesInComponents.js&#45;&gt;projectComponent.js</title>
<path fill="none" stroke="#757575" d="M1223.88,-158.35C1252.45,-133.59 1330.15,-80.99 1402.5,-53 1407.45,-51.08 1412.61,-49.31 1417.86,-47.7"/>
<polygon fill="#757575" stroke="#757575" points="1418.62,-51.12 1427.27,-45.02 1416.7,-44.39 1418.62,-51.12"/>
</g>
<!-- projectListComponent.js -->
<g id="node23" class="node">
<title>projectListComponent.js</title>
<path fill="none" stroke="#ff6c60" d="M1580.21,-95.25C1580.21,-95.25 1426.04,-95.25 1426.04,-95.25 1421.96,-95.25 1417.88,-91.17 1417.88,-87.08 1417.88,-87.08 1417.88,-78.92 1417.88,-78.92 1417.88,-74.83 1421.96,-70.75 1426.04,-70.75 1426.04,-70.75 1580.21,-70.75 1580.21,-70.75 1584.29,-70.75 1588.38,-74.83 1588.38,-78.92 1588.38,-78.92 1588.38,-87.08 1588.38,-87.08 1588.38,-91.17 1584.29,-95.25 1580.21,-95.25"/>
<text text-anchor="middle" x="1503.12" y="-77.95" font-family="Arial" font-size="14.00" fill="#ff6c60">projectListComponent.js</text>
</g>
<!-- fixCircularDependenciesInComponents.js&#45;&gt;projectListComponent.js -->
<g id="edge25" class="edge">
<title>fixCircularDependenciesInComponents.js&#45;&gt;projectListComponent.js</title>
<path fill="none" stroke="#757575" d="M1231.41,-158.25C1265.31,-141.53 1338.83,-114.02 1402.5,-96 1403.87,-95.61 1405.24,-95.23 1406.63,-94.85"/>
<polygon fill="#757575" stroke="#757575" points="1407.2,-98.32 1415.97,-92.38 1405.41,-91.55 1407.2,-98.32"/>
</g>
<!-- todoComponent.js -->
<g id="node24" class="node">
<title>todoComponent.js</title>
<path fill="none" stroke="#ff6c60" d="M1561.46,-224.25C1561.46,-224.25 1444.79,-224.25 1444.79,-224.25 1440.71,-224.25 1436.62,-220.17 1436.62,-216.08 1436.62,-216.08 1436.62,-207.92 1436.62,-207.92 1436.62,-203.83 1440.71,-199.75 1444.79,-199.75 1444.79,-199.75 1561.46,-199.75 1561.46,-199.75 1565.54,-199.75 1569.62,-203.83 1569.62,-207.92 1569.62,-207.92 1569.62,-216.08 1569.62,-216.08 1569.62,-220.17 1565.54,-224.25 1561.46,-224.25"/>
<text text-anchor="middle" x="1503.12" y="-206.95" font-family="Arial" font-size="14.00" fill="#ff6c60">todoComponent.js</text>
</g>
<!-- fixCircularDependenciesInComponents.js&#45;&gt;todoComponent.js -->
<g id="edge26" class="edge">
<title>fixCircularDependenciesInComponents.js&#45;&gt;todoComponent.js</title>
<path fill="none" stroke="#757575" d="M1350.1,-183.74C1381.12,-188.06 1412.59,-192.87 1438.78,-197.34"/>
<polygon fill="#757575" stroke="#757575" points="1438.1,-200.77 1448.55,-199.04 1439.3,-193.88 1438.1,-200.77"/>
</g>
<!-- todoListComponent.js -->
<g id="node25" class="node">
<title>todoListComponent.js</title>
<path fill="none" stroke="#ff6c60" d="M1572.71,-181.25C1572.71,-181.25 1433.54,-181.25 1433.54,-181.25 1429.46,-181.25 1425.38,-177.17 1425.38,-173.08 1425.38,-173.08 1425.38,-164.92 1425.38,-164.92 1425.38,-160.83 1429.46,-156.75 1433.54,-156.75 1433.54,-156.75 1572.71,-156.75 1572.71,-156.75 1576.79,-156.75 1580.88,-160.83 1580.88,-164.92 1580.88,-164.92 1580.88,-173.08 1580.88,-173.08 1580.88,-177.17 1576.79,-181.25 1572.71,-181.25"/>
<text text-anchor="middle" x="1503.12" y="-163.95" font-family="Arial" font-size="14.00" fill="#ff6c60">todoListComponent.js</text>
</g>
<!-- fixCircularDependenciesInComponents.js&#45;&gt;todoListComponent.js -->
<g id="edge27" class="edge">
<title>fixCircularDependenciesInComponents.js&#45;&gt;todoListComponent.js</title>
<path fill="none" stroke="#757575" d="M1351.37,-163.3C1372.61,-163.11 1394.02,-163.12 1413.77,-163.34"/>
<polygon fill="#757575" stroke="#757575" points="1413.63,-166.84 1423.68,-163.47 1413.72,-159.84 1413.63,-166.84"/>
</g>
<!-- listInComponentMixin.js&#45;&gt;fixCircularDependenciesInComponents.js -->
<g id="edge45" class="edge">
<title>listInComponentMixin.js&#45;&gt;fixCircularDependenciesInComponents.js</title>
<path fill="none" stroke="#757575" d="M1420.14,-246.55C1414.16,-245.09 1408.22,-243.56 1402.5,-242 1345.37,-226.41 1279.98,-204.06 1242.72,-188.21"/>
<polygon fill="#757575" stroke="#757575" points="1244.5,-185.17 1233.93,-184.34 1241.67,-191.58 1244.5,-185.17"/>
</g>
<!-- noteComponent.js&#45;&gt;baseComponent.js -->
<g id="edge51" class="edge">
<title>noteComponent.js&#45;&gt;baseComponent.js</title>
<path fill="none" stroke="#757575" d="M1564.03,-285.29C1577.15,-282.36 1590.94,-279.17 1603.75,-276 1704.53,-251.02 1729.5,-243.69 1829,-214 1858.38,-205.23 1891.08,-194.74 1917.13,-186.2"/>
<polygon fill="#757575" stroke="#757575" points="1918.02,-189.59 1926.43,-183.14 1915.83,-182.94 1918.02,-189.59"/>
</g>
<!-- noteComponent.js&#45;&gt;fixCircularDependenciesInComponents.js -->
<g id="edge52" class="edge">
<title>noteComponent.js&#45;&gt;fixCircularDependenciesInComponents.js</title>
<path fill="none" stroke="#757575" d="M1436.76,-295.24C1425.18,-292.54 1413.35,-289.1 1402.5,-285 1337.36,-260.4 1267.28,-216.61 1233.32,-190.77"/>
<polygon fill="#757575" stroke="#757575" points="1235.56,-188.08 1225.54,-184.61 1231.21,-193.57 1235.56,-188.08"/>
</g>
<!-- noteListComponent.js&#45;&gt;baseListComponent.js -->
<g id="edge59" class="edge">
<title>noteListComponent.js&#45;&gt;baseListComponent.js</title>
<path fill="none" stroke="#757575" d="M1580.78,-126.33C1600.88,-126.42 1622.73,-126.52 1643.46,-126.61"/>
<polygon fill="#757575" stroke="#757575" points="1643.31,-130.11 1653.32,-126.65 1643.34,-123.11 1643.31,-130.11"/>
</g>
<!-- noteListComponent.js&#45;&gt;fixCircularDependenciesInComponents.js -->
<g id="edge60" class="edge">
<title>noteListComponent.js&#45;&gt;fixCircularDependenciesInComponents.js</title>
<path fill="none" stroke="#757575" d="M1453.52,-138.75C1424.52,-144.38 1386.13,-150.86 1348.53,-156.6"/>
<polygon fill="#757575" stroke="#757575" points="1348.29,-153.1 1338.93,-158.06 1349.34,-160.02 1348.29,-153.1"/>
</g>
<!-- projectComponent.js&#45;&gt;baseComponent.js -->
<g id="edge63" class="edge">
<title>projectComponent.js&#45;&gt;baseComponent.js</title>
<path fill="none" stroke="#757575" d="M1577.34,-49.79C1644.04,-59.9 1744.7,-78.15 1829,-106 1865.91,-118.2 1905.96,-137.74 1933.11,-152.03"/>
<polygon fill="#757575" stroke="#757575" points="1931.4,-155.08 1941.87,-156.7 1934.69,-148.9 1931.4,-155.08"/>
</g>
<!-- projectComponent.js&#45;&gt;fixCircularDependenciesInComponents.js -->
<g id="edge64" class="edge">
<title>projectComponent.js&#45;&gt;fixCircularDependenciesInComponents.js</title>
<path fill="none" stroke="#757575" d="M1468.17,-52.74C1448.55,-57.32 1423.65,-62.82 1402.5,-71 1345.93,-92.88 1286.09,-129.81 1249.02,-152.37"/>
<polygon fill="#757575" stroke="#757575" points="1247.23,-149.36 1240.49,-157.54 1250.85,-155.35 1247.23,-149.36"/>
</g>
<!-- projectListComponent.js&#45;&gt;baseListComponent.js -->
<g id="edge73" class="edge">
<title>projectListComponent.js&#45;&gt;baseListComponent.js</title>
<path fill="none" stroke="#757575" d="M1570.43,-95.73C1597.17,-100.86 1628.19,-106.81 1655.95,-112.14"/>
<polygon fill="#757575" stroke="#757575" points="1655.25,-115.57 1665.73,-114.02 1656.57,-108.69 1655.25,-115.57"/>
</g>
<!-- projectListComponent.js&#45;&gt;fixCircularDependenciesInComponents.js -->
<g id="edge74" class="edge">
<title>projectListComponent.js&#45;&gt;fixCircularDependenciesInComponents.js</title>
<path fill="none" stroke="#757575" d="M1474.42,-95.71C1454.31,-101.21 1426.53,-107.2 1402.5,-114 1359.69,-126.12 1312.42,-142.52 1275.74,-154.84"/>
<polygon fill="#757575" stroke="#757575" points="1275.02,-151.39 1266.64,-157.88 1277.23,-158.03 1275.02,-151.39"/>
</g>
<!-- todoComponent.js&#45;&gt;../js&#45;utilities/mathUtilities.js -->
<g id="edge78" class="edge">
<title>todoComponent.js&#45;&gt;../js&#45;utilities/mathUtilities.js</title>
<path fill="none" stroke="#757575" d="M1569.82,-200.54C1594.59,-196.21 1623.12,-191.24 1649.35,-186.66"/>
<polygon fill="#757575" stroke="#757575" points="1649.69,-190.15 1658.94,-184.99 1648.48,-183.26 1649.69,-190.15"/>
</g>
<!-- todoComponent.js&#45;&gt;baseComponent.js -->
<g id="edge79" class="edge">
<title>todoComponent.js&#45;&gt;baseComponent.js</title>
<path fill="none" stroke="#757575" d="M1569.95,-210.24C1635.71,-207.99 1739.6,-203.1 1829,-193 1848.1,-190.84 1868.58,-187.79 1887.73,-184.62"/>
<polygon fill="#757575" stroke="#757575" points="1888.07,-188.11 1897.34,-182.99 1886.9,-181.21 1888.07,-188.11"/>
</g>
<!-- todoComponent.js&#45;&gt;fixCircularDependenciesInComponents.js -->
<g id="edge80" class="edge">
<title>todoComponent.js&#45;&gt;fixCircularDependenciesInComponents.js</title>
<path fill="none" stroke="#757575" d="M1436.19,-208.43C1388.05,-202.95 1323.17,-193.74 1275.68,-185.63"/>
<polygon fill="#757575" stroke="#757575" points="1276.56,-182.23 1266.1,-183.96 1275.36,-189.13 1276.56,-182.23"/>
</g>
<!-- todoListComponent.js&#45;&gt;baseListComponent.js -->
<g id="edge92" class="edge">
<title>todoListComponent.js&#45;&gt;baseListComponent.js</title>
<path fill="none" stroke="#757575" d="M1573.53,-156.28C1598.44,-151.72 1626.75,-146.54 1652.54,-141.81"/>
<polygon fill="#757575" stroke="#757575" points="1653.12,-145.26 1662.32,-140.02 1651.86,-138.38 1653.12,-145.26"/>
</g>
<!-- todoListComponent.js&#45;&gt;fixCircularDependenciesInComponents.js -->
<g id="edge93" class="edge">
<title>todoListComponent.js&#45;&gt;fixCircularDependenciesInComponents.js</title>
<path fill="none" stroke="#757575" d="M1425.19,-175.57C1405.81,-176.14 1384.33,-176.53 1362.69,-176.71"/>
<polygon fill="#757575" stroke="#757575" points="1362.86,-173.21 1352.89,-176.78 1362.91,-180.21 1362.86,-173.21"/>
</g>
<!-- listInDomComponentMixin.js -->
<g id="node27" class="node">
<title>listInDomComponentMixin.js</title>
<path fill="none" stroke="#ff6c60" d="M1592.96,-671.25C1592.96,-671.25 1413.29,-671.25 1413.29,-671.25 1409.21,-671.25 1405.12,-667.17 1405.12,-663.08 1405.12,-663.08 1405.12,-654.92 1405.12,-654.92 1405.12,-650.83 1409.21,-646.75 1413.29,-646.75 1413.29,-646.75 1592.96,-646.75 1592.96,-646.75 1597.04,-646.75 1601.12,-650.83 1601.12,-654.92 1601.12,-654.92 1601.12,-663.08 1601.12,-663.08 1601.12,-667.17 1597.04,-671.25 1592.96,-671.25"/>
<text text-anchor="middle" x="1503.12" y="-653.95" font-family="Arial" font-size="14.00" fill="#ff6c60">listInDomComponentMixin.js</text>
</g>
<!-- fixCircularDependenciesInDomComponents.js&#45;&gt;listInDomComponentMixin.js -->
<g id="edge28" class="edge">
<title>fixCircularDependenciesInDomComponents.js&#45;&gt;listInDomComponentMixin.js</title>
<path fill="none" stroke="#757575" d="M1262.62,-689.3C1298.59,-682.61 1348.44,-674.78 1393.35,-668.59"/>
<polygon fill="#757575" stroke="#757575" points="1393.71,-672.07 1403.15,-667.26 1392.77,-665.14 1393.71,-672.07"/>
</g>
<!-- noteDomComponent.js -->
<g id="node28" class="node">
<title>noteDomComponent.js</title>
<path fill="none" stroke="#ff6c60" d="M1576.46,-757.25C1576.46,-757.25 1429.79,-757.25 1429.79,-757.25 1425.71,-757.25 1421.62,-753.17 1421.62,-749.08 1421.62,-749.08 1421.62,-740.92 1421.62,-740.92 1421.62,-736.83 1425.71,-732.75 1429.79,-732.75 1429.79,-732.75 1576.46,-732.75 1576.46,-732.75 1580.54,-732.75 1584.62,-736.83 1584.62,-740.92 1584.62,-740.92 1584.62,-749.08 1584.62,-749.08 1584.62,-753.17 1580.54,-757.25 1576.46,-757.25"/>
<text text-anchor="middle" x="1503.12" y="-739.95" font-family="Arial" font-size="14.00" fill="#ff6c60">noteDomComponent.js</text>
</g>
<!-- fixCircularDependenciesInDomComponents.js&#45;&gt;noteDomComponent.js -->
<g id="edge29" class="edge">
<title>fixCircularDependenciesInDomComponents.js&#45;&gt;noteDomComponent.js</title>
<path fill="none" stroke="#757575" d="M1343.33,-714.7C1377.34,-719.62 1412.39,-725.18 1440.88,-730.28"/>
<polygon fill="#757575" stroke="#757575" points="1439.91,-733.66 1450.37,-732.01 1441.16,-726.77 1439.91,-733.66"/>
</g>
<!-- noteDomMiniComponent.js -->
<g id="node29" class="node">
<title>noteDomMiniComponent.js</title>
<path fill="none" stroke="#ff6c60" d="M2052.46,-912.25C2052.46,-912.25 1881.04,-912.25 1881.04,-912.25 1876.96,-912.25 1872.88,-908.17 1872.88,-904.08 1872.88,-904.08 1872.88,-895.92 1872.88,-895.92 1872.88,-891.83 1876.96,-887.75 1881.04,-887.75 1881.04,-887.75 2052.46,-887.75 2052.46,-887.75 2056.54,-887.75 2060.62,-891.83 2060.62,-895.92 2060.62,-895.92 2060.62,-904.08 2060.62,-904.08 2060.62,-908.17 2056.54,-912.25 2052.46,-912.25"/>
<text text-anchor="middle" x="1966.75" y="-894.95" font-family="Arial" font-size="14.00" fill="#ff6c60">noteDomMiniComponent.js</text>
</g>
<!-- fixCircularDependenciesInDomComponents.js&#45;&gt;noteDomMiniComponent.js -->
<g id="edge30" class="edge">
<title>fixCircularDependenciesInDomComponents.js&#45;&gt;noteDomMiniComponent.js</title>
<path fill="none" stroke="#757575" d="M1229.93,-714.52C1261.24,-741.8 1330.48,-804.55 1402.5,-833 1553.8,-892.78 1744.86,-899.51 1861.05,-899.22"/>
<polygon fill="#757575" stroke="#757575" points="1860.91,-902.72 1870.89,-899.18 1860.88,-895.72 1860.91,-902.72"/>
</g>
<!-- noteListDomComponent.js -->
<g id="node30" class="node">
<title>noteListDomComponent.js</title>
<path fill="none" stroke="#ff6c60" d="M1587.71,-628.25C1587.71,-628.25 1418.54,-628.25 1418.54,-628.25 1414.46,-628.25 1410.38,-624.17 1410.38,-620.08 1410.38,-620.08 1410.38,-611.92 1410.38,-611.92 1410.38,-607.83 1414.46,-603.75 1418.54,-603.75 1418.54,-603.75 1587.71,-603.75 1587.71,-603.75 1591.79,-603.75 1595.88,-607.83 1595.88,-611.92 1595.88,-611.92 1595.88,-620.08 1595.88,-620.08 1595.88,-624.17 1591.79,-628.25 1587.71,-628.25"/>
<text text-anchor="middle" x="1503.12" y="-610.95" font-family="Arial" font-size="14.00" fill="#ff6c60">noteListDomComponent.js</text>
</g>
<!-- fixCircularDependenciesInDomComponents.js&#45;&gt;noteListDomComponent.js -->
<g id="edge31" class="edge">
<title>fixCircularDependenciesInDomComponents.js&#45;&gt;noteListDomComponent.js</title>
<path fill="none" stroke="#757575" d="M1231.98,-689.26C1264.41,-673.79 1331.96,-649.23 1399.24,-630"/>
<polygon fill="#757575" stroke="#757575" points="1399.89,-633.45 1408.57,-627.37 1398,-626.71 1399.89,-633.45"/>
</g>
<!-- projectDomComponent.js -->
<g id="node31" class="node">
<title>projectDomComponent.js</title>
<path fill="none" stroke="#ff6c60" d="M1584.33,-714.25C1584.33,-714.25 1421.92,-714.25 1421.92,-714.25 1417.83,-714.25 1413.75,-710.17 1413.75,-706.08 1413.75,-706.08 1413.75,-697.92 1413.75,-697.92 1413.75,-693.83 1417.83,-689.75 1421.92,-689.75 1421.92,-689.75 1584.33,-689.75 1584.33,-689.75 1588.42,-689.75 1592.5,-693.83 1592.5,-697.92 1592.5,-697.92 1592.5,-706.08 1592.5,-706.08 1592.5,-710.17 1588.42,-714.25 1584.33,-714.25"/>
<text text-anchor="middle" x="1503.12" y="-696.95" font-family="Arial" font-size="14.00" fill="#ff6c60">projectDomComponent.js</text>
</g>
<!-- fixCircularDependenciesInDomComponents.js&#45;&gt;projectDomComponent.js -->
<g id="edge32" class="edge">
<title>fixCircularDependenciesInDomComponents.js&#45;&gt;projectDomComponent.js</title>
<path fill="none" stroke="#757575" d="M1366.64,-695.26C1378.7,-695.29 1390.67,-695.39 1402.22,-695.55"/>
<polygon fill="#757575" stroke="#757575" points="1402.04,-699.04 1412.1,-695.7 1402.15,-692.05 1402.04,-699.04"/>
</g>
<!-- projectDomMiniComponent.js -->
<g id="node32" class="node">
<title>projectDomMiniComponent.js</title>
<path fill="none" stroke="#ff6c60" d="M2060.33,-862.25C2060.33,-862.25 1873.17,-862.25 1873.17,-862.25 1869.08,-862.25 1865,-858.17 1865,-854.08 1865,-854.08 1865,-845.92 1865,-845.92 1865,-841.83 1869.08,-837.75 1873.17,-837.75 1873.17,-837.75 2060.33,-837.75 2060.33,-837.75 2064.42,-837.75 2068.5,-841.83 2068.5,-845.92 2068.5,-845.92 2068.5,-854.08 2068.5,-854.08 2068.5,-858.17 2064.42,-862.25 2060.33,-862.25"/>
<text text-anchor="middle" x="1966.75" y="-844.95" font-family="Arial" font-size="14.00" fill="#ff6c60">projectDomMiniComponent.js</text>
</g>
<!-- fixCircularDependenciesInDomComponents.js&#45;&gt;projectDomMiniComponent.js -->
<g id="edge33" class="edge">
<title>fixCircularDependenciesInDomComponents.js&#45;&gt;projectDomMiniComponent.js</title>
<path fill="none" stroke="#757575" d="M1240.64,-714.71C1276.5,-735.09 1341.19,-773.21 1402.5,-791 1554.31,-835.04 1737.97,-843.46 1853.36,-845.89"/>
<polygon fill="#757575" stroke="#757575" points="1853.08,-849.38 1863.15,-846.08 1853.22,-842.38 1853.08,-849.38"/>
</g>
<!-- projectListDomComponent.js -->
<g id="node33" class="node">
<title>projectListDomComponent.js</title>
<path fill="none" stroke="#ff6c60" d="M1595.58,-542.25C1595.58,-542.25 1410.67,-542.25 1410.67,-542.25 1406.58,-542.25 1402.5,-538.17 1402.5,-534.08 1402.5,-534.08 1402.5,-525.92 1402.5,-525.92 1402.5,-521.83 1406.58,-517.75 1410.67,-517.75 1410.67,-517.75 1595.58,-517.75 1595.58,-517.75 1599.67,-517.75 1603.75,-521.83 1603.75,-525.92 1603.75,-525.92 1603.75,-534.08 1603.75,-534.08 1603.75,-538.17 1599.67,-542.25 1595.58,-542.25"/>
<text text-anchor="middle" x="1503.12" y="-524.95" font-family="Arial" font-size="14.00" fill="#ff6c60">projectListDomComponent.js</text>
</g>
<!-- fixCircularDependenciesInDomComponents.js&#45;&gt;projectListDomComponent.js -->
<g id="edge34" class="edge">
<title>fixCircularDependenciesInDomComponents.js&#45;&gt;projectListDomComponent.js</title>
<path fill="none" stroke="#757575" d="M1220.62,-689.29C1244.25,-659.53 1316.14,-587.26 1393.51,-547.47"/>
<polygon fill="#757575" stroke="#757575" points="1394.69,-550.79 1402.11,-543.22 1391.59,-544.51 1394.69,-550.79"/>
</g>
<!-- todoDomComponent.js -->
<g id="node34" class="node">
<title>todoDomComponent.js</title>
<path fill="none" stroke="#ff6c60" d="M1808.08,-974.25C1808.08,-974.25 1660.67,-974.25 1660.67,-974.25 1656.58,-974.25 1652.5,-970.17 1652.5,-966.08 1652.5,-966.08 1652.5,-957.92 1652.5,-957.92 1652.5,-953.83 1656.58,-949.75 1660.67,-949.75 1660.67,-949.75 1808.08,-949.75 1808.08,-949.75 1812.17,-949.75 1816.25,-953.83 1816.25,-957.92 1816.25,-957.92 1816.25,-966.08 1816.25,-966.08 1816.25,-970.17 1812.17,-974.25 1808.08,-974.25"/>
<text text-anchor="middle" x="1734.38" y="-956.95" font-family="Arial" font-size="14.00" fill="#ff6c60">todoDomComponent.js</text>
</g>
<!-- fixCircularDependenciesInDomComponents.js&#45;&gt;todoDomComponent.js -->
<g id="edge35" class="edge">
<title>fixCircularDependenciesInDomComponents.js&#45;&gt;todoDomComponent.js</title>
<path fill="none" stroke="#757575" d="M1220.7,-714.62C1242.92,-753.67 1308.92,-870.49 1402.5,-920 1475.97,-958.87 1571.46,-964.46 1640.97,-963.5"/>
<polygon fill="#757575" stroke="#757575" points="1640.88,-967.01 1650.81,-963.32 1640.75,-960.01 1640.88,-967.01"/>
</g>
<!-- todoDomMiniComponent.js -->
<g id="node35" class="node">
<title>todoDomMiniComponent.js</title>
<path fill="none" stroke="#ff6c60" d="M1820.46,-806.25C1820.46,-806.25 1648.29,-806.25 1648.29,-806.25 1644.21,-806.25 1640.12,-802.17 1640.12,-798.08 1640.12,-798.08 1640.12,-789.92 1640.12,-789.92 1640.12,-785.83 1644.21,-781.75 1648.29,-781.75 1648.29,-781.75 1820.46,-781.75 1820.46,-781.75 1824.54,-781.75 1828.62,-785.83 1828.62,-789.92 1828.62,-789.92 1828.62,-798.08 1828.62,-798.08 1828.62,-802.17 1824.54,-806.25 1820.46,-806.25"/>
<text text-anchor="middle" x="1734.38" y="-788.95" font-family="Arial" font-size="14.00" fill="#ff6c60">todoDomMiniComponent.js</text>
</g>
<!-- fixCircularDependenciesInDomComponents.js&#45;&gt;todoDomMiniComponent.js -->
<g id="edge36" class="edge">
<title>fixCircularDependenciesInDomComponents.js&#45;&gt;todoDomMiniComponent.js</title>
<path fill="none" stroke="#757575" d="M1261.21,-714.65C1299.07,-727.7 1353.25,-746.78 1402.5,-757 1477.2,-772.51 1563.1,-779.46 1628.64,-783.81"/>
<polygon fill="#757575" stroke="#757575" points="1628.09,-787.28 1638.3,-784.44 1628.55,-780.3 1628.09,-787.28"/>
</g>
<!-- todoListDomComponent.js -->
<g id="node36" class="node">
<title>todoListDomComponent.js</title>
<path fill="none" stroke="#ff6c60" d="M1588.08,-585.25C1588.08,-585.25 1418.17,-585.25 1418.17,-585.25 1414.08,-585.25 1410,-581.17 1410,-577.08 1410,-577.08 1410,-568.92 1410,-568.92 1410,-564.83 1414.08,-560.75 1418.17,-560.75 1418.17,-560.75 1588.08,-560.75 1588.08,-560.75 1592.17,-560.75 1596.25,-564.83 1596.25,-568.92 1596.25,-568.92 1596.25,-577.08 1596.25,-577.08 1596.25,-581.17 1592.17,-585.25 1588.08,-585.25"/>
<text text-anchor="middle" x="1503.12" y="-567.95" font-family="Arial" font-size="14.00" fill="#ff6c60">todoListDomComponent.js</text>
</g>
<!-- fixCircularDependenciesInDomComponents.js&#45;&gt;todoListDomComponent.js -->
<g id="edge37" class="edge">
<title>fixCircularDependenciesInDomComponents.js&#45;&gt;todoListDomComponent.js</title>
<path fill="none" stroke="#757575" d="M1223.9,-689.52C1251.26,-666.24 1323.47,-618.15 1398.91,-587.62"/>
<polygon fill="#757575" stroke="#757575" points="1400.13,-590.9 1408.16,-583.99 1397.57,-584.39 1400.13,-590.9"/>
</g>
<!-- listInDomComponentMixin.js&#45;&gt;fixCircularDependenciesInDomComponents.js -->
<g id="edge46" class="edge">
<title>listInDomComponentMixin.js&#45;&gt;fixCircularDependenciesInDomComponents.js</title>
<path fill="none" stroke="#757575" d="M1451.86,-671.72C1424.66,-676.78 1389.55,-682.49 1354.65,-687.64"/>
<polygon fill="#757575" stroke="#757575" points="1354.22,-684.17 1344.83,-689.08 1355.23,-691.1 1354.22,-684.17"/>
</g>
<!-- noteDomComponent.js&#45;&gt;baseDomComponent.js -->
<g id="edge53" class="edge">
<title>noteDomComponent.js&#45;&gt;baseDomComponent.js</title>
<path fill="none" stroke="#757575" d="M1585.06,-740.79C1665.04,-736.63 1787.3,-730.28 1871.59,-725.9"/>
<polygon fill="#757575" stroke="#757575" points="1871.64,-729.4 1881.45,-725.38 1871.28,-722.41 1871.64,-729.4"/>
</g>
<!-- noteDomComponent.js&#45;&gt;fixCircularDependenciesInDomComponents.js -->
<g id="edge54" class="edge">
<title>noteDomComponent.js&#45;&gt;fixCircularDependenciesInDomComponents.js</title>
<path fill="none" stroke="#757575" d="M1421.2,-739.11C1374.48,-733.15 1316.67,-724.4 1273.75,-716.72"/>
<polygon fill="#757575" stroke="#757575" points="1274.57,-713.32 1264.11,-714.97 1273.32,-720.2 1274.57,-713.32"/>
</g>
<!-- noteDomMiniComponent.js&#45;&gt;../js&#45;utilities/commonDomComponents.js -->
<g id="edge55" class="edge">
<title>noteDomMiniComponent.js&#45;&gt;../js&#45;utilities/commonDomComponents.js</title>
<path fill="none" stroke="#757575" d="M2061.1,-891.4C2071.45,-890.44 2082.16,-889.45 2092.97,-888.46"/>
<polygon fill="#757575" stroke="#757575" points="2093.1,-891.96 2102.74,-887.56 2092.46,-884.99 2093.1,-891.96"/>
</g>
<!-- noteDomMiniComponent.js&#45;&gt;uiIcons.js -->
<g id="edge57" class="edge">
<title>noteDomMiniComponent.js&#45;&gt;uiIcons.js</title>
<path fill="none" stroke="#757575" d="M2028.08,-887.32C2041.83,-883.17 2056.05,-877.82 2068.5,-871 2132.04,-836.22 2192.19,-774.1 2221.1,-741.8"/>
<polygon fill="#757575" stroke="#757575" points="2223.4,-744.48 2227.4,-734.66 2218.15,-739.84 2223.4,-744.48"/>
</g>
<!-- noteDomMiniComponent.js&#45;&gt;fixCircularDependenciesInDomComponents.js -->
<g id="edge56" class="edge">
<title>noteDomMiniComponent.js&#45;&gt;fixCircularDependenciesInDomComponents.js</title>
<path fill="none" stroke="#757575" d="M1872.41,-911.81C1757.63,-917.89 1558.84,-912.77 1402.5,-851 1329,-821.96 1258.41,-757.22 1228.06,-723.2"/>
<polygon fill="#757575" stroke="#757575" points="1230.74,-720.95 1221.58,-715.62 1225.42,-725.5 1230.74,-720.95"/>
</g>
<!-- noteListDomComponent.js&#45;&gt;baseListDomComponent.js -->
<g id="edge61" class="edge">
<title>noteListDomComponent.js&#45;&gt;baseListDomComponent.js</title>
<path fill="none" stroke="#757575" d="M1596.05,-607.18C1606.68,-606.16 1617.58,-605.11 1628.37,-604.08"/>
<polygon fill="#757575" stroke="#757575" points="1628.43,-607.59 1638.05,-603.15 1627.76,-600.62 1628.43,-607.59"/>
</g>
<!-- noteListDomComponent.js&#45;&gt;fixCircularDependenciesInDomComponents.js -->
<g id="edge62" class="edge">
<title>noteListDomComponent.js&#45;&gt;fixCircularDependenciesInDomComponents.js</title>
<path fill="none" stroke="#757575" d="M1474.87,-628.66C1454.74,-634.23 1426.73,-640.26 1402.5,-647 1360.86,-658.57 1314.92,-673.97 1278.65,-685.74"/>
<polygon fill="#757575" stroke="#757575" points="1277.6,-682.4 1269.15,-688.8 1279.75,-689.06 1277.6,-682.4"/>
</g>
<!-- projectDomComponent.js&#45;&gt;baseDomComponent.js -->
<g id="edge65" class="edge">
<title>projectDomComponent.js&#45;&gt;baseDomComponent.js</title>
<path fill="none" stroke="#757575" d="M1592.86,-705.65C1672.9,-708.95 1790.25,-713.78 1871.85,-717.14"/>
<polygon fill="#757575" stroke="#757575" points="1871.47,-720.62 1881.61,-717.54 1871.76,-713.63 1871.47,-720.62"/>
</g>
<!-- projectDomComponent.js&#45;&gt;fixCircularDependenciesInDomComponents.js -->
<g id="edge66" class="edge">
<title>projectDomComponent.js&#45;&gt;fixCircularDependenciesInDomComponents.js</title>
<path fill="none" stroke="#757575" d="M1413.61,-708.27C1402.15,-708.48 1390.13,-708.62 1377.91,-708.69"/>
<polygon fill="#757575" stroke="#757575" points="1378.14,-705.19 1368.15,-708.73 1378.17,-712.19 1378.14,-705.19"/>
</g>
<!-- projectDomMiniComponent.js&#45;&gt;../js&#45;utilities/commonDomComponents.js -->
<g id="edge67" class="edge">
<title>projectDomMiniComponent.js&#45;&gt;../js&#45;utilities/commonDomComponents.js</title>
<path fill="none" stroke="#757575" d="M2068.75,-859.31C2076.73,-860.04 2084.87,-860.79 2093.07,-861.55"/>
<polygon fill="#757575" stroke="#757575" points="2092.48,-865.01 2102.76,-862.44 2093.12,-858.04 2092.48,-865.01"/>
</g>
<!-- projectDomMiniComponent.js&#45;&gt;uiIcons.js -->
<g id="edge69" class="edge">
<title>projectDomMiniComponent.js&#45;&gt;uiIcons.js</title>
<path fill="none" stroke="#757575" d="M1994.25,-837.4C2042.97,-814.23 2146.83,-764.83 2202.3,-738.46"/>
<polygon fill="#757575" stroke="#757575" points="2203.5,-741.76 2211.02,-734.31 2200.49,-735.44 2203.5,-741.76"/>
</g>
<!-- projectDomMiniComponent.js&#45;&gt;fixCircularDependenciesInDomComponents.js -->
<g id="edge68" class="edge">
<title>projectDomMiniComponent.js&#45;&gt;fixCircularDependenciesInDomComponents.js</title>
<path fill="none" stroke="#757575" d="M1864.66,-859.17C1750.24,-861.98 1559.36,-854.51 1402.5,-809 1336.64,-789.89 1266.88,-747.32 1233.15,-721.72"/>
<polygon fill="#757575" stroke="#757575" points="1235.45,-719.08 1225.44,-715.61 1231.11,-724.57 1235.45,-719.08"/>
</g>
<!-- projectListDomComponent.js&#45;&gt;baseListDomComponent.js -->
<g id="edge75" class="edge">
<title>projectListDomComponent.js&#45;&gt;baseListDomComponent.js</title>
<path fill="none" stroke="#757575" d="M1566,-542.7C1578.55,-545.54 1591.61,-548.7 1603.75,-552 1631.46,-559.53 1662.05,-569.37 1686.54,-577.62"/>
<polygon fill="#757575" stroke="#757575" points="1685.31,-580.9 1695.9,-580.81 1687.56,-574.27 1685.31,-580.9"/>
</g>
<!-- projectListDomComponent.js&#45;&gt;fixCircularDependenciesInDomComponents.js -->
<g id="edge76" class="edge">
<title>projectListDomComponent.js&#45;&gt;fixCircularDependenciesInDomComponents.js</title>
<path fill="none" stroke="#757575" d="M1462.47,-542.7C1443.64,-546.76 1421.23,-552.12 1402.5,-561 1336.27,-592.41 1272.09,-650.65 1237.91,-681.73"/>
<polygon fill="#757575" stroke="#757575" points="1235.66,-679.04 1230.61,-688.36 1240.37,-684.23 1235.66,-679.04"/>
</g>
<!-- todoDomComponent.js&#45;&gt;../js&#45;utilities/commonDomComponents.js -->
<g id="edge81" class="edge">
<title>todoDomComponent.js&#45;&gt;../js&#45;utilities/commonDomComponents.js</title>
<path fill="none" stroke="#757575" d="M1816.66,-955.23C1884.42,-948.81 1983.29,-937.65 2068.5,-921 2108.92,-913.1 2153.86,-900.83 2187.45,-890.95"/>
<polygon fill="#757575" stroke="#757575" points="2188.34,-894.33 2196.93,-888.13 2186.35,-887.62 2188.34,-894.33"/>
</g>
<!-- todoDomComponent.js&#45;&gt;../js&#45;utilities/fontAwesomeUtilities.js -->
<g id="edge82" class="edge">
<title>todoDomComponent.js&#45;&gt;../js&#45;utilities/fontAwesomeUtilities.js</title>
<path fill="none" stroke="#757575" d="M1739.55,-974.53C1751.98,-1009.55 1792.51,-1108.39 1865,-1146 1945.28,-1187.65 1983.28,-1176.31 2068.5,-1146 2297.43,-1064.58 2469.03,-796.48 2515.71,-717.24"/>
<polygon fill="#757575" stroke="#757575" points="2518.7,-719.07 2520.7,-708.66 2512.64,-715.55 2518.7,-719.07"/>
</g>
<!-- todoDomComponent.js&#45;&gt;baseDomComponent.js -->
<g id="edge83" class="edge">
<title>todoDomComponent.js&#45;&gt;baseDomComponent.js</title>
<path fill="none" stroke="#757575" d="M1747.44,-949.38C1784.91,-910.18 1899.6,-790.2 1945.98,-741.69"/>
<polygon fill="#757575" stroke="#757575" points="1948.38,-744.23 1952.76,-734.59 1943.32,-739.4 1948.38,-744.23"/>
</g>
<!-- todoDomComponent.js&#45;&gt;fixCircularDependenciesInDomComponents.js -->
<g id="edge84" class="edge">
<title>todoDomComponent.js&#45;&gt;fixCircularDependenciesInDomComponents.js</title>
<path fill="none" stroke="#757575" d="M1680.02,-974.72C1611.54,-983.35 1491.03,-984.84 1402.5,-938 1310,-889.06 1244.43,-774.34 1221.48,-724.93"/>
<polygon fill="#757575" stroke="#757575" points="1224.78,-723.73 1217.52,-716.02 1218.39,-726.58 1224.78,-723.73"/>
</g>
<!-- todoDomMiniComponent.js&#45;&gt;../js&#45;utilities/commonDomComponents.js -->
<g id="edge85" class="edge">
<title>todoDomMiniComponent.js&#45;&gt;../js&#45;utilities/commonDomComponents.js</title>
<path fill="none" stroke="#757575" d="M1828.92,-799.84C1896.01,-804.99 1988.32,-814.07 2068.5,-829 2109.26,-836.59 2154.52,-848.99 2188.17,-859.01"/>
<polygon fill="#757575" stroke="#757575" points="2187.07,-862.34 2197.66,-861.87 2189.09,-855.63 2187.07,-862.34"/>
</g>
<!-- todoDomMiniComponent.js&#45;&gt;uiIcons.js -->
<g id="edge87" class="edge">
<title>todoDomMiniComponent.js&#45;&gt;uiIcons.js</title>
<path fill="none" stroke="#757575" d="M1823.1,-781.28C1929.55,-765.85 2105.3,-740.38 2190.16,-728.08"/>
<polygon fill="#757575" stroke="#757575" points="2190.62,-731.55 2200.01,-726.65 2189.62,-724.62 2190.62,-731.55"/>
</g>
<!-- todoDomMiniComponent.js&#45;&gt;fixCircularDependenciesInDomComponents.js -->
<g id="edge86" class="edge">
<title>todoDomMiniComponent.js&#45;&gt;fixCircularDependenciesInDomComponents.js</title>
<path fill="none" stroke="#757575" d="M1639.81,-799.59C1573.07,-798.24 1481.52,-791.4 1402.5,-775 1342.94,-762.64 1276.16,-737.33 1239.77,-719.65"/>
<polygon fill="#757575" stroke="#757575" points="1241.77,-716.74 1231.27,-715.34 1238.61,-722.98 1241.77,-716.74"/>
</g>
<!-- todoListDomComponent.js&#45;&gt;baseListDomComponent.js -->
<g id="edge94" class="edge">
<title>todoListDomComponent.js&#45;&gt;baseListDomComponent.js</title>
<path fill="none" stroke="#757575" d="M1596.71,-581.48C1607.02,-582.43 1617.58,-583.39 1628.04,-584.35"/>
<polygon fill="#757575" stroke="#757575" points="1627.54,-587.82 1637.82,-585.25 1628.18,-580.85 1627.54,-587.82"/>
</g>
<!-- todoListDomComponent.js&#45;&gt;fixCircularDependenciesInDomComponents.js -->
<g id="edge95" class="edge">
<title>todoListDomComponent.js&#45;&gt;fixCircularDependenciesInDomComponents.js</title>
<path fill="none" stroke="#757575" d="M1468.65,-585.7C1448.97,-590.32 1423.84,-595.84 1402.5,-604 1346.42,-625.44 1286.91,-661.38 1249.73,-683.48"/>
<polygon fill="#757575" stroke="#757575" points="1247.99,-680.45 1241.17,-688.56 1251.55,-686.47 1247.99,-680.45"/>
</g>
<!-- navDomComponent.js&#45;&gt;../js&#45;utilities/commonDomComponents.js -->
<g id="edge50" class="edge">
<title>navDomComponent.js&#45;&gt;../js&#45;utilities/commonDomComponents.js</title>
<path fill="none" stroke="#757575" d="M2041.24,-1112.25C2050.85,-1108.83 2060.22,-1104.5 2068.5,-1099 2148.06,-1046.15 2205.51,-943.44 2228.25,-897.8"/>
<polygon fill="#757575" stroke="#757575" points="2231.37,-899.38 2232.61,-888.86 2225.08,-896.31 2231.37,-899.38"/>
</g>
<!-- homeDomComponent.js&#45;&gt;../js&#45;utilities/commonDomComponents.js -->
<g id="edge39" class="edge">
<title>homeDomComponent.js&#45;&gt;../js&#45;utilities/commonDomComponents.js</title>
<path fill="none" stroke="#757575" d="M668.66,-694.43C707.94,-747.46 870.19,-956.41 1056.5,-1053 1118.56,-1085.18 1140.59,-1085 1210.5,-1085 1210.5,-1085 1210.5,-1085 1735.38,-1085 1884.11,-1085 1934.66,-1117.88 2068.5,-1053 2141.87,-1017.44 2200.47,-936.21 2225.65,-896.99"/>
<polygon fill="#757575" stroke="#757575" points="2228.55,-898.94 2230.91,-888.61 2222.63,-895.22 2228.55,-898.94"/>
</g>
<!-- homeDomComponent.js&#45;&gt;uiIcons.js -->
<g id="edge42" class="edge">
<title>homeDomComponent.js&#45;&gt;uiIcons.js</title>
<path fill="none" stroke="#757575" d="M691.57,-669.31C810.88,-623.4 1242.1,-470.53 1603.75,-509 1813.85,-531.35 1873.61,-527.39 2068.5,-609 2125.34,-632.8 2183.68,-675.99 2215.22,-701.21"/>
<polygon fill="#757575" stroke="#757575" points="2212.97,-703.89 2222.94,-707.47 2217.38,-698.46 2212.97,-703.89"/>
</g>
<!-- homeDomComponent.js&#45;&gt;fixCircularDependenciesInDomComponents.js -->
<g id="edge40" class="edge">
<title>homeDomComponent.js&#45;&gt;fixCircularDependenciesInDomComponents.js</title>
<path fill="none" stroke="#757575" d="M744.49,-685.08C824.26,-687.98 945.86,-692.39 1044.85,-695.99"/>
<polygon fill="#757575" stroke="#757575" points="1044.55,-699.48 1054.68,-696.34 1044.81,-692.48 1044.55,-699.48"/>
</g>
<!-- projectDomMiniNavComponent.js -->
<g id="node39" class="node">
<title>projectDomMiniNavComponent.js</title>
<path fill="none" stroke="#c6c5fe" d="M1012.33,-734.25C1012.33,-734.25 801.17,-734.25 801.17,-734.25 797.08,-734.25 793,-730.17 793,-726.08 793,-726.08 793,-717.92 793,-717.92 793,-713.83 797.08,-709.75 801.17,-709.75 801.17,-709.75 1012.33,-709.75 1012.33,-709.75 1016.42,-709.75 1020.5,-713.83 1020.5,-717.92 1020.5,-717.92 1020.5,-726.08 1020.5,-726.08 1020.5,-730.17 1016.42,-734.25 1012.33,-734.25"/>
<text text-anchor="middle" x="906.75" y="-716.95" font-family="Arial" font-size="14.00" fill="#c6c5fe">projectDomMiniNavComponent.js</text>
</g>
<!-- homeDomComponent.js&#45;&gt;projectDomMiniNavComponent.js -->
<g id="edge41" class="edge">
<title>homeDomComponent.js&#45;&gt;projectDomMiniNavComponent.js</title>
<path fill="none" stroke="#757575" d="M737.84,-694.71C762.73,-698.76 790.46,-703.26 816.09,-707.43"/>
<polygon fill="#757575" stroke="#757575" points="815.39,-710.86 825.82,-709.01 816.51,-703.95 815.39,-710.86"/>
</g>
<!-- projectDomMiniNavComponent.js&#45;&gt;../js&#45;utilities/commonDomComponents.js -->
<g id="edge70" class="edge">
<title>projectDomMiniNavComponent.js&#45;&gt;../js&#45;utilities/commonDomComponents.js</title>
<path fill="none" stroke="#757575" d="M909.49,-734.64C916.83,-782.41 949.92,-952.74 1056.5,-1023 1139.3,-1077.58 1402.95,-1047 1502.12,-1047 1502.12,-1047 1502.12,-1047 1735.38,-1047 1883.81,-1047 1931.4,-1079.9 2068.5,-1023 2135.68,-995.12 2195.05,-929.9 2222.63,-896.12"/>
<polygon fill="#757575" stroke="#757575" points="2225.09,-898.66 2228.61,-888.66 2219.62,-894.28 2225.09,-898.66"/>
</g>
<!-- projectDomMiniNavComponent.js&#45;&gt;fixCircularDependenciesInDomComponents.js -->
<g id="edge71" class="edge">
<title>projectDomMiniNavComponent.js&#45;&gt;fixCircularDependenciesInDomComponents.js</title>
<path fill="none" stroke="#757575" d="M1020.91,-714.52C1028.73,-714.01 1036.7,-713.48 1044.72,-712.95"/>
<polygon fill="#757575" stroke="#757575" points="1044.82,-716.45 1054.57,-712.3 1044.36,-709.47 1044.82,-716.45"/>
</g>
<!-- initWebpage.js -->
<g id="node40" class="node">
<title>initWebpage.js</title>
<path fill="none" stroke="#c6c5fe" d="M102.33,-247.25C102.33,-247.25 8.17,-247.25 8.17,-247.25 4.08,-247.25 0,-243.17 0,-239.08 0,-239.08 0,-230.92 0,-230.92 0,-226.83 4.08,-222.75 8.17,-222.75 8.17,-222.75 102.33,-222.75 102.33,-222.75 106.42,-222.75 110.5,-226.83 110.5,-230.92 110.5,-230.92 110.5,-239.08 110.5,-239.08 110.5,-243.17 106.42,-247.25 102.33,-247.25"/>
<text text-anchor="middle" x="55.25" y="-229.95" font-family="Arial" font-size="14.00" fill="#c6c5fe">initWebpage.js</text>
</g>
<!-- initWebpage.js&#45;&gt;domStructure.js -->
<g id="edge43" class="edge">
<title>initWebpage.js&#45;&gt;domStructure.js</title>
<path fill="none" stroke="#757575" d="M87.39,-247.75C110.75,-257.31 142.96,-270.5 168.53,-280.97"/>
<polygon fill="#757575" stroke="#757575" points="167.05,-284.15 177.63,-284.7 169.7,-277.67 167.05,-284.15"/>
</g>
<!-- rootComponent.js -->
<g id="node41" class="node">
<title>rootComponent.js</title>
<path fill="none" stroke="#c6c5fe" d="M267.58,-226.25C267.58,-226.25 154.67,-226.25 154.67,-226.25 150.58,-226.25 146.5,-222.17 146.5,-218.08 146.5,-218.08 146.5,-209.92 146.5,-209.92 146.5,-205.83 150.58,-201.75 154.67,-201.75 154.67,-201.75 267.58,-201.75 267.58,-201.75 271.67,-201.75 275.75,-205.83 275.75,-209.92 275.75,-209.92 275.75,-218.08 275.75,-218.08 275.75,-222.17 271.67,-226.25 267.58,-226.25"/>
<text text-anchor="middle" x="211.12" y="-208.95" font-family="Arial" font-size="14.00" fill="#c6c5fe">rootComponent.js</text>
</g>
<!-- initWebpage.js&#45;&gt;rootComponent.js -->
<g id="edge44" class="edge">
<title>initWebpage.js&#45;&gt;rootComponent.js</title>
<path fill="none" stroke="#757575" d="M110.93,-227.54C118.68,-226.48 126.76,-225.38 134.82,-224.28"/>
<polygon fill="#757575" stroke="#757575" points="135.22,-227.75 144.66,-222.93 134.28,-220.82 135.22,-227.75"/>
</g>
<!-- rootComponent.js&#45;&gt;fixCircularDependenciesInComponents.js -->
<g id="edge77" class="edge">
<title>rootComponent.js&#45;&gt;fixCircularDependenciesInComponents.js</title>
<path fill="none" stroke="#757575" d="M276.13,-207.74C287.97,-206.72 300.23,-205.75 311.75,-205 574.69,-187.84 881.52,-178.53 1060.11,-174.18"/>
<polygon fill="#757575" stroke="#757575" points="1060,-177.68 1069.91,-173.94 1059.83,-170.68 1060,-177.68"/>
</g>
</g>
</svg>
