<?xml version="1.0" encoding="UTF-8" standalone="no"?>
<!DOCTYPE svg PUBLIC "-//W3C//DTD SVG 1.1//EN"
 "http://www.w3.org/Graphics/SVG/1.1/DTD/svg11.dtd">
<!-- Generated by graphviz version 11.0.0 (20240428.1522)
 -->
<!-- Title: G Pages: 1 -->
<svg width="3944pt" height="1108pt"
 viewBox="0.00 0.00 3944.45 1108.42" xmlns="http://www.w3.org/2000/svg" xmlns:xlink="http://www.w3.org/1999/xlink">
<g id="graph0" class="graph" transform="scale(1 1) rotate(0) translate(21.6 1086.82)">
<title>G</title>
<polygon fill="#111111" stroke="none" points="-21.6,21.6 -21.6,-1086.82 3922.85,-1086.82 3922.85,21.6 -21.6,21.6"/>
<!-- index.css -->
<g id="node1" class="node">
<title>index.css</title>
<path fill="none" stroke="#cfffac" d="M221.83,-365.5C221.83,-365.5 162.17,-365.5 162.17,-365.5 158.08,-365.5 154,-361.42 154,-357.33 154,-357.33 154,-349.17 154,-349.17 154,-345.08 158.08,-341 162.17,-341 162.17,-341 221.83,-341 221.83,-341 225.92,-341 230,-345.08 230,-349.17 230,-349.17 230,-357.33 230,-357.33 230,-361.42 225.92,-365.5 221.83,-365.5"/>
<text text-anchor="middle" x="192" y="-348.2" font-family="Arial" font-size="14.00" fill="#cfffac">index.css</text>
</g>
<!-- index.js -->
<g id="node2" class="node">
<title>index.js</title>
<path fill="none" stroke="#c6c5fe" d="M55.83,-343.5C55.83,-343.5 8.17,-343.5 8.17,-343.5 4.08,-343.5 0,-339.42 0,-335.33 0,-335.33 0,-327.17 0,-327.17 0,-323.08 4.08,-319 8.17,-319 8.17,-319 55.83,-319 55.83,-319 59.92,-319 64,-323.08 64,-327.17 64,-327.17 64,-335.33 64,-335.33 64,-339.42 59.92,-343.5 55.83,-343.5"/>
<text text-anchor="middle" x="32" y="-326.2" font-family="Arial" font-size="14.00" fill="#c6c5fe">index.js</text>
</g>
<!-- index.js&#45;&gt;index.css -->
<g id="edge1" class="edge">
<title>index.js&#45;&gt;index.css</title>
<path fill="none" stroke="#757575" d="M64.22,-335.6C86.52,-338.7 116.97,-342.94 142.43,-346.49"/>
<polygon fill="#757575" stroke="#757575" points="141.85,-349.94 152.24,-347.85 142.81,-343.01 141.85,-349.94"/>
</g>
<!-- js&#45;modules/initWebpage.js -->
<g id="node3" class="node">
<title>js&#45;modules/initWebpage.js</title>
<path fill="none" stroke="#c6c5fe" d="M275.83,-322.5C275.83,-322.5 108.17,-322.5 108.17,-322.5 104.08,-322.5 100,-318.42 100,-314.33 100,-314.33 100,-306.17 100,-306.17 100,-302.08 104.08,-298 108.17,-298 108.17,-298 275.83,-298 275.83,-298 279.92,-298 284,-302.08 284,-306.17 284,-306.17 284,-314.33 284,-314.33 284,-318.42 279.92,-322.5 275.83,-322.5"/>
<text text-anchor="middle" x="192" y="-305.2" font-family="Arial" font-size="14.00" fill="#c6c5fe">js&#45;modules/initWebpage.js</text>
</g>
<!-- index.js&#45;&gt;js&#45;modules/initWebpage.js -->
<g id="edge2" class="edge">
<title>index.js&#45;&gt;js&#45;modules/initWebpage.js</title>
<path fill="none" stroke="#757575" d="M64.22,-327.1C71.47,-326.14 79.58,-325.06 88.11,-323.93"/>
<polygon fill="#757575" stroke="#757575" points="88.56,-327.4 98.01,-322.61 87.64,-320.46 88.56,-327.4"/>
</g>
<!-- js&#45;modules/domStructure.js -->
<g id="node13" class="node">
<title>js&#45;modules/domStructure.js</title>
<path fill="none" stroke="#c6c5fe" d="M501.08,-417.5C501.08,-417.5 328.17,-417.5 328.17,-417.5 324.08,-417.5 320,-413.42 320,-409.33 320,-409.33 320,-401.17 320,-401.17 320,-397.08 324.08,-393 328.17,-393 328.17,-393 501.08,-393 501.08,-393 505.17,-393 509.25,-397.08 509.25,-401.17 509.25,-401.17 509.25,-409.33 509.25,-409.33 509.25,-413.42 505.17,-417.5 501.08,-417.5"/>
<text text-anchor="middle" x="414.62" y="-400.2" font-family="Arial" font-size="14.00" fill="#c6c5fe">js&#45;modules/domStructure.js</text>
</g>
<!-- js&#45;modules/initWebpage.js&#45;&gt;js&#45;modules/domStructure.js -->
<g id="edge33" class="edge">
<title>js&#45;modules/initWebpage.js&#45;&gt;js&#45;modules/domStructure.js</title>
<path fill="none" stroke="#757575" d="M255.39,-322.91C265.11,-325.57 274.93,-328.68 284,-332.25 320.92,-346.78 360.2,-370.16 385.72,-386.53"/>
<polygon fill="#757575" stroke="#757575" points="383.56,-389.3 393.85,-391.82 387.38,-383.43 383.56,-389.3"/>
</g>
<!-- js&#45;modules/rootComponent.js -->
<g id="node32" class="node">
<title>js&#45;modules/rootComponent.js</title>
<path fill="none" stroke="#c6c5fe" d="M1404.08,-239.5C1404.08,-239.5 1217.67,-239.5 1217.67,-239.5 1213.58,-239.5 1209.5,-235.42 1209.5,-231.33 1209.5,-231.33 1209.5,-223.17 1209.5,-223.17 1209.5,-219.08 1213.58,-215 1217.67,-215 1217.67,-215 1404.08,-215 1404.08,-215 1408.17,-215 1412.25,-219.08 1412.25,-223.17 1412.25,-223.17 1412.25,-231.33 1412.25,-231.33 1412.25,-235.42 1408.17,-239.5 1404.08,-239.5"/>
<text text-anchor="middle" x="1310.88" y="-222.2" font-family="Arial" font-size="14.00" fill="#c6c5fe">js&#45;modules/rootComponent.js</text>
</g>
<!-- js&#45;modules/initWebpage.js&#45;&gt;js&#45;modules/rootComponent.js -->
<g id="edge34" class="edge">
<title>js&#45;modules/initWebpage.js&#45;&gt;js&#45;modules/rootComponent.js</title>
<path fill="none" stroke="#757575" d="M284.4,-303.46C487.69,-288.35 976.76,-252 1197.92,-235.57"/>
<polygon fill="#757575" stroke="#757575" points="1197.99,-239.07 1207.71,-234.84 1197.47,-232.09 1197.99,-239.07"/>
</g>
<!-- js&#45;modules/baseComponent.js -->
<g id="node4" class="node">
<title>js&#45;modules/baseComponent.js</title>
<path fill="none" stroke="#cfffac" d="M3885.58,-199.5C3885.58,-199.5 3692.42,-199.5 3692.42,-199.5 3688.33,-199.5 3684.25,-195.42 3684.25,-191.33 3684.25,-191.33 3684.25,-183.17 3684.25,-183.17 3684.25,-179.08 3688.33,-175 3692.42,-175 3692.42,-175 3885.58,-175 3885.58,-175 3889.67,-175 3893.75,-179.08 3893.75,-183.17 3893.75,-183.17 3893.75,-191.33 3893.75,-191.33 3893.75,-195.42 3889.67,-199.5 3885.58,-199.5"/>
<text text-anchor="middle" x="3789" y="-182.2" font-family="Arial" font-size="14.00" fill="#cfffac">js&#45;modules/baseComponent.js</text>
</g>
<!-- js&#45;modules/baseDomComponent.js -->
<g id="node5" class="node">
<title>js&#45;modules/baseDomComponent.js</title>
<path fill="none" stroke="#c6c5fe" d="M3334.96,-628.5C3334.96,-628.5 3111.04,-628.5 3111.04,-628.5 3106.96,-628.5 3102.88,-624.42 3102.88,-620.33 3102.88,-620.33 3102.88,-612.17 3102.88,-612.17 3102.88,-608.08 3106.96,-604 3111.04,-604 3111.04,-604 3334.96,-604 3334.96,-604 3339.04,-604 3343.12,-608.08 3343.12,-612.17 3343.12,-612.17 3343.12,-620.33 3343.12,-620.33 3343.12,-624.42 3339.04,-628.5 3334.96,-628.5"/>
<text text-anchor="middle" x="3223" y="-611.2" font-family="Arial" font-size="14.00" fill="#c6c5fe">js&#45;modules/baseDomComponent.js</text>
</g>
<!-- js&#45;modules/uiIcons.js -->
<g id="node6" class="node">
<title>js&#45;modules/uiIcons.js</title>
<path fill="none" stroke="#cfffac" d="M3577.46,-876.5C3577.46,-876.5 3444.29,-876.5 3444.29,-876.5 3440.21,-876.5 3436.12,-872.42 3436.12,-868.33 3436.12,-868.33 3436.12,-860.17 3436.12,-860.17 3436.12,-856.08 3440.21,-852 3444.29,-852 3444.29,-852 3577.46,-852 3577.46,-852 3581.54,-852 3585.62,-856.08 3585.62,-860.17 3585.62,-860.17 3585.62,-868.33 3585.62,-868.33 3585.62,-872.42 3581.54,-876.5 3577.46,-876.5"/>
<text text-anchor="middle" x="3510.88" y="-859.2" font-family="Arial" font-size="14.00" fill="#cfffac">js&#45;modules/uiIcons.js</text>
</g>
<!-- js&#45;modules/baseDomComponent.js&#45;&gt;js&#45;modules/uiIcons.js -->
<g id="edge3" class="edge">
<title>js&#45;modules/baseDomComponent.js&#45;&gt;js&#45;modules/uiIcons.js</title>
<path fill="none" stroke="#757575" d="M3238.57,-628.89C3285.02,-669.19 3429.9,-794.87 3486.7,-844.15"/>
<polygon fill="#757575" stroke="#757575" points="3484.34,-846.74 3494.19,-850.64 3488.93,-841.45 3484.34,-846.74"/>
</g>
<!-- js&#45;utilities/commonDomComponents.js -->
<g id="node7" class="node">
<title>js&#45;utilities/commonDomComponents.js</title>
<path fill="none" stroke="#c6c5fe" d="M3632.58,-628.5C3632.58,-628.5 3389.17,-628.5 3389.17,-628.5 3385.08,-628.5 3381,-624.42 3381,-620.33 3381,-620.33 3381,-612.17 3381,-612.17 3381,-608.08 3385.08,-604 3389.17,-604 3389.17,-604 3632.58,-604 3632.58,-604 3636.67,-604 3640.75,-608.08 3640.75,-612.17 3640.75,-612.17 3640.75,-620.33 3640.75,-620.33 3640.75,-624.42 3636.67,-628.5 3632.58,-628.5"/>
<text text-anchor="middle" x="3510.88" y="-611.2" font-family="Arial" font-size="14.00" fill="#c6c5fe">js&#45;utilities/commonDomComponents.js</text>
</g>
<!-- js&#45;modules/baseDomComponent.js&#45;&gt;js&#45;utilities/commonDomComponents.js -->
<g id="edge4" class="edge">
<title>js&#45;modules/baseDomComponent.js&#45;&gt;js&#45;utilities/commonDomComponents.js</title>
<path fill="none" stroke="#757575" d="M3343.58,-616.25C3352.09,-616.25 3360.72,-616.25 3369.33,-616.25"/>
<polygon fill="#757575" stroke="#757575" points="3369.12,-619.75 3379.12,-616.25 3369.12,-612.75 3369.12,-619.75"/>
</g>
<!-- js&#45;utilities/commonDomUtilities.js -->
<g id="node8" class="node">
<title>js&#45;utilities/commonDomUtilities.js</title>
<path fill="none" stroke="#cfffac" d="M3614.21,-511.5C3614.21,-511.5 3407.54,-511.5 3407.54,-511.5 3403.46,-511.5 3399.38,-507.42 3399.38,-503.33 3399.38,-503.33 3399.38,-495.17 3399.38,-495.17 3399.38,-491.08 3403.46,-487 3407.54,-487 3407.54,-487 3614.21,-487 3614.21,-487 3618.29,-487 3622.38,-491.08 3622.38,-495.17 3622.38,-495.17 3622.38,-503.33 3622.38,-503.33 3622.38,-507.42 3618.29,-511.5 3614.21,-511.5"/>
<text text-anchor="middle" x="3510.88" y="-494.2" font-family="Arial" font-size="14.00" fill="#cfffac">js&#45;utilities/commonDomUtilities.js</text>
</g>
<!-- js&#45;modules/baseDomComponent.js&#45;&gt;js&#45;utilities/commonDomUtilities.js -->
<g id="edge5" class="edge">
<title>js&#45;modules/baseDomComponent.js&#45;&gt;js&#45;utilities/commonDomUtilities.js</title>
<path fill="none" stroke="#757575" d="M3255.14,-603.51C3306.8,-582.36 3410.26,-540.02 3468.17,-516.32"/>
<polygon fill="#757575" stroke="#757575" points="3469.45,-519.58 3477.37,-512.55 3466.79,-513.1 3469.45,-519.58"/>
</g>
<!-- js&#45;utilities/fontAwesomeUtilities.js -->
<g id="node12" class="node">
<title>js&#45;utilities/fontAwesomeUtilities.js</title>
<path fill="none" stroke="#cfffac" d="M3893.08,-494.5C3893.08,-494.5 3684.92,-494.5 3684.92,-494.5 3680.83,-494.5 3676.75,-490.42 3676.75,-486.33 3676.75,-486.33 3676.75,-478.17 3676.75,-478.17 3676.75,-474.08 3680.83,-470 3684.92,-470 3684.92,-470 3893.08,-470 3893.08,-470 3897.17,-470 3901.25,-474.08 3901.25,-478.17 3901.25,-478.17 3901.25,-486.33 3901.25,-486.33 3901.25,-490.42 3897.17,-494.5 3893.08,-494.5"/>
<text text-anchor="middle" x="3789" y="-477.2" font-family="Arial" font-size="14.00" fill="#cfffac">js&#45;utilities/fontAwesomeUtilities.js</text>
</g>
<!-- js&#45;utilities/commonDomComponents.js&#45;&gt;js&#45;utilities/fontAwesomeUtilities.js -->
<g id="edge80" class="edge">
<title>js&#45;utilities/commonDomComponents.js&#45;&gt;js&#45;utilities/fontAwesomeUtilities.js</title>
<path fill="none" stroke="#757575" d="M3537.85,-603.64C3587.29,-579.65 3695.02,-527.37 3751.62,-499.91"/>
<polygon fill="#757575" stroke="#757575" points="3753.06,-503.1 3760.53,-495.58 3750,-496.8 3753.06,-503.1"/>
</g>
<!-- js&#45;modules/baseFormDomComponent.js -->
<g id="node9" class="node">
<title>js&#45;modules/baseFormDomComponent.js</title>
<path fill="none" stroke="#c6c5fe" d="M3017.46,-439.5C3017.46,-439.5 2759.79,-439.5 2759.79,-439.5 2755.71,-439.5 2751.62,-435.42 2751.62,-431.33 2751.62,-431.33 2751.62,-423.17 2751.62,-423.17 2751.62,-419.08 2755.71,-415 2759.79,-415 2759.79,-415 3017.46,-415 3017.46,-415 3021.54,-415 3025.62,-419.08 3025.62,-423.17 3025.62,-423.17 3025.62,-431.33 3025.62,-431.33 3025.62,-435.42 3021.54,-439.5 3017.46,-439.5"/>
<text text-anchor="middle" x="2888.62" y="-422.2" font-family="Arial" font-size="14.00" fill="#c6c5fe">js&#45;modules/baseFormDomComponent.js</text>
</g>
<!-- js&#45;modules/baseFormDomComponent.js&#45;&gt;js&#45;modules/uiIcons.js -->
<g id="edge6" class="edge">
<title>js&#45;modules/baseFormDomComponent.js&#45;&gt;js&#45;modules/uiIcons.js</title>
<path fill="none" stroke="#757575" d="M2938.47,-439.98C2978.01,-452.73 3032.33,-476.18 3065,-515.25 3101.26,-558.62 3065.65,-593.13 3101,-637.25 3152.4,-701.4 3378.28,-806.08 3470.48,-847.05"/>
<polygon fill="#757575" stroke="#757575" points="3468.84,-850.15 3479.4,-850.99 3471.67,-843.75 3468.84,-850.15"/>
</g>
<!-- js&#45;modules/baseFormDomComponent.js&#45;&gt;js&#45;utilities/commonDomComponents.js -->
<g id="edge7" class="edge">
<title>js&#45;modules/baseFormDomComponent.js&#45;&gt;js&#45;utilities/commonDomComponents.js</title>
<path fill="none" stroke="#757575" d="M3019.81,-439.97C3143.91,-452.77 3316.05,-472.52 3345,-486.25 3364.88,-495.68 3364.15,-506.1 3381,-520.25 3414.68,-548.53 3455.75,-578.39 3482.34,-597.15"/>
<polygon fill="#757575" stroke="#757575" points="3480,-599.79 3490.2,-602.67 3484.02,-594.06 3480,-599.79"/>
</g>
<!-- js&#45;modules/baseFormDomComponent.js&#45;&gt;js&#45;utilities/commonDomUtilities.js -->
<g id="edge8" class="edge">
<title>js&#45;modules/baseFormDomComponent.js&#45;&gt;js&#45;utilities/commonDomUtilities.js</title>
<path fill="none" stroke="#757575" d="M3026.1,-424.55C3117.08,-424.95 3238.97,-429.72 3345,-448.25 3387.43,-455.67 3434.19,-470.83 3467.05,-482.71"/>
<polygon fill="#757575" stroke="#757575" points="3465.62,-485.91 3476.21,-486.07 3468.03,-479.34 3465.62,-485.91"/>
</g>
<!-- js&#45;modules/baseListComponent.js -->
<g id="node10" class="node">
<title>js&#45;modules/baseListComponent.js</title>
<path fill="none" stroke="#c6c5fe" d="M3618.71,-115.5C3618.71,-115.5 3403.04,-115.5 3403.04,-115.5 3398.96,-115.5 3394.88,-111.42 3394.88,-107.33 3394.88,-107.33 3394.88,-99.17 3394.88,-99.17 3394.88,-95.08 3398.96,-91 3403.04,-91 3403.04,-91 3618.71,-91 3618.71,-91 3622.79,-91 3626.88,-95.08 3626.88,-99.17 3626.88,-99.17 3626.88,-107.33 3626.88,-107.33 3626.88,-111.42 3622.79,-115.5 3618.71,-115.5"/>
<text text-anchor="middle" x="3510.88" y="-98.2" font-family="Arial" font-size="14.00" fill="#c6c5fe">js&#45;modules/baseListComponent.js</text>
</g>
<!-- js&#45;modules/baseListComponent.js&#45;&gt;js&#45;modules/baseComponent.js -->
<g id="edge9" class="edge">
<title>js&#45;modules/baseListComponent.js&#45;&gt;js&#45;modules/baseComponent.js</title>
<path fill="none" stroke="#757575" d="M3573.57,-115.99C3594.99,-120.84 3619.07,-126.78 3640.75,-133.25 3676.84,-144.02 3716.92,-158.92 3746.14,-170.34"/>
<polygon fill="#757575" stroke="#757575" points="3744.78,-173.57 3755.37,-173.98 3747.35,-167.05 3744.78,-173.57"/>
</g>
<!-- js&#45;modules/baseListDomComponent.js -->
<g id="node11" class="node">
<title>js&#45;modules/baseListDomComponent.js</title>
<path fill="none" stroke="#c6c5fe" d="M3011.83,-898.5C3011.83,-898.5 2765.42,-898.5 2765.42,-898.5 2761.33,-898.5 2757.25,-894.42 2757.25,-890.33 2757.25,-890.33 2757.25,-882.17 2757.25,-882.17 2757.25,-878.08 2761.33,-874 2765.42,-874 2765.42,-874 3011.83,-874 3011.83,-874 3015.92,-874 3020,-878.08 3020,-882.17 3020,-882.17 3020,-890.33 3020,-890.33 3020,-894.42 3015.92,-898.5 3011.83,-898.5"/>
<text text-anchor="middle" x="2888.62" y="-881.2" font-family="Arial" font-size="14.00" fill="#c6c5fe">js&#45;modules/baseListDomComponent.js</text>
</g>
<!-- js&#45;modules/baseListDomComponent.js&#45;&gt;js&#45;modules/baseDomComponent.js -->
<g id="edge10" class="edge">
<title>js&#45;modules/baseListDomComponent.js&#45;&gt;js&#45;modules/baseDomComponent.js</title>
<path fill="none" stroke="#757575" d="M2900.26,-873.61C2929.56,-839.31 3015.05,-742.85 3101,-680.25 3126.35,-661.79 3157.72,-645.35 3182.17,-633.76"/>
<polygon fill="#757575" stroke="#757575" points="3183.56,-636.97 3191.15,-629.58 3180.61,-630.62 3183.56,-636.97"/>
</g>
<!-- js&#45;modules/baseListDomComponent.js&#45;&gt;js&#45;modules/uiIcons.js -->
<g id="edge11" class="edge">
<title>js&#45;modules/baseListDomComponent.js&#45;&gt;js&#45;modules/uiIcons.js</title>
<path fill="none" stroke="#757575" d="M3020.49,-898.54C3111.68,-904.94 3236.03,-909.37 3345,-898.25 3380.22,-894.66 3419.02,-886.85 3450.13,-879.63"/>
<polygon fill="#757575" stroke="#757575" points="3450.82,-883.06 3459.75,-877.35 3449.21,-876.25 3450.82,-883.06"/>
</g>
<!-- js&#45;modules/baseListDomComponent.js&#45;&gt;js&#45;utilities/commonDomComponents.js -->
<g id="edge12" class="edge">
<title>js&#45;modules/baseListDomComponent.js&#45;&gt;js&#45;utilities/commonDomComponents.js</title>
<path fill="none" stroke="#757575" d="M3020.32,-891.44C3134.96,-893.73 3291.47,-890.67 3345,-860.25 3433.47,-809.97 3484.04,-690.37 3502.16,-639.64"/>
<polygon fill="#757575" stroke="#757575" points="3505.44,-640.87 3505.4,-630.27 3498.83,-638.58 3505.44,-640.87"/>
</g>
<!-- js&#45;modules/baseListDomComponent.js&#45;&gt;js&#45;utilities/commonDomUtilities.js -->
<g id="edge13" class="edge">
<title>js&#45;modules/baseListDomComponent.js&#45;&gt;js&#45;utilities/commonDomUtilities.js</title>
<path fill="none" stroke="#757575" d="M2921.54,-873.58C2999.33,-841.74 3202.74,-752.59 3345,-637.25 3364.1,-621.77 3363.03,-612.03 3381,-595.25 3412.78,-565.57 3453.63,-536.45 3480.73,-518.2"/>
<polygon fill="#757575" stroke="#757575" points="3482.41,-521.29 3488.79,-512.83 3478.53,-515.46 3482.41,-521.29"/>
</g>
<!-- js&#45;modules/baseListDomComponent.js&#45;&gt;js&#45;utilities/fontAwesomeUtilities.js -->
<g id="edge14" class="edge">
<title>js&#45;modules/baseListDomComponent.js&#45;&gt;js&#45;utilities/fontAwesomeUtilities.js</title>
<path fill="none" stroke="#757575" d="M2923.02,-898.99C3037.4,-940.26 3418.62,-1057.92 3640.75,-885.25 3765.02,-788.64 3784.47,-576.94 3787.47,-505.97"/>
<polygon fill="#757575" stroke="#757575" points="3790.95,-506.39 3787.8,-496.28 3783.96,-506.15 3790.95,-506.39"/>
</g>
<!-- js&#45;modules/headerDomComponent.js -->
<g id="node14" class="node">
<title>js&#45;modules/headerDomComponent.js</title>
<path fill="none" stroke="#c6c5fe" d="M798.71,-773.5C798.71,-773.5 562.04,-773.5 562.04,-773.5 557.96,-773.5 553.88,-769.42 553.88,-765.33 553.88,-765.33 553.88,-757.17 553.88,-757.17 553.88,-753.08 557.96,-749 562.04,-749 562.04,-749 798.71,-749 798.71,-749 802.79,-749 806.88,-753.08 806.88,-757.17 806.88,-757.17 806.88,-765.33 806.88,-765.33 806.88,-769.42 802.79,-773.5 798.71,-773.5"/>
<text text-anchor="middle" x="680.38" y="-756.2" font-family="Arial" font-size="14.00" fill="#c6c5fe">js&#45;modules/headerDomComponent.js</text>
</g>
<!-- js&#45;modules/domStructure.js&#45;&gt;js&#45;modules/headerDomComponent.js -->
<g id="edge15" class="edge">
<title>js&#45;modules/domStructure.js&#45;&gt;js&#45;modules/headerDomComponent.js</title>
<path fill="none" stroke="#757575" d="M425.01,-417.92C464.03,-470.58 613.65,-672.54 663.28,-739.52"/>
<polygon fill="#757575" stroke="#757575" points="660.43,-741.56 669.2,-747.52 666.06,-737.4 660.43,-741.56"/>
</g>
<!-- js&#45;modules/mainDomComponent.js -->
<g id="node15" class="node">
<title>js&#45;modules/mainDomComponent.js</title>
<path fill="none" stroke="#c6c5fe" d="M791.58,-566.5C791.58,-566.5 569.17,-566.5 569.17,-566.5 565.08,-566.5 561,-562.42 561,-558.33 561,-558.33 561,-550.17 561,-550.17 561,-546.08 565.08,-542 569.17,-542 569.17,-542 791.58,-542 791.58,-542 795.67,-542 799.75,-546.08 799.75,-550.17 799.75,-550.17 799.75,-558.33 799.75,-558.33 799.75,-562.42 795.67,-566.5 791.58,-566.5"/>
<text text-anchor="middle" x="680.38" y="-549.2" font-family="Arial" font-size="14.00" fill="#c6c5fe">js&#45;modules/mainDomComponent.js</text>
</g>
<!-- js&#45;modules/domStructure.js&#45;&gt;js&#45;modules/mainDomComponent.js -->
<g id="edge16" class="edge">
<title>js&#45;modules/domStructure.js&#45;&gt;js&#45;modules/mainDomComponent.js</title>
<path fill="none" stroke="#757575" d="M438.11,-417.95C484.92,-444.4 592.98,-505.45 647.17,-536.06"/>
<polygon fill="#757575" stroke="#757575" points="645.2,-538.96 655.63,-540.83 648.64,-532.87 645.2,-538.96"/>
</g>
<!-- js&#45;modules/noteFormDomComponent.js -->
<g id="node16" class="node">
<title>js&#45;modules/noteFormDomComponent.js</title>
<path fill="none" stroke="#c6c5fe" d="M807.33,-417.5C807.33,-417.5 553.42,-417.5 553.42,-417.5 549.33,-417.5 545.25,-413.42 545.25,-409.33 545.25,-409.33 545.25,-401.17 545.25,-401.17 545.25,-397.08 549.33,-393 553.42,-393 553.42,-393 807.33,-393 807.33,-393 811.42,-393 815.5,-397.08 815.5,-401.17 815.5,-401.17 815.5,-409.33 815.5,-409.33 815.5,-413.42 811.42,-417.5 807.33,-417.5"/>
<text text-anchor="middle" x="680.38" y="-400.2" font-family="Arial" font-size="14.00" fill="#c6c5fe">js&#45;modules/noteFormDomComponent.js</text>
</g>
<!-- js&#45;modules/domStructure.js&#45;&gt;js&#45;modules/noteFormDomComponent.js -->
<g id="edge17" class="edge">
<title>js&#45;modules/domStructure.js&#45;&gt;js&#45;modules/noteFormDomComponent.js</title>
<path fill="none" stroke="#757575" d="M509.73,-405.25C517.47,-405.25 525.4,-405.25 533.4,-405.25"/>
<polygon fill="#757575" stroke="#757575" points="533.24,-408.75 543.24,-405.25 533.24,-401.75 533.24,-408.75"/>
</g>
<!-- js&#45;modules/projectFormDomComponent.js -->
<g id="node17" class="node">
<title>js&#45;modules/projectFormDomComponent.js</title>
<path fill="none" stroke="#c6c5fe" d="M1129.33,-363.5C1129.33,-363.5 859.67,-363.5 859.67,-363.5 855.58,-363.5 851.5,-359.42 851.5,-355.33 851.5,-355.33 851.5,-347.17 851.5,-347.17 851.5,-343.08 855.58,-339 859.67,-339 859.67,-339 1129.33,-339 1129.33,-339 1133.42,-339 1137.5,-343.08 1137.5,-347.17 1137.5,-347.17 1137.5,-355.33 1137.5,-355.33 1137.5,-359.42 1133.42,-363.5 1129.33,-363.5"/>
<text text-anchor="middle" x="994.5" y="-346.2" font-family="Arial" font-size="14.00" fill="#c6c5fe">js&#45;modules/projectFormDomComponent.js</text>
</g>
<!-- js&#45;modules/domStructure.js&#45;&gt;js&#45;modules/projectFormDomComponent.js -->
<g id="edge18" class="edge">
<title>js&#45;modules/domStructure.js&#45;&gt;js&#45;modules/projectFormDomComponent.js</title>
<path fill="none" stroke="#757575" d="M487.12,-392.52C505.98,-389.48 526.34,-386.47 545.25,-384.25 642.97,-372.76 753.18,-364.58 839.87,-359.24"/>
<polygon fill="#757575" stroke="#757575" points="839.85,-362.75 849.62,-358.65 839.42,-355.76 839.85,-362.75"/>
</g>
<!-- js&#45;modules/todoFormDomComponent.js -->
<g id="node18" class="node">
<title>js&#45;modules/todoFormDomComponent.js</title>
<path fill="none" stroke="#c6c5fe" d="M2668.08,-493.5C2668.08,-493.5 2413.42,-493.5 2413.42,-493.5 2409.33,-493.5 2405.25,-489.42 2405.25,-485.33 2405.25,-485.33 2405.25,-477.17 2405.25,-477.17 2405.25,-473.08 2409.33,-469 2413.42,-469 2413.42,-469 2668.08,-469 2668.08,-469 2672.17,-469 2676.25,-473.08 2676.25,-477.17 2676.25,-477.17 2676.25,-485.33 2676.25,-485.33 2676.25,-489.42 2672.17,-493.5 2668.08,-493.5"/>
<text text-anchor="middle" x="2540.75" y="-476.2" font-family="Arial" font-size="14.00" fill="#c6c5fe">js&#45;modules/todoFormDomComponent.js</text>
</g>
<!-- js&#45;modules/domStructure.js&#45;&gt;js&#45;modules/todoFormDomComponent.js -->
<g id="edge19" class="edge">
<title>js&#45;modules/domStructure.js&#45;&gt;js&#45;modules/todoFormDomComponent.js</title>
<path fill="none" stroke="#757575" d="M485.75,-417.96C504.98,-421.08 525.87,-424.12 545.25,-426.25 743.62,-448.01 793.94,-452.25 993.5,-452.25 993.5,-452.25 993.5,-452.25 1311.88,-452.25 1702.69,-452.25 2163.28,-467.11 2393.41,-475.56"/>
<polygon fill="#757575" stroke="#757575" points="2393.23,-479.06 2403.36,-475.93 2393.49,-472.06 2393.23,-479.06"/>
</g>
<!-- js&#45;utilities/creditFooter.js -->
<g id="node19" class="node">
<title>js&#45;utilities/creditFooter.js</title>
<path fill="none" stroke="#c6c5fe" d="M2023.71,-322.5C2023.71,-322.5 1871.04,-322.5 1871.04,-322.5 1866.96,-322.5 1862.88,-318.42 1862.88,-314.33 1862.88,-314.33 1862.88,-306.17 1862.88,-306.17 1862.88,-302.08 1866.96,-298 1871.04,-298 1871.04,-298 2023.71,-298 2023.71,-298 2027.79,-298 2031.88,-302.08 2031.88,-306.17 2031.88,-306.17 2031.88,-314.33 2031.88,-314.33 2031.88,-318.42 2027.79,-322.5 2023.71,-322.5"/>
<text text-anchor="middle" x="1947.38" y="-305.2" font-family="Arial" font-size="14.00" fill="#c6c5fe">js&#45;utilities/creditFooter.js</text>
</g>
<!-- js&#45;modules/domStructure.js&#45;&gt;js&#45;utilities/creditFooter.js -->
<g id="edge20" class="edge">
<title>js&#45;modules/domStructure.js&#45;&gt;js&#45;utilities/creditFooter.js</title>
<path fill="none" stroke="#757575" d="M442.78,-392.59C468.57,-381.15 508.71,-364.83 545.25,-356.25 740.17,-310.46 793.28,-311.25 993.5,-311.25 993.5,-311.25 993.5,-311.25 1311.88,-311.25 1503.22,-311.25 1727.02,-310.79 1851.14,-310.49"/>
<polygon fill="#757575" stroke="#757575" points="1850.96,-313.99 1860.96,-310.47 1850.95,-306.99 1850.96,-313.99"/>
</g>
<!-- js&#45;modules/navDomComponent.js -->
<g id="node28" class="node">
<title>js&#45;modules/navDomComponent.js</title>
<path fill="none" stroke="#c6c5fe" d="M1101.58,-917.5C1101.58,-917.5 887.42,-917.5 887.42,-917.5 883.33,-917.5 879.25,-913.42 879.25,-909.33 879.25,-909.33 879.25,-901.17 879.25,-901.17 879.25,-897.08 883.33,-893 887.42,-893 887.42,-893 1101.58,-893 1101.58,-893 1105.67,-893 1109.75,-897.08 1109.75,-901.17 1109.75,-901.17 1109.75,-909.33 1109.75,-909.33 1109.75,-913.42 1105.67,-917.5 1101.58,-917.5"/>
<text text-anchor="middle" x="994.5" y="-900.2" font-family="Arial" font-size="14.00" fill="#c6c5fe">js&#45;modules/navDomComponent.js</text>
</g>
<!-- js&#45;modules/headerDomComponent.js&#45;&gt;js&#45;modules/navDomComponent.js -->
<g id="edge28" class="edge">
<title>js&#45;modules/headerDomComponent.js&#45;&gt;js&#45;modules/navDomComponent.js</title>
<path fill="none" stroke="#757575" d="M708.8,-773.9C764.77,-799.72 892.21,-858.52 955.87,-887.89"/>
<polygon fill="#757575" stroke="#757575" points="954.33,-891.03 964.87,-892.04 957.26,-884.68 954.33,-891.03"/>
</g>
<!-- js&#45;modules/mainDomComponent.js&#45;&gt;js&#45;utilities/commonDomUtilities.js -->
<g id="edge40" class="edge">
<title>js&#45;modules/mainDomComponent.js&#45;&gt;js&#45;utilities/commonDomUtilities.js</title>
<path fill="none" stroke="#757575" d="M771.76,-541.52C797.49,-538.18 825.57,-534.8 851.5,-532.25 1832.13,-435.73 2079.98,-379.88 3065,-406.25 3189.58,-409.58 3224.18,-390.7 3345,-421.25 3395.14,-433.93 3448.41,-462.18 3480.41,-480.97"/>
<polygon fill="#757575" stroke="#757575" points="3478.34,-483.81 3488.72,-485.93 3481.93,-477.8 3478.34,-483.81"/>
</g>
<!-- js&#45;modules/homeDomComponent.js -->
<g id="node29" class="node">
<title>js&#45;modules/homeDomComponent.js</title>
<path fill="none" stroke="#c6c5fe" d="M1108.71,-744.5C1108.71,-744.5 880.29,-744.5 880.29,-744.5 876.21,-744.5 872.12,-740.42 872.12,-736.33 872.12,-736.33 872.12,-728.17 872.12,-728.17 872.12,-724.08 876.21,-720 880.29,-720 880.29,-720 1108.71,-720 1108.71,-720 1112.79,-720 1116.88,-724.08 1116.88,-728.17 1116.88,-728.17 1116.88,-736.33 1116.88,-736.33 1116.88,-740.42 1112.79,-744.5 1108.71,-744.5"/>
<text text-anchor="middle" x="994.5" y="-727.2" font-family="Arial" font-size="14.00" fill="#c6c5fe">js&#45;modules/homeDomComponent.js</text>
</g>
<!-- js&#45;modules/mainDomComponent.js&#45;&gt;js&#45;modules/homeDomComponent.js -->
<g id="edge36" class="edge">
<title>js&#45;modules/mainDomComponent.js&#45;&gt;js&#45;modules/homeDomComponent.js</title>
<path fill="none" stroke="#757575" d="M697.65,-566.69C727.24,-588.98 792.25,-636.42 851.5,-669.25 883.5,-686.98 921.47,-703.62 950.09,-715.33"/>
<polygon fill="#757575" stroke="#757575" points="948.58,-718.5 959.16,-719.01 951.21,-712.01 948.58,-718.5"/>
</g>
<!-- js&#45;modules/noteDomComponent.js -->
<g id="node33" class="node">
<title>js&#45;modules/noteDomComponent.js</title>
<path fill="none" stroke="#c6c5fe" d="M2349.46,-586.5C2349.46,-586.5 2129.29,-586.5 2129.29,-586.5 2125.21,-586.5 2121.12,-582.42 2121.12,-578.33 2121.12,-578.33 2121.12,-570.17 2121.12,-570.17 2121.12,-566.08 2125.21,-562 2129.29,-562 2129.29,-562 2349.46,-562 2349.46,-562 2353.54,-562 2357.62,-566.08 2357.62,-570.17 2357.62,-570.17 2357.62,-578.33 2357.62,-578.33 2357.62,-582.42 2353.54,-586.5 2349.46,-586.5"/>
<text text-anchor="middle" x="2239.38" y="-569.2" font-family="Arial" font-size="14.00" fill="#c6c5fe">js&#45;modules/noteDomComponent.js</text>
</g>
<!-- js&#45;modules/mainDomComponent.js&#45;&gt;js&#45;modules/noteDomComponent.js -->
<g id="edge37" class="edge">
<title>js&#45;modules/mainDomComponent.js&#45;&gt;js&#45;modules/noteDomComponent.js</title>
<path fill="none" stroke="#757575" d="M800.08,-559.98C926.42,-565.57 1132.21,-573.25 1309.88,-573.25 1309.88,-573.25 1309.88,-573.25 1635.75,-573.25 1799.22,-573.25 1987.63,-573.62 2109.65,-573.91"/>
<polygon fill="#757575" stroke="#757575" points="2109.35,-577.41 2119.36,-573.94 2109.37,-570.41 2109.35,-577.41"/>
</g>
<!-- js&#45;modules/projectDomComponent.js -->
<g id="node34" class="node">
<title>js&#45;modules/projectDomComponent.js</title>
<path fill="none" stroke="#c6c5fe" d="M2065.33,-667.5C2065.33,-667.5 1829.42,-667.5 1829.42,-667.5 1825.33,-667.5 1821.25,-663.42 1821.25,-659.33 1821.25,-659.33 1821.25,-651.17 1821.25,-651.17 1821.25,-647.08 1825.33,-643 1829.42,-643 1829.42,-643 2065.33,-643 2065.33,-643 2069.42,-643 2073.5,-647.08 2073.5,-651.17 2073.5,-651.17 2073.5,-659.33 2073.5,-659.33 2073.5,-663.42 2069.42,-667.5 2065.33,-667.5"/>
<text text-anchor="middle" x="1947.38" y="-650.2" font-family="Arial" font-size="14.00" fill="#c6c5fe">js&#45;modules/projectDomComponent.js</text>
</g>
<!-- js&#45;modules/mainDomComponent.js&#45;&gt;js&#45;modules/projectDomComponent.js -->
<g id="edge38" class="edge">
<title>js&#45;modules/mainDomComponent.js&#45;&gt;js&#45;modules/projectDomComponent.js</title>
<path fill="none" stroke="#757575" d="M738.2,-566.96C771.14,-573.9 813.49,-582.11 851.5,-587.25 1194.34,-633.62 1601.93,-648.42 1809.74,-653.11"/>
<polygon fill="#757575" stroke="#757575" points="1809.42,-656.6 1819.49,-653.32 1809.57,-649.6 1809.42,-656.6"/>
</g>
<!-- js&#45;modules/todoDomComponent.js -->
<g id="node35" class="node">
<title>js&#45;modules/todoDomComponent.js</title>
<path fill="none" stroke="#c6c5fe" d="M2999.08,-548.5C2999.08,-548.5 2778.17,-548.5 2778.17,-548.5 2774.08,-548.5 2770,-544.42 2770,-540.33 2770,-540.33 2770,-532.17 2770,-532.17 2770,-528.08 2774.08,-524 2778.17,-524 2778.17,-524 2999.08,-524 2999.08,-524 3003.17,-524 3007.25,-528.08 3007.25,-532.17 3007.25,-532.17 3007.25,-540.33 3007.25,-540.33 3007.25,-544.42 3003.17,-548.5 2999.08,-548.5"/>
<text text-anchor="middle" x="2888.62" y="-531.2" font-family="Arial" font-size="14.00" fill="#c6c5fe">js&#45;modules/todoDomComponent.js</text>
</g>
<!-- js&#45;modules/mainDomComponent.js&#45;&gt;js&#45;modules/todoDomComponent.js -->
<g id="edge39" class="edge">
<title>js&#45;modules/mainDomComponent.js&#45;&gt;js&#45;modules/todoDomComponent.js</title>
<path fill="none" stroke="#757575" d="M800.07,-548.22C926.42,-542.33 1132.2,-534.25 1309.88,-534.25 1309.88,-534.25 1309.88,-534.25 2240.38,-534.25 2419.99,-534.25 2627.64,-535.03 2758.29,-535.62"/>
<polygon fill="#757575" stroke="#757575" points="2757.99,-539.11 2768,-535.66 2758.02,-532.11 2757.99,-539.11"/>
</g>
<!-- js&#45;modules/noteFormDomComponent.js&#45;&gt;js&#45;modules/baseFormDomComponent.js -->
<g id="edge45" class="edge">
<title>js&#45;modules/noteFormDomComponent.js&#45;&gt;js&#45;modules/baseFormDomComponent.js</title>
<path fill="none" stroke="#757575" d="M815.93,-405.25C943.19,-405.25 1139.52,-405.25 1309.88,-405.25 1309.88,-405.25 1309.88,-405.25 1948.38,-405.25 2228.16,-405.25 2554.7,-415.13 2739.72,-421.65"/>
<polygon fill="#757575" stroke="#757575" points="2739.53,-425.14 2749.64,-422 2739.77,-418.14 2739.53,-425.14"/>
</g>
<!-- js&#45;modules/projectFormDomComponent.js&#45;&gt;js&#45;modules/baseFormDomComponent.js -->
<g id="edge57" class="edge">
<title>js&#45;modules/projectFormDomComponent.js&#45;&gt;js&#45;modules/baseFormDomComponent.js</title>
<path fill="none" stroke="#757575" d="M1137.77,-350.9C1267.12,-350.61 1463.25,-350.25 1633.75,-350.25 1633.75,-350.25 1633.75,-350.25 2240.38,-350.25 2448.66,-350.25 2692.03,-390.06 2812.36,-412.43"/>
<polygon fill="#757575" stroke="#757575" points="2811.66,-415.86 2822.13,-414.26 2812.95,-408.97 2811.66,-415.86"/>
</g>
<!-- js&#45;modules/todoFormDomComponent.js&#45;&gt;js&#45;utilities/commonDomComponents.js -->
<g id="edge75" class="edge">
<title>js&#45;modules/todoFormDomComponent.js&#45;&gt;js&#45;utilities/commonDomComponents.js</title>
<path fill="none" stroke="#757575" d="M2676.61,-473.76C2838.4,-468.45 3116.43,-471.1 3345,-533.25 3396.06,-547.14 3449.85,-577.64 3481.6,-597.55"/>
<polygon fill="#757575" stroke="#757575" points="3479.52,-600.37 3489.83,-602.79 3483.28,-594.47 3479.52,-600.37"/>
</g>
<!-- js&#45;modules/todoFormDomComponent.js&#45;&gt;js&#45;modules/baseFormDomComponent.js -->
<g id="edge72" class="edge">
<title>js&#45;modules/todoFormDomComponent.js&#45;&gt;js&#45;modules/baseFormDomComponent.js</title>
<path fill="none" stroke="#757575" d="M2623.28,-468.52C2674.74,-460.49 2741.36,-450.09 2794.84,-441.74"/>
<polygon fill="#757575" stroke="#757575" points="2795.21,-445.22 2804.55,-440.22 2794.13,-438.3 2795.21,-445.22"/>
</g>
<!-- js&#45;modules/fixCircularDependenciesInComponents.js -->
<g id="node20" class="node">
<title>js&#45;modules/fixCircularDependenciesInComponents.js</title>
<path fill="none" stroke="#ff6c60" d="M3056.83,-175.5C3056.83,-175.5 2720.42,-175.5 2720.42,-175.5 2716.33,-175.5 2712.25,-171.42 2712.25,-167.33 2712.25,-167.33 2712.25,-159.17 2712.25,-159.17 2712.25,-155.08 2716.33,-151 2720.42,-151 2720.42,-151 3056.83,-151 3056.83,-151 3060.92,-151 3065,-155.08 3065,-159.17 3065,-159.17 3065,-167.33 3065,-167.33 3065,-171.42 3060.92,-175.5 3056.83,-175.5"/>
<text text-anchor="middle" x="2888.62" y="-158.2" font-family="Arial" font-size="14.00" fill="#ff6c60">js&#45;modules/fixCircularDependenciesInComponents.js</text>
</g>
<!-- js&#45;modules/todoFormDomComponent.js&#45;&gt;js&#45;modules/fixCircularDependenciesInComponents.js -->
<g id="edge73" class="edge">
<title>js&#45;modules/todoFormDomComponent.js&#45;&gt;js&#45;modules/fixCircularDependenciesInComponents.js</title>
<path fill="none" stroke="#757575" d="M2555.31,-468.78C2608.03,-420.31 2799.72,-244.07 2865.38,-183.7"/>
<polygon fill="#757575" stroke="#757575" points="2867.68,-186.34 2872.67,-177 2862.94,-181.19 2867.68,-186.34"/>
</g>
<!-- js&#45;modules/todoFormDomComponent.js&#45;&gt;js&#45;modules/todoDomComponent.js -->
<g id="edge74" class="edge">
<title>js&#45;modules/todoFormDomComponent.js&#45;&gt;js&#45;modules/todoDomComponent.js</title>
<path fill="none" stroke="#757575" d="M2614.29,-493.94C2644.55,-499.14 2680.08,-505.13 2712.25,-510.25 2736.76,-514.15 2763.24,-518.18 2788,-521.86"/>
<polygon fill="#757575" stroke="#757575" points="2787.35,-525.3 2797.75,-523.3 2788.37,-518.37 2787.35,-525.3"/>
</g>
<!-- js&#45;utilities/creditFooter.js&#45;&gt;js&#45;utilities/fontAwesomeUtilities.js -->
<g id="edge81" class="edge">
<title>js&#45;utilities/creditFooter.js&#45;&gt;js&#45;utilities/fontAwesomeUtilities.js</title>
<path fill="none" stroke="#757575" d="M2032.11,-310.25C2146.7,-310.25 2358.8,-310.25 2539.75,-310.25 2539.75,-310.25 2539.75,-310.25 3224,-310.25 3433.59,-310.25 3668.69,-420.27 3754.43,-464.33"/>
<polygon fill="#757575" stroke="#757575" points="3752.77,-467.41 3763.26,-468.91 3755.99,-461.19 3752.77,-467.41"/>
</g>
<!-- js&#45;modules/listInComponentMixin.js -->
<g id="node21" class="node">
<title>js&#45;modules/listInComponentMixin.js</title>
<path fill="none" stroke="#ff6c60" d="M3334.21,-67.5C3334.21,-67.5 3111.79,-67.5 3111.79,-67.5 3107.71,-67.5 3103.62,-63.42 3103.62,-59.33 3103.62,-59.33 3103.62,-51.17 3103.62,-51.17 3103.62,-47.08 3107.71,-43 3111.79,-43 3111.79,-43 3334.21,-43 3334.21,-43 3338.29,-43 3342.38,-47.08 3342.38,-51.17 3342.38,-51.17 3342.38,-59.33 3342.38,-59.33 3342.38,-63.42 3338.29,-67.5 3334.21,-67.5"/>
<text text-anchor="middle" x="3223" y="-50.2" font-family="Arial" font-size="14.00" fill="#ff6c60">js&#45;modules/listInComponentMixin.js</text>
</g>
<!-- js&#45;modules/fixCircularDependenciesInComponents.js&#45;&gt;js&#45;modules/listInComponentMixin.js -->
<g id="edge21" class="edge">
<title>js&#45;modules/fixCircularDependenciesInComponents.js&#45;&gt;js&#45;modules/listInComponentMixin.js</title>
<path fill="none" stroke="#757575" d="M2905.66,-150.55C2938.8,-130.61 3017.8,-93.82 3092.22,-70.91"/>
<polygon fill="#757575" stroke="#757575" points="3093.14,-74.28 3101.71,-68.06 3091.13,-67.58 3093.14,-74.28"/>
</g>
<!-- js&#45;modules/noteComponent.js -->
<g id="node22" class="node">
<title>js&#45;modules/noteComponent.js</title>
<path fill="none" stroke="#ff6c60" d="M3317.71,-282.5C3317.71,-282.5 3128.29,-282.5 3128.29,-282.5 3124.21,-282.5 3120.12,-278.42 3120.12,-274.33 3120.12,-274.33 3120.12,-266.17 3120.12,-266.17 3120.12,-262.08 3124.21,-258 3128.29,-258 3128.29,-258 3317.71,-258 3317.71,-258 3321.79,-258 3325.88,-262.08 3325.88,-266.17 3325.88,-266.17 3325.88,-274.33 3325.88,-274.33 3325.88,-278.42 3321.79,-282.5 3317.71,-282.5"/>
<text text-anchor="middle" x="3223" y="-265.2" font-family="Arial" font-size="14.00" fill="#ff6c60">js&#45;modules/noteComponent.js</text>
</g>
<!-- js&#45;modules/fixCircularDependenciesInComponents.js&#45;&gt;js&#45;modules/noteComponent.js -->
<g id="edge22" class="edge">
<title>js&#45;modules/fixCircularDependenciesInComponents.js&#45;&gt;js&#45;modules/noteComponent.js</title>
<path fill="none" stroke="#757575" d="M2930.85,-175.94C2972.83,-192.88 3040.2,-221.69 3101,-239.25 3124.06,-245.91 3150.2,-250.96 3172.26,-255.3"/>
<polygon fill="#757575" stroke="#757575" points="3171.42,-258.7 3181.91,-257.21 3172.78,-251.83 3171.42,-258.7"/>
</g>
<!-- js&#45;modules/noteListComponent.js -->
<g id="node23" class="node">
<title>js&#45;modules/noteListComponent.js</title>
<path fill="none" stroke="#ff6c60" d="M3328.96,-110.5C3328.96,-110.5 3117.04,-110.5 3117.04,-110.5 3112.96,-110.5 3108.88,-106.42 3108.88,-102.33 3108.88,-102.33 3108.88,-94.17 3108.88,-94.17 3108.88,-90.08 3112.96,-86 3117.04,-86 3117.04,-86 3328.96,-86 3328.96,-86 3333.04,-86 3337.12,-90.08 3337.12,-94.17 3337.12,-94.17 3337.12,-102.33 3337.12,-102.33 3337.12,-106.42 3333.04,-110.5 3328.96,-110.5"/>
<text text-anchor="middle" x="3223" y="-93.2" font-family="Arial" font-size="14.00" fill="#ff6c60">js&#45;modules/noteListComponent.js</text>
</g>
<!-- js&#45;modules/fixCircularDependenciesInComponents.js&#45;&gt;js&#45;modules/noteListComponent.js -->
<g id="edge23" class="edge">
<title>js&#45;modules/fixCircularDependenciesInComponents.js&#45;&gt;js&#45;modules/noteListComponent.js</title>
<path fill="none" stroke="#757575" d="M2920.74,-150.56C2959.84,-139.68 3029.31,-125.17 3097.67,-111.91"/>
<polygon fill="#757575" stroke="#757575" points="3097.99,-115.41 3107.14,-110.08 3096.66,-108.54 3097.99,-115.41"/>
</g>
<!-- js&#45;modules/projectComponent.js -->
<g id="node24" class="node">
<title>js&#45;modules/projectComponent.js</title>
<path fill="none" stroke="#ff6c60" d="M3325.58,-239.5C3325.58,-239.5 3120.42,-239.5 3120.42,-239.5 3116.33,-239.5 3112.25,-235.42 3112.25,-231.33 3112.25,-231.33 3112.25,-223.17 3112.25,-223.17 3112.25,-219.08 3116.33,-215 3120.42,-215 3120.42,-215 3325.58,-215 3325.58,-215 3329.67,-215 3333.75,-219.08 3333.75,-223.17 3333.75,-223.17 3333.75,-231.33 3333.75,-231.33 3333.75,-235.42 3329.67,-239.5 3325.58,-239.5"/>
<text text-anchor="middle" x="3223" y="-222.2" font-family="Arial" font-size="14.00" fill="#ff6c60">js&#45;modules/projectComponent.js</text>
</g>
<!-- js&#45;modules/fixCircularDependenciesInComponents.js&#45;&gt;js&#45;modules/projectComponent.js -->
<g id="edge24" class="edge">
<title>js&#45;modules/fixCircularDependenciesInComponents.js&#45;&gt;js&#45;modules/projectComponent.js</title>
<path fill="none" stroke="#757575" d="M2994.93,-175.97C3028.77,-182.27 3066.45,-189.68 3101,-196.25 3127.41,-201.27 3157.11,-206.68 3180.47,-211.94"/>
<polygon fill="#757575" stroke="#757575" points="3179.38,-215.28 3189.92,-214.17 3180.99,-208.47 3179.38,-215.28"/>
</g>
<!-- js&#45;modules/projectListComponent.js -->
<g id="node25" class="node">
<title>js&#45;modules/projectListComponent.js</title>
<path fill="none" stroke="#ff6c60" d="M3336.83,-24.5C3336.83,-24.5 3109.17,-24.5 3109.17,-24.5 3105.08,-24.5 3101,-20.42 3101,-16.33 3101,-16.33 3101,-8.17 3101,-8.17 3101,-4.08 3105.08,0 3109.17,0 3109.17,0 3336.83,0 3336.83,0 3340.92,0 3345,-4.08 3345,-8.17 3345,-8.17 3345,-16.33 3345,-16.33 3345,-20.42 3340.92,-24.5 3336.83,-24.5"/>
<text text-anchor="middle" x="3223" y="-7.2" font-family="Arial" font-size="14.00" fill="#ff6c60">js&#45;modules/projectListComponent.js</text>
</g>
<!-- js&#45;modules/fixCircularDependenciesInComponents.js&#45;&gt;js&#45;modules/projectListComponent.js -->
<g id="edge25" class="edge">
<title>js&#45;modules/fixCircularDependenciesInComponents.js&#45;&gt;js&#45;modules/projectListComponent.js</title>
<path fill="none" stroke="#757575" d="M2900.32,-150.53C2928.9,-123.5 3010.37,-62.37 3091.5,-29.03"/>
<polygon fill="#757575" stroke="#757575" points="3092.48,-32.4 3100.49,-25.47 3089.91,-25.9 3092.48,-32.4"/>
</g>
<!-- js&#45;modules/todoComponent.js -->
<g id="node26" class="node">
<title>js&#45;modules/todoComponent.js</title>
<path fill="none" stroke="#ff6c60" d="M3318.08,-196.5C3318.08,-196.5 3127.92,-196.5 3127.92,-196.5 3123.83,-196.5 3119.75,-192.42 3119.75,-188.33 3119.75,-188.33 3119.75,-180.17 3119.75,-180.17 3119.75,-176.08 3123.83,-172 3127.92,-172 3127.92,-172 3318.08,-172 3318.08,-172 3322.17,-172 3326.25,-176.08 3326.25,-180.17 3326.25,-180.17 3326.25,-188.33 3326.25,-188.33 3326.25,-192.42 3322.17,-196.5 3318.08,-196.5"/>
<text text-anchor="middle" x="3223" y="-179.2" font-family="Arial" font-size="14.00" fill="#ff6c60">js&#45;modules/todoComponent.js</text>
</g>
<!-- js&#45;modules/fixCircularDependenciesInComponents.js&#45;&gt;js&#45;modules/todoComponent.js -->
<g id="edge26" class="edge">
<title>js&#45;modules/fixCircularDependenciesInComponents.js&#45;&gt;js&#45;modules/todoComponent.js</title>
<path fill="none" stroke="#757575" d="M3065.06,-167.59C3079.84,-168.56 3094.51,-169.59 3108.63,-170.65"/>
<polygon fill="#757575" stroke="#757575" points="3108.06,-174.12 3118.3,-171.39 3108.6,-167.14 3108.06,-174.12"/>
</g>
<!-- js&#45;modules/todoListComponent.js -->
<g id="node27" class="node">
<title>js&#45;modules/todoListComponent.js</title>
<path fill="none" stroke="#ff6c60" d="M3329.33,-153.5C3329.33,-153.5 3116.67,-153.5 3116.67,-153.5 3112.58,-153.5 3108.5,-149.42 3108.5,-145.33 3108.5,-145.33 3108.5,-137.17 3108.5,-137.17 3108.5,-133.08 3112.58,-129 3116.67,-129 3116.67,-129 3329.33,-129 3329.33,-129 3333.42,-129 3337.5,-133.08 3337.5,-137.17 3337.5,-137.17 3337.5,-145.33 3337.5,-145.33 3337.5,-149.42 3333.42,-153.5 3329.33,-153.5"/>
<text text-anchor="middle" x="3223" y="-136.2" font-family="Arial" font-size="14.00" fill="#ff6c60">js&#45;modules/todoListComponent.js</text>
</g>
<!-- js&#45;modules/fixCircularDependenciesInComponents.js&#45;&gt;js&#45;modules/todoListComponent.js -->
<g id="edge27" class="edge">
<title>js&#45;modules/fixCircularDependenciesInComponents.js&#45;&gt;js&#45;modules/todoListComponent.js</title>
<path fill="none" stroke="#757575" d="M2988,-150.52C3022.17,-147.69 3060.97,-145.01 3097,-142.96"/>
<polygon fill="#757575" stroke="#757575" points="3096.79,-146.48 3106.58,-142.43 3096.4,-139.49 3096.79,-146.48"/>
</g>
<!-- js&#45;modules/listInComponentMixin.js&#45;&gt;js&#45;modules/fixCircularDependenciesInComponents.js -->
<g id="edge35" class="edge">
<title>js&#45;modules/listInComponentMixin.js&#45;&gt;js&#45;modules/fixCircularDependenciesInComponents.js</title>
<path fill="none" stroke="#757575" d="M3183.38,-67.96C3159.39,-72.77 3128.06,-78.38 3101,-86.25 3044.66,-102.64 2982.76,-128.85 2940.59,-146.29"/>
<polygon fill="#757575" stroke="#757575" points="2939.36,-143.01 2931.44,-150.06 2942.02,-149.49 2939.36,-143.01"/>
</g>
<!-- js&#45;modules/noteComponent.js&#45;&gt;js&#45;modules/baseComponent.js -->
<g id="edge42" class="edge">
<title>js&#45;modules/noteComponent.js&#45;&gt;js&#45;modules/baseComponent.js</title>
<path fill="none" stroke="#757575" d="M3326.24,-265.82C3411.08,-260.86 3534.57,-250.66 3640.75,-230.25 3674.69,-223.73 3712.06,-212.77 3740.66,-203.54"/>
<polygon fill="#757575" stroke="#757575" points="3741.7,-206.89 3750.12,-200.45 3739.53,-200.23 3741.7,-206.89"/>
</g>
<!-- js&#45;modules/noteComponent.js&#45;&gt;js&#45;modules/fixCircularDependenciesInComponents.js -->
<g id="edge43" class="edge">
<title>js&#45;modules/noteComponent.js&#45;&gt;js&#45;modules/fixCircularDependenciesInComponents.js</title>
<path fill="none" stroke="#757575" d="M3119.66,-262.15C3113.31,-260.63 3107.05,-259 3101,-257.25 3032.08,-237.35 2954.72,-202.98 2915.47,-181.43"/>
<polygon fill="#757575" stroke="#757575" points="2917.41,-178.51 2906.99,-176.6 2913.94,-184.59 2917.41,-178.51"/>
</g>
<!-- js&#45;modules/noteListComponent.js&#45;&gt;js&#45;modules/baseListComponent.js -->
<g id="edge46" class="edge">
<title>js&#45;modules/noteListComponent.js&#45;&gt;js&#45;modules/baseListComponent.js</title>
<path fill="none" stroke="#757575" d="M3337.4,-100.23C3352.57,-100.5 3368.22,-100.77 3383.6,-101.04"/>
<polygon fill="#757575" stroke="#757575" points="3383.17,-104.53 3393.23,-101.21 3383.29,-97.54 3383.17,-104.53"/>
</g>
<!-- js&#45;modules/noteListComponent.js&#45;&gt;js&#45;modules/fixCircularDependenciesInComponents.js -->
<g id="edge47" class="edge">
<title>js&#45;modules/noteListComponent.js&#45;&gt;js&#45;modules/fixCircularDependenciesInComponents.js</title>
<path fill="none" stroke="#757575" d="M3191.38,-110.95C3166.9,-116.98 3131.72,-123.33 3101,-129.25 3069.17,-135.38 3034.71,-142.28 3003.03,-148.38"/>
<polygon fill="#757575" stroke="#757575" points="3002.59,-144.9 2993.43,-150.22 3003.91,-151.77 3002.59,-144.9"/>
</g>
<!-- js&#45;modules/projectComponent.js&#45;&gt;js&#45;modules/baseComponent.js -->
<g id="edge48" class="edge">
<title>js&#45;modules/projectComponent.js&#45;&gt;js&#45;modules/baseComponent.js</title>
<path fill="none" stroke="#757575" d="M3333.88,-225.12C3418.03,-222.79 3536.91,-218 3640.75,-208.25 3659.15,-206.52 3678.76,-204.12 3697.48,-201.56"/>
<polygon fill="#757575" stroke="#757575" points="3697.77,-205.05 3707.19,-200.2 3696.8,-198.12 3697.77,-205.05"/>
</g>
<!-- js&#45;modules/projectComponent.js&#45;&gt;js&#45;modules/fixCircularDependenciesInComponents.js -->
<g id="edge49" class="edge">
<title>js&#45;modules/projectComponent.js&#45;&gt;js&#45;modules/fixCircularDependenciesInComponents.js</title>
<path fill="none" stroke="#757575" d="M3111.85,-216.3C3108.19,-215.61 3104.57,-214.93 3101,-214.25 3042.59,-203.14 2975.23,-189.63 2932.56,-178.84"/>
<polygon fill="#757575" stroke="#757575" points="2933.49,-175.47 2922.93,-176.33 2931.72,-182.24 2933.49,-175.47"/>
</g>
<!-- js&#45;modules/projectListComponent.js&#45;&gt;js&#45;modules/baseListComponent.js -->
<g id="edge58" class="edge">
<title>js&#45;modules/projectListComponent.js&#45;&gt;js&#45;modules/baseListComponent.js</title>
<path fill="none" stroke="#757575" d="M3307.55,-24.99C3320.2,-27.63 3333.02,-30.7 3345,-34.25 3391.04,-47.89 3441.67,-70.26 3474.51,-85.81"/>
<polygon fill="#757575" stroke="#757575" points="3472.62,-88.79 3483.16,-89.95 3475.65,-82.47 3472.62,-88.79"/>
</g>
<!-- js&#45;modules/projectListComponent.js&#45;&gt;js&#45;modules/fixCircularDependenciesInComponents.js -->
<g id="edge59" class="edge">
<title>js&#45;modules/projectListComponent.js&#45;&gt;js&#45;modules/fixCircularDependenciesInComponents.js</title>
<path fill="none" stroke="#757575" d="M3174.08,-24.99C3151.39,-29.05 3124.25,-34.4 3101,-43.25 3033.04,-69.13 2962.6,-117.14 2922.63,-144.13"/>
<polygon fill="#757575" stroke="#757575" points="2920.74,-141.18 2914.4,-149.67 2924.65,-146.99 2920.74,-141.18"/>
</g>
<!-- js&#45;modules/todoComponent.js&#45;&gt;js&#45;modules/baseComponent.js -->
<g id="edge63" class="edge">
<title>js&#45;modules/todoComponent.js&#45;&gt;js&#45;modules/baseComponent.js</title>
<path fill="none" stroke="#757575" d="M3319.75,-171.51C3339.94,-169.32 3361.14,-167.38 3381,-166.25 3496.26,-159.66 3525.6,-158.08 3640.75,-166.25 3660.65,-167.66 3681.95,-170.13 3702,-172.9"/>
<polygon fill="#757575" stroke="#757575" points="3701.42,-176.35 3711.81,-174.29 3702.4,-169.42 3701.42,-176.35"/>
</g>
<!-- js&#45;modules/todoComponent.js&#45;&gt;js&#45;modules/fixCircularDependenciesInComponents.js -->
<g id="edge64" class="edge">
<title>js&#45;modules/todoComponent.js&#45;&gt;js&#45;modules/fixCircularDependenciesInComponents.js</title>
<path fill="none" stroke="#757575" d="M3119.35,-184.06C3082.38,-182.28 3040.48,-179.68 3002.67,-176.83"/>
<polygon fill="#757575" stroke="#757575" points="3003.36,-173.37 2993.12,-176.09 3002.82,-180.35 3003.36,-173.37"/>
</g>
<!-- js&#45;utilities/mathUtilities.js -->
<g id="node38" class="node">
<title>js&#45;utilities/mathUtilities.js</title>
<path fill="none" stroke="#cfffac" d="M3586.46,-199.5C3586.46,-199.5 3435.29,-199.5 3435.29,-199.5 3431.21,-199.5 3427.12,-195.42 3427.12,-191.33 3427.12,-191.33 3427.12,-183.17 3427.12,-183.17 3427.12,-179.08 3431.21,-175 3435.29,-175 3435.29,-175 3586.46,-175 3586.46,-175 3590.54,-175 3594.62,-179.08 3594.62,-183.17 3594.62,-183.17 3594.62,-191.33 3594.62,-191.33 3594.62,-195.42 3590.54,-199.5 3586.46,-199.5"/>
<text text-anchor="middle" x="3510.88" y="-182.2" font-family="Arial" font-size="14.00" fill="#cfffac">js&#45;utilities/mathUtilities.js</text>
</g>
<!-- js&#45;modules/todoComponent.js&#45;&gt;js&#45;utilities/mathUtilities.js -->
<g id="edge65" class="edge">
<title>js&#45;modules/todoComponent.js&#45;&gt;js&#45;utilities/mathUtilities.js</title>
<path fill="none" stroke="#757575" d="M3326.4,-185.32C3355.54,-185.63 3387.12,-185.96 3415.74,-186.26"/>
<polygon fill="#757575" stroke="#757575" points="3415.42,-189.76 3425.46,-186.36 3415.49,-182.76 3415.42,-189.76"/>
</g>
<!-- js&#45;modules/todoListComponent.js&#45;&gt;js&#45;modules/baseListComponent.js -->
<g id="edge76" class="edge">
<title>js&#45;modules/todoListComponent.js&#45;&gt;js&#45;modules/baseListComponent.js</title>
<path fill="none" stroke="#757575" d="M3319.59,-128.54C3346.41,-124.98 3375.74,-121.08 3403.16,-117.44"/>
<polygon fill="#757575" stroke="#757575" points="3403.42,-120.93 3412.88,-116.14 3402.5,-113.99 3403.42,-120.93"/>
</g>
<!-- js&#45;modules/todoListComponent.js&#45;&gt;js&#45;modules/fixCircularDependenciesInComponents.js -->
<g id="edge77" class="edge">
<title>js&#45;modules/todoListComponent.js&#45;&gt;js&#45;modules/fixCircularDependenciesInComponents.js</title>
<path fill="none" stroke="#757575" d="M3123.72,-153.98C3108.62,-155.22 3092.62,-156.44 3076.36,-157.59"/>
<polygon fill="#757575" stroke="#757575" points="3076.3,-154.09 3066.57,-158.27 3076.79,-161.07 3076.3,-154.09"/>
</g>
<!-- js&#45;modules/navDomComponent.js&#45;&gt;js&#45;utilities/commonDomComponents.js -->
<g id="edge41" class="edge">
<title>js&#45;modules/navDomComponent.js&#45;&gt;js&#45;utilities/commonDomComponents.js</title>
<path fill="none" stroke="#757575" d="M1031.31,-917.93C1127.47,-950.81 1399.88,-1036.25 1633.75,-1036.25 1633.75,-1036.25 1633.75,-1036.25 2240.38,-1036.25 2735.65,-1036.25 2930.69,-1160.63 3345,-889.25 3369.2,-873.4 3463.74,-701.55 3497.67,-638.92"/>
<polygon fill="#757575" stroke="#757575" points="3500.7,-640.67 3502.38,-630.2 3494.54,-637.34 3500.7,-640.67"/>
</g>
<!-- js&#45;modules/homeDomComponent.js&#45;&gt;js&#45;modules/uiIcons.js -->
<g id="edge31" class="edge">
<title>js&#45;modules/homeDomComponent.js&#45;&gt;js&#45;modules/uiIcons.js</title>
<path fill="none" stroke="#757575" d="M1008.19,-744.62C1035.89,-770.95 1104.79,-832.95 1173.5,-867.25 1363.78,-962.26 1421.07,-998.25 1633.75,-998.25 1633.75,-998.25 1633.75,-998.25 2240.38,-998.25 2732.19,-998.25 2865.62,-1042.18 3345,-932.25 3392.52,-921.35 3443.96,-898.13 3476.52,-881.88"/>
<polygon fill="#757575" stroke="#757575" points="3477.71,-885.19 3485.05,-877.55 3474.54,-878.95 3477.71,-885.19"/>
</g>
<!-- js&#45;modules/homeDomComponent.js&#45;&gt;js&#45;utilities/commonDomComponents.js -->
<g id="edge32" class="edge">
<title>js&#45;modules/homeDomComponent.js&#45;&gt;js&#45;utilities/commonDomComponents.js</title>
<path fill="none" stroke="#757575" d="M1117.26,-732.25C1245.69,-732.25 1453.97,-732.25 1633.75,-732.25 1633.75,-732.25 1633.75,-732.25 2889.62,-732.25 3104.46,-732.25 3354.12,-664.18 3459.18,-632.33"/>
<polygon fill="#757575" stroke="#757575" points="3460.1,-635.71 3468.64,-629.44 3458.05,-629.02 3460.1,-635.71"/>
</g>
<!-- js&#45;modules/projectDomMiniNavComponent.js -->
<g id="node30" class="node">
<title>js&#45;modules/projectDomMiniNavComponent.js</title>
<path fill="none" stroke="#c6c5fe" d="M1777.08,-627.5C1777.08,-627.5 1492.42,-627.5 1492.42,-627.5 1488.33,-627.5 1484.25,-623.42 1484.25,-619.33 1484.25,-619.33 1484.25,-611.17 1484.25,-611.17 1484.25,-607.08 1488.33,-603 1492.42,-603 1492.42,-603 1777.08,-603 1777.08,-603 1781.17,-603 1785.25,-607.08 1785.25,-611.17 1785.25,-611.17 1785.25,-619.33 1785.25,-619.33 1785.25,-623.42 1781.17,-627.5 1777.08,-627.5"/>
<text text-anchor="middle" x="1634.75" y="-610.2" font-family="Arial" font-size="14.00" fill="#c6c5fe">js&#45;modules/projectDomMiniNavComponent.js</text>
</g>
<!-- js&#45;modules/homeDomComponent.js&#45;&gt;js&#45;modules/projectDomMiniNavComponent.js -->
<g id="edge29" class="edge">
<title>js&#45;modules/homeDomComponent.js&#45;&gt;js&#45;modules/projectDomMiniNavComponent.js</title>
<path fill="none" stroke="#757575" d="M1065.02,-719.51C1184.2,-697.66 1426.85,-653.18 1553.2,-630.02"/>
<polygon fill="#757575" stroke="#757575" points="1553.62,-633.5 1562.83,-628.25 1552.36,-626.61 1553.62,-633.5"/>
</g>
<!-- js&#45;modules/projectListDomComponent.js -->
<g id="node31" class="node">
<title>js&#45;modules/projectListDomComponent.js</title>
<path fill="none" stroke="#c6c5fe" d="M1440.08,-858.5C1440.08,-858.5 1181.67,-858.5 1181.67,-858.5 1177.58,-858.5 1173.5,-854.42 1173.5,-850.33 1173.5,-850.33 1173.5,-842.17 1173.5,-842.17 1173.5,-838.08 1177.58,-834 1181.67,-834 1181.67,-834 1440.08,-834 1440.08,-834 1444.17,-834 1448.25,-838.08 1448.25,-842.17 1448.25,-842.17 1448.25,-850.33 1448.25,-850.33 1448.25,-854.42 1444.17,-858.5 1440.08,-858.5"/>
<text text-anchor="middle" x="1310.88" y="-841.2" font-family="Arial" font-size="14.00" fill="#c6c5fe">js&#45;modules/projectListDomComponent.js</text>
</g>
<!-- js&#45;modules/homeDomComponent.js&#45;&gt;js&#45;modules/projectListDomComponent.js -->
<g id="edge30" class="edge">
<title>js&#45;modules/homeDomComponent.js&#45;&gt;js&#45;modules/projectListDomComponent.js</title>
<path fill="none" stroke="#757575" d="M1030.65,-745C1087.9,-765.76 1201.24,-806.86 1264.5,-829.8"/>
<polygon fill="#757575" stroke="#757575" points="1262.94,-832.95 1273.53,-833.07 1265.32,-826.37 1262.94,-832.95"/>
</g>
<!-- js&#45;modules/projectDomMiniNavComponent.js&#45;&gt;js&#45;utilities/commonDomComponents.js -->
<g id="edge56" class="edge">
<title>js&#45;modules/projectDomMiniNavComponent.js&#45;&gt;js&#45;utilities/commonDomComponents.js</title>
<path fill="none" stroke="#757575" d="M1785.51,-612.53C2050.67,-607.87 2620.18,-598.53 3101,-595.25 3209.44,-594.51 3236.77,-588.39 3345,-595.25 3367.66,-596.69 3391.98,-599.23 3414.78,-602.05"/>
<polygon fill="#757575" stroke="#757575" points="3414.33,-605.52 3424.69,-603.31 3415.22,-598.58 3414.33,-605.52"/>
</g>
<!-- js&#45;modules/projectDomMiniNavComponent.js&#45;&gt;js&#45;modules/projectDomComponent.js -->
<g id="edge55" class="edge">
<title>js&#45;modules/projectDomMiniNavComponent.js&#45;&gt;js&#45;modules/projectDomComponent.js</title>
<path fill="none" stroke="#757575" d="M1734.46,-627.96C1766.86,-632.13 1803.07,-636.8 1836.26,-641.07"/>
<polygon fill="#757575" stroke="#757575" points="1835.52,-644.5 1845.89,-642.31 1836.42,-637.56 1835.52,-644.5"/>
</g>
<!-- js&#45;modules/projectListDomComponent.js&#45;&gt;js&#45;modules/baseListDomComponent.js -->
<g id="edge60" class="edge">
<title>js&#45;modules/projectListDomComponent.js&#45;&gt;js&#45;modules/baseListDomComponent.js</title>
<path fill="none" stroke="#757575" d="M1375.52,-858.97C1489.48,-880.61 1736.14,-922.25 1946.38,-922.25 1946.38,-922.25 1946.38,-922.25 2240.38,-922.25 2414.52,-922.25 2614.63,-909.1 2745.68,-898.69"/>
<polygon fill="#757575" stroke="#757575" points="2745.76,-902.2 2755.45,-897.91 2745.2,-895.22 2745.76,-902.2"/>
</g>
<!-- js&#45;modules/projectDomMiniComponent.js -->
<g id="node37" class="node">
<title>js&#45;modules/projectDomMiniComponent.js</title>
<path fill="none" stroke="#c6c5fe" d="M1765.08,-858.5C1765.08,-858.5 1504.42,-858.5 1504.42,-858.5 1500.33,-858.5 1496.25,-854.42 1496.25,-850.33 1496.25,-850.33 1496.25,-842.17 1496.25,-842.17 1496.25,-838.08 1500.33,-834 1504.42,-834 1504.42,-834 1765.08,-834 1765.08,-834 1769.17,-834 1773.25,-838.08 1773.25,-842.17 1773.25,-842.17 1773.25,-850.33 1773.25,-850.33 1773.25,-854.42 1769.17,-858.5 1765.08,-858.5"/>
<text text-anchor="middle" x="1634.75" y="-841.2" font-family="Arial" font-size="14.00" fill="#c6c5fe">js&#45;modules/projectDomMiniComponent.js</text>
</g>
<!-- js&#45;modules/projectListDomComponent.js&#45;&gt;js&#45;modules/projectDomMiniComponent.js -->
<g id="edge61" class="edge">
<title>js&#45;modules/projectListDomComponent.js&#45;&gt;js&#45;modules/projectDomMiniComponent.js</title>
<path fill="none" stroke="#757575" d="M1448.38,-846.25C1460.32,-846.25 1472.45,-846.25 1484.5,-846.25"/>
<polygon fill="#757575" stroke="#757575" points="1484.49,-849.75 1494.49,-846.25 1484.49,-842.75 1484.49,-849.75"/>
</g>
<!-- js&#45;modules/rootComponent.js&#45;&gt;js&#45;modules/fixCircularDependenciesInComponents.js -->
<g id="edge62" class="edge">
<title>js&#45;modules/rootComponent.js&#45;&gt;js&#45;modules/fixCircularDependenciesInComponents.js</title>
<path fill="none" stroke="#757575" d="M1412.7,-227.25C1537.86,-227.25 1757.87,-227.25 1946.38,-227.25 1946.38,-227.25 1946.38,-227.25 2240.38,-227.25 2440.49,-227.25 2673.71,-196.58 2798.31,-177.7"/>
<polygon fill="#757575" stroke="#757575" points="2798.81,-181.17 2808.16,-176.2 2797.75,-174.25 2798.81,-181.17"/>
</g>
<!-- js&#45;modules/noteDomComponent.js&#45;&gt;js&#45;modules/baseDomComponent.js -->
<g id="edge44" class="edge">
<title>js&#45;modules/noteDomComponent.js&#45;&gt;js&#45;modules/baseDomComponent.js</title>
<path fill="none" stroke="#757575" d="M2357.81,-579.27C2542.3,-587.17 2898.79,-602.42 3091.22,-610.65"/>
<polygon fill="#757575" stroke="#757575" points="3090.87,-614.14 3101.01,-611.07 3091.16,-607.15 3090.87,-614.14"/>
</g>
<!-- js&#45;modules/projectDomComponent.js&#45;&gt;js&#45;modules/baseDomComponent.js -->
<g id="edge50" class="edge">
<title>js&#45;modules/projectDomComponent.js&#45;&gt;js&#45;modules/baseDomComponent.js</title>
<path fill="none" stroke="#757575" d="M2073.98,-651.4C2316.11,-643.99 2845.22,-627.79 3091.31,-620.25"/>
<polygon fill="#757575" stroke="#757575" points="3091.05,-623.76 3100.94,-619.96 3090.84,-616.76 3091.05,-623.76"/>
</g>
<!-- js&#45;modules/todoListDomComponent.js -->
<g id="node36" class="node">
<title>js&#45;modules/todoListDomComponent.js</title>
<path fill="none" stroke="#c6c5fe" d="M2361.08,-704.5C2361.08,-704.5 2117.67,-704.5 2117.67,-704.5 2113.58,-704.5 2109.5,-700.42 2109.5,-696.33 2109.5,-696.33 2109.5,-688.17 2109.5,-688.17 2109.5,-684.08 2113.58,-680 2117.67,-680 2117.67,-680 2361.08,-680 2361.08,-680 2365.17,-680 2369.25,-684.08 2369.25,-688.17 2369.25,-688.17 2369.25,-696.33 2369.25,-696.33 2369.25,-700.42 2365.17,-704.5 2361.08,-704.5"/>
<text text-anchor="middle" x="2239.38" y="-687.2" font-family="Arial" font-size="14.00" fill="#c6c5fe">js&#45;modules/todoListDomComponent.js</text>
</g>
<!-- js&#45;modules/projectDomComponent.js&#45;&gt;js&#45;modules/todoListDomComponent.js -->
<g id="edge51" class="edge">
<title>js&#45;modules/projectDomComponent.js&#45;&gt;js&#45;modules/todoListDomComponent.js</title>
<path fill="none" stroke="#757575" d="M2048.18,-667.98C2073.84,-671.26 2101.6,-674.8 2127.77,-678.14"/>
<polygon fill="#757575" stroke="#757575" points="2127.02,-681.57 2137.38,-679.36 2127.9,-674.63 2127.02,-681.57"/>
</g>
<!-- js&#45;modules/todoDomComponent.js&#45;&gt;js&#45;modules/baseDomComponent.js -->
<g id="edge66" class="edge">
<title>js&#45;modules/todoDomComponent.js&#45;&gt;js&#45;modules/baseDomComponent.js</title>
<path fill="none" stroke="#757575" d="M2942.29,-548.93C3000.83,-563.02 3095.36,-585.77 3158.09,-600.87"/>
<polygon fill="#757575" stroke="#757575" points="3157.02,-604.21 3167.56,-603.15 3158.66,-597.4 3157.02,-604.21"/>
</g>
<!-- js&#45;modules/todoDomComponent.js&#45;&gt;js&#45;utilities/commonDomComponents.js -->
<g id="edge67" class="edge">
<title>js&#45;modules/todoDomComponent.js&#45;&gt;js&#45;utilities/commonDomComponents.js</title>
<path fill="none" stroke="#757575" d="M3007.63,-534.64C3100.16,-535.38 3231.79,-540.86 3345,-562.25 3388.21,-570.42 3435.76,-586.83 3468.64,-599.43"/>
<polygon fill="#757575" stroke="#757575" points="3467.21,-602.63 3477.8,-602.99 3469.75,-596.1 3467.21,-602.63"/>
</g>
<!-- js&#45;modules/todoDomComponent.js&#45;&gt;js&#45;utilities/fontAwesomeUtilities.js -->
<g id="edge68" class="edge">
<title>js&#45;modules/todoDomComponent.js&#45;&gt;js&#45;utilities/fontAwesomeUtilities.js</title>
<path fill="none" stroke="#757575" d="M2971.96,-523.53C3069.35,-509.19 3236.51,-486.75 3381,-478.25 3496.25,-471.47 3525.32,-476.68 3640.75,-478.25 3648.57,-478.36 3656.63,-478.49 3664.75,-478.65"/>
<polygon fill="#757575" stroke="#757575" points="3664.67,-482.15 3674.74,-478.86 3664.81,-475.16 3664.67,-482.15"/>
</g>
<!-- js&#45;modules/todoListDomComponent.js&#45;&gt;js&#45;modules/baseListDomComponent.js -->
<g id="edge78" class="edge">
<title>js&#45;modules/todoListDomComponent.js&#45;&gt;js&#45;modules/baseListDomComponent.js</title>
<path fill="none" stroke="#757575" d="M2282.84,-704.98C2396.82,-739.14 2709.28,-832.79 2834.6,-870.36"/>
<polygon fill="#757575" stroke="#757575" points="2833.39,-873.65 2843.97,-873.17 2835.4,-866.94 2833.39,-873.65"/>
</g>
<!-- js&#45;modules/todoDomMiniComponent.js -->
<g id="node39" class="node">
<title>js&#45;modules/todoDomMiniComponent.js</title>
<path fill="none" stroke="#c6c5fe" d="M2663.58,-704.5C2663.58,-704.5 2417.92,-704.5 2417.92,-704.5 2413.83,-704.5 2409.75,-700.42 2409.75,-696.33 2409.75,-696.33 2409.75,-688.17 2409.75,-688.17 2409.75,-684.08 2413.83,-680 2417.92,-680 2417.92,-680 2663.58,-680 2663.58,-680 2667.67,-680 2671.75,-684.08 2671.75,-688.17 2671.75,-688.17 2671.75,-696.33 2671.75,-696.33 2671.75,-700.42 2667.67,-704.5 2663.58,-704.5"/>
<text text-anchor="middle" x="2540.75" y="-687.2" font-family="Arial" font-size="14.00" fill="#c6c5fe">js&#45;modules/todoDomMiniComponent.js</text>
</g>
<!-- js&#45;modules/todoListDomComponent.js&#45;&gt;js&#45;modules/todoDomMiniComponent.js -->
<g id="edge79" class="edge">
<title>js&#45;modules/todoListDomComponent.js&#45;&gt;js&#45;modules/todoDomMiniComponent.js</title>
<path fill="none" stroke="#757575" d="M2369.51,-692.25C2379.06,-692.25 2388.73,-692.25 2398.35,-692.25"/>
<polygon fill="#757575" stroke="#757575" points="2398.11,-695.75 2408.11,-692.25 2398.11,-688.75 2398.11,-695.75"/>
</g>
<!-- js&#45;modules/projectDomMiniComponent.js&#45;&gt;js&#45;modules/uiIcons.js -->
<g id="edge53" class="edge">
<title>js&#45;modules/projectDomMiniComponent.js&#45;&gt;js&#45;modules/uiIcons.js</title>
<path fill="none" stroke="#757575" d="M1773.74,-857.01C1789.76,-858.16 1805.86,-859.26 1821.25,-860.25 2389.39,-896.67 2531.73,-909.39 3101,-915.25 3209.44,-916.37 3237.77,-931.46 3345,-915.25 3388.12,-908.73 3435.5,-893.14 3468.36,-880.9"/>
<polygon fill="#757575" stroke="#757575" points="3469.4,-884.25 3477.51,-877.43 3466.92,-877.71 3469.4,-884.25"/>
</g>
<!-- js&#45;modules/projectDomMiniComponent.js&#45;&gt;js&#45;utilities/commonDomComponents.js -->
<g id="edge54" class="edge">
<title>js&#45;modules/projectDomMiniComponent.js&#45;&gt;js&#45;utilities/commonDomComponents.js</title>
<path fill="none" stroke="#757575" d="M1773.67,-846.25C1895.82,-846.25 2078.96,-846.25 2238.38,-846.25 2238.38,-846.25 2238.38,-846.25 2889.62,-846.25 3096.84,-846.25 3157.7,-834.87 3345,-746.25 3404.08,-718.3 3461.28,-665.73 3490.25,-636.74"/>
<polygon fill="#757575" stroke="#757575" points="3492.4,-639.55 3496.92,-629.97 3487.41,-634.64 3492.4,-639.55"/>
</g>
<!-- js&#45;modules/projectDomMiniComponent.js&#45;&gt;js&#45;modules/projectDomComponent.js -->
<g id="edge52" class="edge">
<title>js&#45;modules/projectDomMiniComponent.js&#45;&gt;js&#45;modules/projectDomComponent.js</title>
<path fill="none" stroke="#757575" d="M1656.13,-833.72C1709.45,-800.93 1853.25,-712.51 1916.19,-673.81"/>
<polygon fill="#757575" stroke="#757575" points="1917.94,-676.84 1924.63,-668.62 1914.28,-670.88 1917.94,-676.84"/>
</g>
<!-- js&#45;modules/todoDomMiniComponent.js&#45;&gt;js&#45;modules/uiIcons.js -->
<g id="edge70" class="edge">
<title>js&#45;modules/todoDomMiniComponent.js&#45;&gt;js&#45;modules/uiIcons.js</title>
<path fill="none" stroke="#757575" d="M2613.33,-704.97C2788.99,-736.17 3240.57,-816.4 3427.23,-849.57"/>
<polygon fill="#757575" stroke="#757575" points="3426.38,-852.97 3436.84,-851.27 3427.61,-846.08 3426.38,-852.97"/>
</g>
<!-- js&#45;modules/todoDomMiniComponent.js&#45;&gt;js&#45;utilities/commonDomComponents.js -->
<g id="edge71" class="edge">
<title>js&#45;modules/todoDomMiniComponent.js&#45;&gt;js&#45;utilities/commonDomComponents.js</title>
<path fill="none" stroke="#757575" d="M2672.24,-687.71C2778.17,-683.55 2931.35,-676.48 3065,-666.25 3189.74,-656.7 3220.72,-651.6 3345,-637.25 3363.36,-635.13 3382.86,-632.76 3401.78,-630.39"/>
<polygon fill="#757575" stroke="#757575" points="3402.16,-633.87 3411.65,-629.14 3401.29,-626.92 3402.16,-633.87"/>
</g>
<!-- js&#45;modules/todoDomMiniComponent.js&#45;&gt;js&#45;modules/todoDomComponent.js -->
<g id="edge69" class="edge">
<title>js&#45;modules/todoDomMiniComponent.js&#45;&gt;js&#45;modules/todoDomComponent.js</title>
<path fill="none" stroke="#757575" d="M2569.76,-679.62C2631.56,-651.74 2779.65,-584.95 2849.69,-553.36"/>
<polygon fill="#757575" stroke="#757575" points="2850.78,-556.71 2858.46,-549.41 2847.9,-550.33 2850.78,-556.71"/>
</g>
</g>
</svg>
