<?xml version="1.0" encoding="UTF-8" standalone="no"?>
<!DOCTYPE svg PUBLIC "-//W3C//DTD SVG 1.1//EN"
 "http://www.w3.org/Graphics/SVG/1.1/DTD/svg11.dtd">
<!-- Generated by graphviz version 11.0.0 (20240428.1522)
 -->
<!-- Title: G Pages: 1 -->
<svg width="2949pt" height="1217pt"
 viewBox="0.00 0.00 2949.20 1217.34" xmlns="http://www.w3.org/2000/svg" xmlns:xlink="http://www.w3.org/1999/xlink">
<g id="graph0" class="graph" transform="scale(1 1) rotate(0) translate(21.6 1195.74)">
<title>G</title>
<polygon fill="#111111" stroke="none" points="-21.6,21.6 -21.6,-1195.74 2927.6,-1195.74 2927.6,21.6 -21.6,21.6"/>
<!-- ../js&#45;utilities/commonDomComponents.js -->
<g id="node1" class="node">
<title>../js&#45;utilities/commonDomComponents.js</title>
<path fill="none" stroke="#c6c5fe" d="M2626.08,-890.25C2626.08,-890.25 2371.42,-890.25 2371.42,-890.25 2367.33,-890.25 2363.25,-886.17 2363.25,-882.08 2363.25,-882.08 2363.25,-873.92 2363.25,-873.92 2363.25,-869.83 2367.33,-865.75 2371.42,-865.75 2371.42,-865.75 2626.08,-865.75 2626.08,-865.75 2630.17,-865.75 2634.25,-869.83 2634.25,-873.92 2634.25,-873.92 2634.25,-882.08 2634.25,-882.08 2634.25,-886.17 2630.17,-890.25 2626.08,-890.25"/>
<text text-anchor="middle" x="2498.75" y="-872.95" font-family="Arial" font-size="14.00" fill="#c6c5fe">../js&#45;utilities/commonDomComponents.js</text>
</g>
<!-- ../js&#45;utilities/fontAwesomeUtilities.js -->
<g id="node2" class="node">
<title>../js&#45;utilities/fontAwesomeUtilities.js</title>
<path fill="none" stroke="#cfffac" d="M2897.83,-682.25C2897.83,-682.25 2678.42,-682.25 2678.42,-682.25 2674.33,-682.25 2670.25,-678.17 2670.25,-674.08 2670.25,-674.08 2670.25,-665.92 2670.25,-665.92 2670.25,-661.83 2674.33,-657.75 2678.42,-657.75 2678.42,-657.75 2897.83,-657.75 2897.83,-657.75 2901.92,-657.75 2906,-661.83 2906,-665.92 2906,-665.92 2906,-674.08 2906,-674.08 2906,-678.17 2901.92,-682.25 2897.83,-682.25"/>
<text text-anchor="middle" x="2788.12" y="-664.95" font-family="Arial" font-size="14.00" fill="#cfffac">../js&#45;utilities/fontAwesomeUtilities.js</text>
</g>
<!-- ../js&#45;utilities/commonDomComponents.js&#45;&gt;../js&#45;utilities/fontAwesomeUtilities.js -->
<g id="edge1" class="edge">
<title>../js&#45;utilities/commonDomComponents.js&#45;&gt;../js&#45;utilities/fontAwesomeUtilities.js</title>
<path fill="none" stroke="#757575" d="M2517.29,-865.3C2565.91,-830.12 2702.57,-731.2 2760.57,-689.22"/>
<polygon fill="#757575" stroke="#757575" points="2762.54,-692.12 2768.58,-683.42 2758.43,-686.45 2762.54,-692.12"/>
</g>
<!-- ../js&#45;utilities/commonDomUtilities.js -->
<g id="node3" class="node">
<title>../js&#45;utilities/commonDomUtilities.js</title>
<path fill="none" stroke="#cfffac" d="M2607.71,-407.25C2607.71,-407.25 2389.79,-407.25 2389.79,-407.25 2385.71,-407.25 2381.62,-403.17 2381.62,-399.08 2381.62,-399.08 2381.62,-390.92 2381.62,-390.92 2381.62,-386.83 2385.71,-382.75 2389.79,-382.75 2389.79,-382.75 2607.71,-382.75 2607.71,-382.75 2611.79,-382.75 2615.88,-386.83 2615.88,-390.92 2615.88,-390.92 2615.88,-399.08 2615.88,-399.08 2615.88,-403.17 2611.79,-407.25 2607.71,-407.25"/>
<text text-anchor="middle" x="2498.75" y="-389.95" font-family="Arial" font-size="14.00" fill="#cfffac">../js&#45;utilities/commonDomUtilities.js</text>
</g>
<!-- ../js&#45;utilities/creditFooter.js -->
<g id="node4" class="node">
<title>../js&#45;utilities/creditFooter.js</title>
<path fill="none" stroke="#c6c5fe" d="M822.71,-228.25C822.71,-228.25 658.79,-228.25 658.79,-228.25 654.71,-228.25 650.62,-224.17 650.62,-220.08 650.62,-220.08 650.62,-211.92 650.62,-211.92 650.62,-207.83 654.71,-203.75 658.79,-203.75 658.79,-203.75 822.71,-203.75 822.71,-203.75 826.79,-203.75 830.88,-207.83 830.88,-211.92 830.88,-211.92 830.88,-220.08 830.88,-220.08 830.88,-224.17 826.79,-228.25 822.71,-228.25"/>
<text text-anchor="middle" x="740.75" y="-210.95" font-family="Arial" font-size="14.00" fill="#c6c5fe">../js&#45;utilities/creditFooter.js</text>
</g>
<!-- ../js&#45;utilities/creditFooter.js&#45;&gt;../js&#45;utilities/fontAwesomeUtilities.js -->
<g id="edge2" class="edge">
<title>../js&#45;utilities/creditFooter.js&#45;&gt;../js&#45;utilities/fontAwesomeUtilities.js</title>
<path fill="none" stroke="#757575" d="M761.83,-203.29C836.98,-156.99 1110.01,0 1357.12,0 1357.12,0 1357.12,0 2217.88,0 2564.67,0 2744.29,-527.77 2780.3,-646.48"/>
<polygon fill="#757575" stroke="#757575" points="2776.95,-647.47 2783.16,-656.06 2783.66,-645.47 2776.95,-647.47"/>
</g>
<!-- ../js&#45;utilities/mathUtilities.js -->
<g id="node5" class="node">
<title>../js&#45;utilities/mathUtilities.js</title>
<path fill="none" stroke="#cfffac" d="M2033.83,-184.25C2033.83,-184.25 1871.42,-184.25 1871.42,-184.25 1867.33,-184.25 1863.25,-180.17 1863.25,-176.08 1863.25,-176.08 1863.25,-167.92 1863.25,-167.92 1863.25,-163.83 1867.33,-159.75 1871.42,-159.75 1871.42,-159.75 2033.83,-159.75 2033.83,-159.75 2037.92,-159.75 2042,-163.83 2042,-167.92 2042,-167.92 2042,-176.08 2042,-176.08 2042,-180.17 2037.92,-184.25 2033.83,-184.25"/>
<text text-anchor="middle" x="1952.62" y="-166.95" font-family="Arial" font-size="14.00" fill="#cfffac">../js&#45;utilities/mathUtilities.js</text>
</g>
<!-- dom/baseDomComponent.js -->
<g id="node6" class="node">
<title>dom/baseDomComponent.js</title>
<path fill="none" stroke="#c6c5fe" d="M2308.21,-720.25C2308.21,-720.25 2125.54,-720.25 2125.54,-720.25 2121.46,-720.25 2117.38,-716.17 2117.38,-712.08 2117.38,-712.08 2117.38,-703.92 2117.38,-703.92 2117.38,-699.83 2121.46,-695.75 2125.54,-695.75 2125.54,-695.75 2308.21,-695.75 2308.21,-695.75 2312.29,-695.75 2316.38,-699.83 2316.38,-703.92 2316.38,-703.92 2316.38,-712.08 2316.38,-712.08 2316.38,-716.17 2312.29,-720.25 2308.21,-720.25"/>
<text text-anchor="middle" x="2216.88" y="-702.95" font-family="Arial" font-size="14.00" fill="#c6c5fe">dom/baseDomComponent.js</text>
</g>
<!-- dom/baseDomComponent.js&#45;&gt;../js&#45;utilities/commonDomComponents.js -->
<g id="edge3" class="edge">
<title>dom/baseDomComponent.js&#45;&gt;../js&#45;utilities/commonDomComponents.js</title>
<path fill="none" stroke="#757575" d="M2238.45,-720.5C2287.16,-750.09 2409.71,-824.52 2467.15,-859.41"/>
<polygon fill="#757575" stroke="#757575" points="2465.1,-862.26 2475.47,-864.46 2468.74,-856.28 2465.1,-862.26"/>
</g>
<!-- dom/baseDomComponent.js&#45;&gt;../js&#45;utilities/commonDomUtilities.js -->
<g id="edge4" class="edge">
<title>dom/baseDomComponent.js&#45;&gt;../js&#45;utilities/commonDomUtilities.js</title>
<path fill="none" stroke="#757575" d="M2229.19,-695.34C2272.19,-647.26 2425.65,-475.63 2479.17,-415.78"/>
<polygon fill="#757575" stroke="#757575" points="2481.53,-418.39 2485.59,-408.6 2476.31,-413.72 2481.53,-418.39"/>
</g>
<!-- dom/uiIcons.js -->
<g id="node7" class="node">
<title>dom/uiIcons.js</title>
<path fill="none" stroke="#cfffac" d="M2544.71,-720.25C2544.71,-720.25 2452.79,-720.25 2452.79,-720.25 2448.71,-720.25 2444.62,-716.17 2444.62,-712.08 2444.62,-712.08 2444.62,-703.92 2444.62,-703.92 2444.62,-699.83 2448.71,-695.75 2452.79,-695.75 2452.79,-695.75 2544.71,-695.75 2544.71,-695.75 2548.79,-695.75 2552.88,-699.83 2552.88,-703.92 2552.88,-703.92 2552.88,-712.08 2552.88,-712.08 2552.88,-716.17 2548.79,-720.25 2544.71,-720.25"/>
<text text-anchor="middle" x="2498.75" y="-702.95" font-family="Arial" font-size="14.00" fill="#cfffac">dom/uiIcons.js</text>
</g>
<!-- dom/baseDomComponent.js&#45;&gt;dom/uiIcons.js -->
<g id="edge5" class="edge">
<title>dom/baseDomComponent.js&#45;&gt;dom/uiIcons.js</title>
<path fill="none" stroke="#757575" d="M2316.55,-708C2355.15,-708 2398.35,-708 2432.89,-708"/>
<polygon fill="#757575" stroke="#757575" points="2432.73,-711.5 2442.73,-708 2432.73,-704.5 2432.73,-711.5"/>
</g>
<!-- dom/baseFormDomComponent.js -->
<g id="node8" class="node">
<title>dom/baseFormDomComponent.js</title>
<path fill="none" stroke="#c6c5fe" d="M1466.33,-350.25C1466.33,-350.25 1249.92,-350.25 1249.92,-350.25 1245.83,-350.25 1241.75,-346.17 1241.75,-342.08 1241.75,-342.08 1241.75,-333.92 1241.75,-333.92 1241.75,-329.83 1245.83,-325.75 1249.92,-325.75 1249.92,-325.75 1466.33,-325.75 1466.33,-325.75 1470.42,-325.75 1474.5,-329.83 1474.5,-333.92 1474.5,-333.92 1474.5,-342.08 1474.5,-342.08 1474.5,-346.17 1470.42,-350.25 1466.33,-350.25"/>
<text text-anchor="middle" x="1358.12" y="-332.95" font-family="Arial" font-size="14.00" fill="#c6c5fe">dom/baseFormDomComponent.js</text>
</g>
<!-- dom/baseFormDomComponent.js&#45;&gt;../js&#45;utilities/commonDomComponents.js -->
<g id="edge6" class="edge">
<title>dom/baseFormDomComponent.js&#45;&gt;../js&#45;utilities/commonDomComponents.js</title>
<path fill="none" stroke="#757575" d="M1408.88,-350.72C1596.82,-399.13 2256.5,-572.45 2327.25,-638 2359.15,-667.56 2340.31,-692.05 2363.25,-729 2395.23,-780.52 2445.87,-830.84 2475.03,-857.79"/>
<polygon fill="#757575" stroke="#757575" points="2472.49,-860.2 2482.23,-864.36 2477.2,-855.03 2472.49,-860.2"/>
</g>
<!-- dom/baseFormDomComponent.js&#45;&gt;../js&#45;utilities/commonDomUtilities.js -->
<g id="edge7" class="edge">
<title>dom/baseFormDomComponent.js&#45;&gt;../js&#45;utilities/commonDomUtilities.js</title>
<path fill="none" stroke="#757575" d="M1474.66,-334.68C1656.6,-330.83 2020.74,-328.77 2327.25,-362 2362.64,-365.84 2401.66,-373.15 2433.43,-379.93"/>
<polygon fill="#757575" stroke="#757575" points="2432.35,-383.27 2442.86,-381.97 2433.83,-376.43 2432.35,-383.27"/>
</g>
<!-- dom/baseFormDomComponent.js&#45;&gt;dom/uiIcons.js -->
<g id="edge8" class="edge">
<title>dom/baseFormDomComponent.js&#45;&gt;dom/uiIcons.js</title>
<path fill="none" stroke="#757575" d="M1474.9,-349.37C1699.03,-372.93 2182.85,-431.84 2327.25,-514 2402.02,-556.54 2460.48,-644.28 2485.08,-685.58"/>
<polygon fill="#757575" stroke="#757575" points="2482.03,-687.29 2490.09,-694.16 2488.08,-683.76 2482.03,-687.29"/>
</g>
<!-- dom/baseListDomComponent.js -->
<g id="node9" class="node">
<title>dom/baseListDomComponent.js</title>
<path fill="none" stroke="#c6c5fe" d="M2055.21,-621.25C2055.21,-621.25 1850.04,-621.25 1850.04,-621.25 1845.96,-621.25 1841.88,-617.17 1841.88,-613.08 1841.88,-613.08 1841.88,-604.92 1841.88,-604.92 1841.88,-600.83 1845.96,-596.75 1850.04,-596.75 1850.04,-596.75 2055.21,-596.75 2055.21,-596.75 2059.29,-596.75 2063.38,-600.83 2063.38,-604.92 2063.38,-604.92 2063.38,-613.08 2063.38,-613.08 2063.38,-617.17 2059.29,-621.25 2055.21,-621.25"/>
<text text-anchor="middle" x="1952.62" y="-603.95" font-family="Arial" font-size="14.00" fill="#c6c5fe">dom/baseListDomComponent.js</text>
</g>
<!-- dom/baseListDomComponent.js&#45;&gt;../js&#45;utilities/commonDomComponents.js -->
<g id="edge9" class="edge">
<title>dom/baseListDomComponent.js&#45;&gt;../js&#45;utilities/commonDomComponents.js</title>
<path fill="none" stroke="#757575" d="M2011.67,-621.69C2040.21,-627.89 2075.14,-635.42 2106.5,-642 2204.49,-662.56 2240.94,-636.24 2327.25,-687 2348.44,-699.46 2347.01,-710.54 2363.25,-729 2403.75,-775.04 2452.12,-828.18 2478.4,-856.91"/>
<polygon fill="#757575" stroke="#757575" points="2475.77,-859.22 2485.1,-864.23 2480.93,-854.49 2475.77,-859.22"/>
</g>
<!-- dom/baseListDomComponent.js&#45;&gt;../js&#45;utilities/fontAwesomeUtilities.js -->
<g id="edge11" class="edge">
<title>dom/baseListDomComponent.js&#45;&gt;../js&#45;utilities/fontAwesomeUtilities.js</title>
<path fill="none" stroke="#757575" d="M2063.69,-605.2C2138.18,-603.55 2238.74,-603.16 2327.25,-609 2459.17,-617.71 2611,-640.33 2702.96,-655.44"/>
<polygon fill="#757575" stroke="#757575" points="2702.22,-658.87 2712.65,-657.05 2703.36,-651.96 2702.22,-658.87"/>
</g>
<!-- dom/baseListDomComponent.js&#45;&gt;../js&#45;utilities/commonDomUtilities.js -->
<g id="edge10" class="edge">
<title>dom/baseListDomComponent.js&#45;&gt;../js&#45;utilities/commonDomUtilities.js</title>
<path fill="none" stroke="#757575" d="M1964,-596.38C1986.77,-569.58 2044.09,-506.93 2106.5,-476 2189.01,-435.11 2291.16,-414.85 2370.39,-404.81"/>
<polygon fill="#757575" stroke="#757575" points="2370.41,-408.34 2379.91,-403.65 2369.56,-401.39 2370.41,-408.34"/>
</g>
<!-- dom/baseListDomComponent.js&#45;&gt;dom/baseDomComponent.js -->
<g id="edge12" class="edge">
<title>dom/baseListDomComponent.js&#45;&gt;dom/baseDomComponent.js</title>
<path fill="none" stroke="#757575" d="M1983.3,-621.64C2013.95,-634.56 2063.28,-654.94 2106.5,-671 2125.65,-678.12 2146.89,-685.43 2165.52,-691.66"/>
<polygon fill="#757575" stroke="#757575" points="2164.41,-694.98 2175.01,-694.81 2166.62,-688.34 2164.41,-694.98"/>
</g>
<!-- dom/baseListDomComponent.js&#45;&gt;dom/uiIcons.js -->
<g id="edge13" class="edge">
<title>dom/baseListDomComponent.js&#45;&gt;dom/uiIcons.js</title>
<path fill="none" stroke="#757575" d="M2063.59,-611.13C2138.69,-614.49 2240,-622.8 2327.25,-643 2374.87,-654.02 2427.03,-675.37 2460.95,-690.6"/>
<polygon fill="#757575" stroke="#757575" points="2459.37,-693.72 2469.92,-694.67 2462.27,-687.35 2459.37,-693.72"/>
</g>
<!-- dom/domStructure.js -->
<g id="node10" class="node">
<title>dom/domStructure.js</title>
<path fill="none" stroke="#c6c5fe" d="M293.83,-310.25C293.83,-310.25 162.17,-310.25 162.17,-310.25 158.08,-310.25 154,-306.17 154,-302.08 154,-302.08 154,-293.92 154,-293.92 154,-289.83 158.08,-285.75 162.17,-285.75 162.17,-285.75 293.83,-285.75 293.83,-285.75 297.92,-285.75 302,-289.83 302,-293.92 302,-293.92 302,-302.08 302,-302.08 302,-306.17 297.92,-310.25 293.83,-310.25"/>
<text text-anchor="middle" x="228" y="-292.95" font-family="Arial" font-size="14.00" fill="#c6c5fe">dom/domStructure.js</text>
</g>
<!-- dom/domStructure.js&#45;&gt;../js&#45;utilities/creditFooter.js -->
<g id="edge14" class="edge">
<title>dom/domStructure.js&#45;&gt;../js&#45;utilities/creditFooter.js</title>
<path fill="none" stroke="#757575" d="M246.94,-285.45C268.98,-270.8 308.07,-247.27 345.5,-237 442.72,-210.32 558.37,-207.37 639.18,-209.68"/>
<polygon fill="#757575" stroke="#757575" points="638.72,-213.17 648.83,-209.99 638.95,-206.17 638.72,-213.17"/>
</g>
<!-- dom/headerDomComponent.js -->
<g id="node11" class="node">
<title>dom/headerDomComponent.js</title>
<path fill="none" stroke="#c6c5fe" d="M565.58,-793.25C565.58,-793.25 370.17,-793.25 370.17,-793.25 366.08,-793.25 362,-789.17 362,-785.08 362,-785.08 362,-776.92 362,-776.92 362,-772.83 366.08,-768.75 370.17,-768.75 370.17,-768.75 565.58,-768.75 565.58,-768.75 569.67,-768.75 573.75,-772.83 573.75,-776.92 573.75,-776.92 573.75,-785.08 573.75,-785.08 573.75,-789.17 569.67,-793.25 565.58,-793.25"/>
<text text-anchor="middle" x="467.88" y="-775.95" font-family="Arial" font-size="14.00" fill="#c6c5fe">dom/headerDomComponent.js</text>
</g>
<!-- dom/domStructure.js&#45;&gt;dom/headerDomComponent.js -->
<g id="edge15" class="edge">
<title>dom/domStructure.js&#45;&gt;dom/headerDomComponent.js</title>
<path fill="none" stroke="#757575" d="M235.12,-310.42C266.96,-375.08 413.85,-673.33 455.71,-758.33"/>
<polygon fill="#757575" stroke="#757575" points="452.57,-759.87 460.13,-767.3 458.85,-756.78 452.57,-759.87"/>
</g>
<!-- dom/mainDomComponent.js -->
<g id="node12" class="node">
<title>dom/mainDomComponent.js</title>
<path fill="none" stroke="#c6c5fe" d="M558.46,-409.25C558.46,-409.25 377.29,-409.25 377.29,-409.25 373.21,-409.25 369.12,-405.17 369.12,-401.08 369.12,-401.08 369.12,-392.92 369.12,-392.92 369.12,-388.83 373.21,-384.75 377.29,-384.75 377.29,-384.75 558.46,-384.75 558.46,-384.75 562.54,-384.75 566.62,-388.83 566.62,-392.92 566.62,-392.92 566.62,-401.08 566.62,-401.08 566.62,-405.17 562.54,-409.25 558.46,-409.25"/>
<text text-anchor="middle" x="467.88" y="-391.95" font-family="Arial" font-size="14.00" fill="#c6c5fe">dom/mainDomComponent.js</text>
</g>
<!-- dom/domStructure.js&#45;&gt;dom/mainDomComponent.js -->
<g id="edge16" class="edge">
<title>dom/domStructure.js&#45;&gt;dom/mainDomComponent.js</title>
<path fill="none" stroke="#757575" d="M254.65,-310.6C278.09,-321.94 313.81,-338.8 345.5,-352 369.66,-362.06 396.95,-372.28 419.53,-380.43"/>
<polygon fill="#757575" stroke="#757575" points="418.18,-383.66 428.78,-383.74 420.54,-377.07 418.18,-383.66"/>
</g>
<!-- dom/noteFormDomComponent.js -->
<g id="node13" class="node">
<title>dom/noteFormDomComponent.js</title>
<path fill="none" stroke="#c6c5fe" d="M847.08,-310.25C847.08,-310.25 634.42,-310.25 634.42,-310.25 630.33,-310.25 626.25,-306.17 626.25,-302.08 626.25,-302.08 626.25,-293.92 626.25,-293.92 626.25,-289.83 630.33,-285.75 634.42,-285.75 634.42,-285.75 847.08,-285.75 847.08,-285.75 851.17,-285.75 855.25,-289.83 855.25,-293.92 855.25,-293.92 855.25,-302.08 855.25,-302.08 855.25,-306.17 851.17,-310.25 847.08,-310.25"/>
<text text-anchor="middle" x="740.75" y="-292.95" font-family="Arial" font-size="14.00" fill="#c6c5fe">dom/noteFormDomComponent.js</text>
</g>
<!-- dom/domStructure.js&#45;&gt;dom/noteFormDomComponent.js -->
<g id="edge17" class="edge">
<title>dom/domStructure.js&#45;&gt;dom/noteFormDomComponent.js</title>
<path fill="none" stroke="#757575" d="M302.45,-298C383.84,-298 516.49,-298 614.39,-298"/>
<polygon fill="#757575" stroke="#757575" points="614.34,-301.5 624.34,-298 614.34,-294.5 614.34,-301.5"/>
</g>
<!-- dom/projectFormDomComponent.js -->
<g id="node14" class="node">
<title>dom/projectFormDomComponent.js</title>
<path fill="none" stroke="#c6c5fe" d="M582.08,-270.25C582.08,-270.25 353.67,-270.25 353.67,-270.25 349.58,-270.25 345.5,-266.17 345.5,-262.08 345.5,-262.08 345.5,-253.92 345.5,-253.92 345.5,-249.83 349.58,-245.75 353.67,-245.75 353.67,-245.75 582.08,-245.75 582.08,-245.75 586.17,-245.75 590.25,-249.83 590.25,-253.92 590.25,-253.92 590.25,-262.08 590.25,-262.08 590.25,-266.17 586.17,-270.25 582.08,-270.25"/>
<text text-anchor="middle" x="467.88" y="-252.95" font-family="Arial" font-size="14.00" fill="#c6c5fe">dom/projectFormDomComponent.js</text>
</g>
<!-- dom/domStructure.js&#45;&gt;dom/projectFormDomComponent.js -->
<g id="edge18" class="edge">
<title>dom/domStructure.js&#45;&gt;dom/projectFormDomComponent.js</title>
<path fill="none" stroke="#757575" d="M302.31,-285.67C326.93,-281.53 354.61,-276.88 380.16,-272.58"/>
<polygon fill="#757575" stroke="#757575" points="380.57,-276.06 389.85,-270.95 379.41,-269.16 380.57,-276.06"/>
</g>
<!-- dom/todoFormDomComponent.js -->
<g id="node15" class="node">
<title>dom/todoFormDomComponent.js</title>
<path fill="none" stroke="#c6c5fe" d="M1127.83,-350.25C1127.83,-350.25 914.42,-350.25 914.42,-350.25 910.33,-350.25 906.25,-346.17 906.25,-342.08 906.25,-342.08 906.25,-333.92 906.25,-333.92 906.25,-329.83 910.33,-325.75 914.42,-325.75 914.42,-325.75 1127.83,-325.75 1127.83,-325.75 1131.92,-325.75 1136,-329.83 1136,-333.92 1136,-333.92 1136,-342.08 1136,-342.08 1136,-346.17 1131.92,-350.25 1127.83,-350.25"/>
<text text-anchor="middle" x="1021.12" y="-332.95" font-family="Arial" font-size="14.00" fill="#c6c5fe">dom/todoFormDomComponent.js</text>
</g>
<!-- dom/domStructure.js&#45;&gt;dom/todoFormDomComponent.js -->
<g id="edge19" class="edge">
<title>dom/domStructure.js&#45;&gt;dom/todoFormDomComponent.js</title>
<path fill="none" stroke="#757575" d="M302.24,-307.72C316.57,-309.36 331.49,-310.89 345.5,-312 536.71,-327.15 759.14,-333.55 894.74,-336.2"/>
<polygon fill="#757575" stroke="#757575" points="894.39,-339.7 904.45,-336.39 894.52,-332.7 894.39,-339.7"/>
</g>
<!-- dom/navDomComponent.js -->
<g id="node27" class="node">
<title>dom/navDomComponent.js</title>
<path fill="none" stroke="#c6c5fe" d="M2303.33,-1137.25C2303.33,-1137.25 2130.42,-1137.25 2130.42,-1137.25 2126.33,-1137.25 2122.25,-1133.17 2122.25,-1129.08 2122.25,-1129.08 2122.25,-1120.92 2122.25,-1120.92 2122.25,-1116.83 2126.33,-1112.75 2130.42,-1112.75 2130.42,-1112.75 2303.33,-1112.75 2303.33,-1112.75 2307.42,-1112.75 2311.5,-1116.83 2311.5,-1120.92 2311.5,-1120.92 2311.5,-1129.08 2311.5,-1129.08 2311.5,-1133.17 2307.42,-1137.25 2303.33,-1137.25"/>
<text text-anchor="middle" x="2216.88" y="-1119.95" font-family="Arial" font-size="14.00" fill="#c6c5fe">dom/navDomComponent.js</text>
</g>
<!-- dom/headerDomComponent.js&#45;&gt;dom/navDomComponent.js -->
<g id="edge30" class="edge">
<title>dom/headerDomComponent.js&#45;&gt;dom/navDomComponent.js</title>
<path fill="none" stroke="#757575" d="M478.98,-793.61C529.76,-855.5 764.82,-1124 1020.12,-1124 1020.12,-1124 1020.12,-1124 1683,-1124 1831.4,-1124 2003.04,-1124.39 2110.53,-1124.69"/>
<polygon fill="#757575" stroke="#757575" points="2110.5,-1128.19 2120.51,-1124.71 2110.52,-1121.19 2110.5,-1128.19"/>
</g>
<!-- dom/mainDomComponent.js&#45;&gt;../js&#45;utilities/commonDomUtilities.js -->
<g id="edge36" class="edge">
<title>dom/mainDomComponent.js&#45;&gt;../js&#45;utilities/commonDomUtilities.js</title>
<path fill="none" stroke="#757575" d="M567.07,-396.9C901.24,-396.57 1994.33,-395.5 2369.78,-395.13"/>
<polygon fill="#757575" stroke="#757575" points="2369.7,-398.63 2379.7,-395.12 2369.7,-391.63 2369.7,-398.63"/>
</g>
<!-- dom/fixCircularDependenciesInDomComponents.js -->
<g id="node16" class="node">
<title>dom/fixCircularDependenciesInDomComponents.js</title>
<path fill="none" stroke="#ff6c60" d="M1521.08,-714.25C1521.08,-714.25 1195.17,-714.25 1195.17,-714.25 1191.08,-714.25 1187,-710.17 1187,-706.08 1187,-706.08 1187,-697.92 1187,-697.92 1187,-693.83 1191.08,-689.75 1195.17,-689.75 1195.17,-689.75 1521.08,-689.75 1521.08,-689.75 1525.17,-689.75 1529.25,-693.83 1529.25,-697.92 1529.25,-697.92 1529.25,-706.08 1529.25,-706.08 1529.25,-710.17 1525.17,-714.25 1521.08,-714.25"/>
<text text-anchor="middle" x="1358.12" y="-696.95" font-family="Arial" font-size="14.00" fill="#ff6c60">dom/fixCircularDependenciesInDomComponents.js</text>
</g>
<!-- dom/mainDomComponent.js&#45;&gt;dom/fixCircularDependenciesInDomComponents.js -->
<g id="edge37" class="edge">
<title>dom/mainDomComponent.js&#45;&gt;dom/fixCircularDependenciesInDomComponents.js</title>
<path fill="none" stroke="#757575" d="M505.91,-409.72C647.15,-458.22 1151.94,-631.55 1309.68,-685.71"/>
<polygon fill="#757575" stroke="#757575" points="1308.4,-688.97 1318.99,-688.91 1310.67,-682.35 1308.4,-688.97"/>
</g>
<!-- dom/homeDomComponent.js -->
<g id="node28" class="node">
<title>dom/homeDomComponent.js</title>
<path fill="none" stroke="#c6c5fe" d="M834.33,-694.25C834.33,-694.25 647.17,-694.25 647.17,-694.25 643.08,-694.25 639,-690.17 639,-686.08 639,-686.08 639,-677.92 639,-677.92 639,-673.83 643.08,-669.75 647.17,-669.75 647.17,-669.75 834.33,-669.75 834.33,-669.75 838.42,-669.75 842.5,-673.83 842.5,-677.92 842.5,-677.92 842.5,-686.08 842.5,-686.08 842.5,-690.17 838.42,-694.25 834.33,-694.25"/>
<text text-anchor="middle" x="740.75" y="-676.95" font-family="Arial" font-size="14.00" fill="#c6c5fe">dom/homeDomComponent.js</text>
</g>
<!-- dom/mainDomComponent.js&#45;&gt;dom/homeDomComponent.js -->
<g id="edge38" class="edge">
<title>dom/mainDomComponent.js&#45;&gt;dom/homeDomComponent.js</title>
<path fill="none" stroke="#757575" d="M480.86,-409.61C523.43,-454.4 667.57,-606.06 720.26,-661.49"/>
<polygon fill="#757575" stroke="#757575" points="717.43,-663.6 726.86,-668.43 722.5,-658.78 717.43,-663.6"/>
</g>
<!-- dom/noteFormDomComponent.js&#45;&gt;dom/baseFormDomComponent.js -->
<g id="edge45" class="edge">
<title>dom/noteFormDomComponent.js&#45;&gt;dom/baseFormDomComponent.js</title>
<path fill="none" stroke="#757575" d="M855.64,-301.6C937.8,-304.61 1051.34,-309.62 1151,-317 1177.21,-318.94 1205.25,-321.49 1231.94,-324.13"/>
<polygon fill="#757575" stroke="#757575" points="1231.48,-327.6 1241.78,-325.12 1232.18,-320.64 1231.48,-327.6"/>
</g>
<!-- dom/projectFormDomComponent.js&#45;&gt;dom/baseFormDomComponent.js -->
<g id="edge55" class="edge">
<title>dom/projectFormDomComponent.js&#45;&gt;dom/baseFormDomComponent.js</title>
<path fill="none" stroke="#757575" d="M590.74,-260.14C727.58,-263.75 956.03,-273.39 1151,-299 1197.11,-305.06 1248.51,-314.78 1288.44,-323"/>
<polygon fill="#757575" stroke="#757575" points="1287.67,-326.41 1298.17,-325.02 1289.09,-319.56 1287.67,-326.41"/>
</g>
<!-- dom/todoFormDomComponent.js&#45;&gt;../js&#45;utilities/commonDomComponents.js -->
<g id="edge65" class="edge">
<title>dom/todoFormDomComponent.js&#45;&gt;../js&#45;utilities/commonDomComponents.js</title>
<path fill="none" stroke="#757575" d="M1024.76,-350.7C1036,-402.32 1084.12,-599.56 1187,-723 1349.42,-917.89 1427.3,-1009 1681,-1009 1681,-1009 1681,-1009 1953.62,-1009 2121.81,-1009 2165.47,-994.98 2327.25,-949 2375.54,-935.28 2428.53,-911.78 2462.41,-895.6"/>
<polygon fill="#757575" stroke="#757575" points="2463.87,-898.79 2471.35,-891.29 2460.82,-892.49 2463.87,-898.79"/>
</g>
<!-- dom/todoFormDomComponent.js&#45;&gt;dom/baseFormDomComponent.js -->
<g id="edge66" class="edge">
<title>dom/todoFormDomComponent.js&#45;&gt;dom/baseFormDomComponent.js</title>
<path fill="none" stroke="#757575" d="M1136.48,-338C1166.61,-338 1199.3,-338 1230.06,-338"/>
<polygon fill="#757575" stroke="#757575" points="1229.78,-341.5 1239.78,-338 1229.78,-334.5 1229.78,-341.5"/>
</g>
<!-- dom/todoFormDomComponent.js&#45;&gt;dom/fixCircularDependenciesInDomComponents.js -->
<g id="edge67" class="edge">
<title>dom/todoFormDomComponent.js&#45;&gt;dom/fixCircularDependenciesInDomComponents.js</title>
<path fill="none" stroke="#757575" d="M1047.8,-350.63C1075.3,-364.97 1119.27,-390.25 1151,-420 1239.62,-503.08 1315.75,-628.79 1344.68,-679.56"/>
<polygon fill="#757575" stroke="#757575" points="1341.57,-681.17 1349.53,-688.16 1347.67,-677.73 1341.57,-681.17"/>
</g>
<!-- logic/fixCircularDependenciesInComponents.js -->
<g id="node30" class="node">
<title>logic/fixCircularDependenciesInComponents.js</title>
<path fill="none" stroke="#ff6c60" d="M1506.46,-183.25C1506.46,-183.25 1209.79,-183.25 1209.79,-183.25 1205.71,-183.25 1201.62,-179.17 1201.62,-175.08 1201.62,-175.08 1201.62,-166.92 1201.62,-166.92 1201.62,-162.83 1205.71,-158.75 1209.79,-158.75 1209.79,-158.75 1506.46,-158.75 1506.46,-158.75 1510.54,-158.75 1514.62,-162.83 1514.62,-166.92 1514.62,-166.92 1514.62,-175.08 1514.62,-175.08 1514.62,-179.17 1510.54,-183.25 1506.46,-183.25"/>
<text text-anchor="middle" x="1358.12" y="-165.95" font-family="Arial" font-size="14.00" fill="#ff6c60">logic/fixCircularDependenciesInComponents.js</text>
</g>
<!-- dom/todoFormDomComponent.js&#45;&gt;logic/fixCircularDependenciesInComponents.js -->
<g id="edge68" class="edge">
<title>dom/todoFormDomComponent.js&#45;&gt;logic/fixCircularDependenciesInComponents.js</title>
<path fill="none" stroke="#757575" d="M1047.58,-325.31C1106.71,-295.83 1253.5,-222.66 1321.5,-188.76"/>
<polygon fill="#757575" stroke="#757575" points="1322.97,-191.94 1330.35,-184.35 1319.84,-185.67 1322.97,-191.94"/>
</g>
<!-- dom/listInDomComponentMixin.js -->
<g id="node17" class="node">
<title>dom/listInDomComponentMixin.js</title>
<path fill="none" stroke="#ff6c60" d="M1787.96,-671.25C1787.96,-671.25 1576.04,-671.25 1576.04,-671.25 1571.96,-671.25 1567.88,-667.17 1567.88,-663.08 1567.88,-663.08 1567.88,-654.92 1567.88,-654.92 1567.88,-650.83 1571.96,-646.75 1576.04,-646.75 1576.04,-646.75 1787.96,-646.75 1787.96,-646.75 1792.04,-646.75 1796.12,-650.83 1796.12,-654.92 1796.12,-654.92 1796.12,-663.08 1796.12,-663.08 1796.12,-667.17 1792.04,-671.25 1787.96,-671.25"/>
<text text-anchor="middle" x="1682" y="-653.95" font-family="Arial" font-size="14.00" fill="#ff6c60">dom/listInDomComponentMixin.js</text>
</g>
<!-- dom/fixCircularDependenciesInDomComponents.js&#45;&gt;dom/listInDomComponentMixin.js -->
<g id="edge20" class="edge">
<title>dom/fixCircularDependenciesInDomComponents.js&#45;&gt;dom/listInDomComponentMixin.js</title>
<path fill="none" stroke="#757575" d="M1414.82,-689.3C1453.8,-682.78 1507.45,-675.17 1556.37,-669.06"/>
<polygon fill="#757575" stroke="#757575" points="1556.71,-672.54 1566.2,-667.84 1555.85,-665.59 1556.71,-672.54"/>
</g>
<!-- dom/noteDomComponent.js -->
<g id="node18" class="node">
<title>dom/noteDomComponent.js</title>
<path fill="none" stroke="#ff6c60" d="M1771.46,-757.25C1771.46,-757.25 1592.54,-757.25 1592.54,-757.25 1588.46,-757.25 1584.38,-753.17 1584.38,-749.08 1584.38,-749.08 1584.38,-740.92 1584.38,-740.92 1584.38,-736.83 1588.46,-732.75 1592.54,-732.75 1592.54,-732.75 1771.46,-732.75 1771.46,-732.75 1775.54,-732.75 1779.62,-736.83 1779.62,-740.92 1779.62,-740.92 1779.62,-749.08 1779.62,-749.08 1779.62,-753.17 1775.54,-757.25 1771.46,-757.25"/>
<text text-anchor="middle" x="1682" y="-739.95" font-family="Arial" font-size="14.00" fill="#ff6c60">dom/noteDomComponent.js</text>
</g>
<!-- dom/fixCircularDependenciesInDomComponents.js&#45;&gt;dom/noteDomComponent.js -->
<g id="edge21" class="edge">
<title>dom/fixCircularDependenciesInDomComponents.js&#45;&gt;dom/noteDomComponent.js</title>
<path fill="none" stroke="#757575" d="M1504.52,-714.7C1542.83,-719.68 1582.31,-725.33 1614.19,-730.48"/>
<polygon fill="#757575" stroke="#757575" points="1613.21,-733.86 1623.65,-732.03 1614.35,-726.96 1613.21,-733.86"/>
</g>
<!-- dom/noteDomMiniComponent.js -->
<g id="node19" class="node">
<title>dom/noteDomMiniComponent.js</title>
<path fill="none" stroke="#ff6c60" d="M2318.71,-912.25C2318.71,-912.25 2115.04,-912.25 2115.04,-912.25 2110.96,-912.25 2106.88,-908.17 2106.88,-904.08 2106.88,-904.08 2106.88,-895.92 2106.88,-895.92 2106.88,-891.83 2110.96,-887.75 2115.04,-887.75 2115.04,-887.75 2318.71,-887.75 2318.71,-887.75 2322.79,-887.75 2326.88,-891.83 2326.88,-895.92 2326.88,-895.92 2326.88,-904.08 2326.88,-904.08 2326.88,-908.17 2322.79,-912.25 2318.71,-912.25"/>
<text text-anchor="middle" x="2216.88" y="-894.95" font-family="Arial" font-size="14.00" fill="#ff6c60">dom/noteDomMiniComponent.js</text>
</g>
<!-- dom/fixCircularDependenciesInDomComponents.js&#45;&gt;dom/noteDomMiniComponent.js -->
<g id="edge22" class="edge">
<title>dom/fixCircularDependenciesInDomComponents.js&#45;&gt;dom/noteDomMiniComponent.js</title>
<path fill="none" stroke="#757575" d="M1378.3,-714.68C1412.69,-742.22 1488.43,-805.49 1565.25,-834 1740.98,-899.22 1961.05,-903.98 2094.92,-901.59"/>
<polygon fill="#757575" stroke="#757575" points="2094.96,-905.09 2104.89,-901.39 2094.83,-898.09 2094.96,-905.09"/>
</g>
<!-- dom/noteListDomComponent.js -->
<g id="node20" class="node">
<title>dom/noteListDomComponent.js</title>
<path fill="none" stroke="#ff6c60" d="M1782.71,-628.25C1782.71,-628.25 1581.29,-628.25 1581.29,-628.25 1577.21,-628.25 1573.12,-624.17 1573.12,-620.08 1573.12,-620.08 1573.12,-611.92 1573.12,-611.92 1573.12,-607.83 1577.21,-603.75 1581.29,-603.75 1581.29,-603.75 1782.71,-603.75 1782.71,-603.75 1786.79,-603.75 1790.88,-607.83 1790.88,-611.92 1790.88,-611.92 1790.88,-620.08 1790.88,-620.08 1790.88,-624.17 1786.79,-628.25 1782.71,-628.25"/>
<text text-anchor="middle" x="1682" y="-610.95" font-family="Arial" font-size="14.00" fill="#ff6c60">dom/noteListDomComponent.js</text>
</g>
<!-- dom/fixCircularDependenciesInDomComponents.js&#45;&gt;dom/noteListDomComponent.js -->
<g id="edge23" class="edge">
<title>dom/fixCircularDependenciesInDomComponents.js&#45;&gt;dom/noteListDomComponent.js</title>
<path fill="none" stroke="#757575" d="M1379.97,-689.29C1415.2,-673.63 1489.17,-648.62 1562.04,-629.89"/>
<polygon fill="#757575" stroke="#757575" points="1562.48,-633.39 1571.32,-627.54 1560.76,-626.6 1562.48,-633.39"/>
</g>
<!-- dom/projectDomComponent.js -->
<g id="node21" class="node">
<title>dom/projectDomComponent.js</title>
<path fill="none" stroke="#ff6c60" d="M1779.33,-714.25C1779.33,-714.25 1584.67,-714.25 1584.67,-714.25 1580.58,-714.25 1576.5,-710.17 1576.5,-706.08 1576.5,-706.08 1576.5,-697.92 1576.5,-697.92 1576.5,-693.83 1580.58,-689.75 1584.67,-689.75 1584.67,-689.75 1779.33,-689.75 1779.33,-689.75 1783.42,-689.75 1787.5,-693.83 1787.5,-697.92 1787.5,-697.92 1787.5,-706.08 1787.5,-706.08 1787.5,-710.17 1783.42,-714.25 1779.33,-714.25"/>
<text text-anchor="middle" x="1682" y="-696.95" font-family="Arial" font-size="14.00" fill="#ff6c60">dom/projectDomComponent.js</text>
</g>
<!-- dom/fixCircularDependenciesInDomComponents.js&#45;&gt;dom/projectDomComponent.js -->
<g id="edge24" class="edge">
<title>dom/fixCircularDependenciesInDomComponents.js&#45;&gt;dom/projectDomComponent.js</title>
<path fill="none" stroke="#757575" d="M1529.49,-695.26C1541.36,-695.29 1553.17,-695.36 1564.65,-695.49"/>
<polygon fill="#757575" stroke="#757575" points="1564.45,-698.98 1574.49,-695.61 1564.54,-691.98 1564.45,-698.98"/>
</g>
<!-- dom/projectDomMiniComponent.js -->
<g id="node22" class="node">
<title>dom/projectDomMiniComponent.js</title>
<path fill="none" stroke="#ff6c60" d="M2062.33,-806.25C2062.33,-806.25 1842.92,-806.25 1842.92,-806.25 1838.83,-806.25 1834.75,-802.17 1834.75,-798.08 1834.75,-798.08 1834.75,-789.92 1834.75,-789.92 1834.75,-785.83 1838.83,-781.75 1842.92,-781.75 1842.92,-781.75 2062.33,-781.75 2062.33,-781.75 2066.42,-781.75 2070.5,-785.83 2070.5,-789.92 2070.5,-789.92 2070.5,-798.08 2070.5,-798.08 2070.5,-802.17 2066.42,-806.25 2062.33,-806.25"/>
<text text-anchor="middle" x="1952.62" y="-788.95" font-family="Arial" font-size="14.00" fill="#ff6c60">dom/projectDomMiniComponent.js</text>
</g>
<!-- dom/fixCircularDependenciesInDomComponents.js&#45;&gt;dom/projectDomMiniComponent.js -->
<g id="edge25" class="edge">
<title>dom/fixCircularDependenciesInDomComponents.js&#45;&gt;dom/projectDomMiniComponent.js</title>
<path fill="none" stroke="#757575" d="M1412.09,-714.75C1453.23,-727.85 1512.05,-746.95 1565.25,-757 1650.27,-773.06 1747.41,-780.05 1823.02,-784.17"/>
<polygon fill="#757575" stroke="#757575" points="1822.81,-787.66 1832.98,-784.7 1823.18,-780.67 1822.81,-787.66"/>
</g>
<!-- dom/projectListDomComponent.js -->
<g id="node23" class="node">
<title>dom/projectListDomComponent.js</title>
<path fill="none" stroke="#ff6c60" d="M1790.58,-542.25C1790.58,-542.25 1573.42,-542.25 1573.42,-542.25 1569.33,-542.25 1565.25,-538.17 1565.25,-534.08 1565.25,-534.08 1565.25,-525.92 1565.25,-525.92 1565.25,-521.83 1569.33,-517.75 1573.42,-517.75 1573.42,-517.75 1790.58,-517.75 1790.58,-517.75 1794.67,-517.75 1798.75,-521.83 1798.75,-525.92 1798.75,-525.92 1798.75,-534.08 1798.75,-534.08 1798.75,-538.17 1794.67,-542.25 1790.58,-542.25"/>
<text text-anchor="middle" x="1682" y="-524.95" font-family="Arial" font-size="14.00" fill="#ff6c60">dom/projectListDomComponent.js</text>
</g>
<!-- dom/fixCircularDependenciesInDomComponents.js&#45;&gt;dom/projectListDomComponent.js -->
<g id="edge26" class="edge">
<title>dom/fixCircularDependenciesInDomComponents.js&#45;&gt;dom/projectListDomComponent.js</title>
<path fill="none" stroke="#757575" d="M1367.67,-689.64C1393.23,-659.92 1472.44,-586.47 1555.67,-547.35"/>
<polygon fill="#757575" stroke="#757575" points="1557.04,-550.56 1564.72,-543.26 1554.16,-544.19 1557.04,-550.56"/>
</g>
<!-- dom/todoDomComponent.js -->
<g id="node24" class="node">
<title>dom/todoDomComponent.js</title>
<path fill="none" stroke="#ff6c60" d="M2042.46,-974.25C2042.46,-974.25 1862.79,-974.25 1862.79,-974.25 1858.71,-974.25 1854.62,-970.17 1854.62,-966.08 1854.62,-966.08 1854.62,-957.92 1854.62,-957.92 1854.62,-953.83 1858.71,-949.75 1862.79,-949.75 1862.79,-949.75 2042.46,-949.75 2042.46,-949.75 2046.54,-949.75 2050.62,-953.83 2050.62,-957.92 2050.62,-957.92 2050.62,-966.08 2050.62,-966.08 2050.62,-970.17 2046.54,-974.25 2042.46,-974.25"/>
<text text-anchor="middle" x="1952.62" y="-956.95" font-family="Arial" font-size="14.00" fill="#ff6c60">dom/todoDomComponent.js</text>
</g>
<!-- dom/fixCircularDependenciesInDomComponents.js&#45;&gt;dom/todoDomComponent.js -->
<g id="edge27" class="edge">
<title>dom/fixCircularDependenciesInDomComponents.js&#45;&gt;dom/todoDomComponent.js</title>
<path fill="none" stroke="#757575" d="M1368.39,-714.72C1393.38,-754.02 1466.96,-871.38 1565.25,-920 1651.7,-962.76 1762.39,-968 1843.12,-965.9"/>
<polygon fill="#757575" stroke="#757575" points="1842.91,-969.4 1852.8,-965.6 1842.69,-962.41 1842.91,-969.4"/>
</g>
<!-- dom/todoDomMiniComponent.js -->
<g id="node25" class="node">
<title>dom/todoDomMiniComponent.js</title>
<path fill="none" stroke="#ff6c60" d="M2319.08,-862.25C2319.08,-862.25 2114.67,-862.25 2114.67,-862.25 2110.58,-862.25 2106.5,-858.17 2106.5,-854.08 2106.5,-854.08 2106.5,-845.92 2106.5,-845.92 2106.5,-841.83 2110.58,-837.75 2114.67,-837.75 2114.67,-837.75 2319.08,-837.75 2319.08,-837.75 2323.17,-837.75 2327.25,-841.83 2327.25,-845.92 2327.25,-845.92 2327.25,-854.08 2327.25,-854.08 2327.25,-858.17 2323.17,-862.25 2319.08,-862.25"/>
<text text-anchor="middle" x="2216.88" y="-844.95" font-family="Arial" font-size="14.00" fill="#ff6c60">dom/todoDomMiniComponent.js</text>
</g>
<!-- dom/fixCircularDependenciesInDomComponents.js&#45;&gt;dom/todoDomMiniComponent.js -->
<g id="edge28" class="edge">
<title>dom/fixCircularDependenciesInDomComponents.js&#45;&gt;dom/todoDomMiniComponent.js</title>
<path fill="none" stroke="#757575" d="M1389.16,-714.65C1428.1,-735.28 1498.9,-774.25 1565.25,-792 1745.21,-840.15 1962.46,-846.66 2094.82,-847.54"/>
<polygon fill="#757575" stroke="#757575" points="2094.64,-851.04 2104.66,-847.6 2094.68,-844.04 2094.64,-851.04"/>
</g>
<!-- dom/todoListDomComponent.js -->
<g id="node26" class="node">
<title>dom/todoListDomComponent.js</title>
<path fill="none" stroke="#ff6c60" d="M1783.08,-585.25C1783.08,-585.25 1580.92,-585.25 1580.92,-585.25 1576.83,-585.25 1572.75,-581.17 1572.75,-577.08 1572.75,-577.08 1572.75,-568.92 1572.75,-568.92 1572.75,-564.83 1576.83,-560.75 1580.92,-560.75 1580.92,-560.75 1783.08,-560.75 1783.08,-560.75 1787.17,-560.75 1791.25,-564.83 1791.25,-568.92 1791.25,-568.92 1791.25,-577.08 1791.25,-577.08 1791.25,-581.17 1787.17,-585.25 1783.08,-585.25"/>
<text text-anchor="middle" x="1682" y="-567.95" font-family="Arial" font-size="14.00" fill="#ff6c60">dom/todoListDomComponent.js</text>
</g>
<!-- dom/fixCircularDependenciesInDomComponents.js&#45;&gt;dom/todoListDomComponent.js -->
<g id="edge29" class="edge">
<title>dom/fixCircularDependenciesInDomComponents.js&#45;&gt;dom/todoListDomComponent.js</title>
<path fill="none" stroke="#757575" d="M1371.56,-689.43C1401.5,-665.89 1480.66,-617.13 1561.88,-587.38"/>
<polygon fill="#757575" stroke="#757575" points="1562.64,-590.83 1570.88,-584.18 1560.29,-584.23 1562.64,-590.83"/>
</g>
<!-- dom/listInDomComponentMixin.js&#45;&gt;dom/fixCircularDependenciesInDomComponents.js -->
<g id="edge35" class="edge">
<title>dom/listInDomComponentMixin.js&#45;&gt;dom/fixCircularDependenciesInDomComponents.js</title>
<path fill="none" stroke="#757575" d="M1625.14,-671.72C1594.58,-676.83 1555.04,-682.61 1515.84,-687.81"/>
<polygon fill="#757575" stroke="#757575" points="1515.48,-684.33 1506.03,-689.1 1516.4,-691.27 1515.48,-684.33"/>
</g>
<!-- dom/noteDomComponent.js&#45;&gt;dom/baseDomComponent.js -->
<g id="edge40" class="edge">
<title>dom/noteDomComponent.js&#45;&gt;dom/baseDomComponent.js</title>
<path fill="none" stroke="#757575" d="M1779.76,-738.74C1858.16,-733.61 1971.47,-726.07 2070.5,-719 2081.88,-718.19 2093.77,-717.32 2105.62,-716.44"/>
<polygon fill="#757575" stroke="#757575" points="2105.74,-719.94 2115.45,-715.71 2105.22,-712.96 2105.74,-719.94"/>
</g>
<!-- dom/noteDomComponent.js&#45;&gt;dom/fixCircularDependenciesInDomComponents.js -->
<g id="edge41" class="edge">
<title>dom/noteDomComponent.js&#45;&gt;dom/fixCircularDependenciesInDomComponents.js</title>
<path fill="none" stroke="#757575" d="M1584.07,-738.3C1533.06,-732.32 1471.79,-723.92 1426.09,-716.55"/>
<polygon fill="#757575" stroke="#757575" points="1426.75,-713.11 1416.32,-714.94 1425.62,-720.02 1426.75,-713.11"/>
</g>
<!-- dom/noteDomMiniComponent.js&#45;&gt;../js&#45;utilities/commonDomComponents.js -->
<g id="edge42" class="edge">
<title>dom/noteDomMiniComponent.js&#45;&gt;../js&#45;utilities/commonDomComponents.js</title>
<path fill="none" stroke="#757575" d="M2327.28,-891.4C2335.2,-890.78 2343.26,-890.14 2351.35,-889.51"/>
<polygon fill="#757575" stroke="#757575" points="2351.58,-893 2361.28,-888.73 2351.03,-886.02 2351.58,-893"/>
</g>
<!-- dom/noteDomMiniComponent.js&#45;&gt;dom/uiIcons.js -->
<g id="edge44" class="edge">
<title>dom/noteDomMiniComponent.js&#45;&gt;dom/uiIcons.js</title>
<path fill="none" stroke="#757575" d="M2287.04,-887.31C2300.86,-883.24 2314.91,-877.92 2327.25,-871 2393.86,-833.65 2453.89,-764.23 2481.59,-729.28"/>
<polygon fill="#757575" stroke="#757575" points="2484.2,-731.62 2487.59,-721.58 2478.68,-727.31 2484.2,-731.62"/>
</g>
<!-- dom/noteDomMiniComponent.js&#45;&gt;dom/fixCircularDependenciesInDomComponents.js -->
<g id="edge43" class="edge">
<title>dom/noteDomMiniComponent.js&#45;&gt;dom/fixCircularDependenciesInDomComponents.js</title>
<path fill="none" stroke="#757575" d="M2126.07,-912.74C1997.47,-922.35 1755.4,-922.58 1565.25,-852 1486.52,-822.78 1408.93,-757.06 1375.82,-722.9"/>
<polygon fill="#757575" stroke="#757575" points="1378.45,-720.59 1369.07,-715.66 1373.33,-725.36 1378.45,-720.59"/>
</g>
<!-- dom/noteListDomComponent.js&#45;&gt;dom/baseListDomComponent.js -->
<g id="edge46" class="edge">
<title>dom/noteListDomComponent.js&#45;&gt;dom/baseListDomComponent.js</title>
<path fill="none" stroke="#757575" d="M1791.1,-613.18C1803.95,-612.85 1817.14,-612.5 1830.17,-612.17"/>
<polygon fill="#757575" stroke="#757575" points="1830.14,-615.67 1840.05,-611.91 1829.96,-608.67 1830.14,-615.67"/>
</g>
<!-- dom/noteListDomComponent.js&#45;&gt;dom/fixCircularDependenciesInDomComponents.js -->
<g id="edge47" class="edge">
<title>dom/noteListDomComponent.js&#45;&gt;dom/fixCircularDependenciesInDomComponents.js</title>
<path fill="none" stroke="#757575" d="M1648.36,-628.72C1625.05,-634.14 1593.04,-640.07 1565.25,-647 1519.39,-658.44 1468.68,-674.14 1429.03,-686.06"/>
<polygon fill="#757575" stroke="#757575" points="1428.18,-682.66 1419.6,-688.88 1430.19,-689.36 1428.18,-682.66"/>
</g>
<!-- dom/projectDomComponent.js&#45;&gt;dom/baseDomComponent.js -->
<g id="edge48" class="edge">
<title>dom/projectDomComponent.js&#45;&gt;dom/baseDomComponent.js</title>
<path fill="none" stroke="#757575" d="M1787.96,-703.18C1879.65,-704.21 2012.29,-705.71 2105.54,-706.76"/>
<polygon fill="#757575" stroke="#757575" points="2105.44,-710.26 2115.48,-706.87 2105.52,-703.26 2105.44,-710.26"/>
</g>
<!-- dom/projectDomComponent.js&#45;&gt;dom/fixCircularDependenciesInDomComponents.js -->
<g id="edge49" class="edge">
<title>dom/projectDomComponent.js&#45;&gt;dom/fixCircularDependenciesInDomComponents.js</title>
<path fill="none" stroke="#757575" d="M1576.01,-708.37C1564.66,-708.53 1552.89,-708.64 1540.96,-708.7"/>
<polygon fill="#757575" stroke="#757575" points="1540.99,-705.2 1531,-708.73 1541.01,-712.2 1540.99,-705.2"/>
</g>
<!-- dom/projectDomMiniComponent.js&#45;&gt;../js&#45;utilities/commonDomComponents.js -->
<g id="edge50" class="edge">
<title>dom/projectDomMiniComponent.js&#45;&gt;../js&#45;utilities/commonDomComponents.js</title>
<path fill="none" stroke="#757575" d="M2070.95,-799.37C2144.95,-804.14 2242.27,-812.95 2327.25,-829 2369.58,-836.99 2416.55,-850.88 2450.45,-861.83"/>
<polygon fill="#757575" stroke="#757575" points="2448.95,-865.02 2459.54,-864.8 2451.12,-858.37 2448.95,-865.02"/>
</g>
<!-- dom/projectDomMiniComponent.js&#45;&gt;dom/uiIcons.js -->
<g id="edge52" class="edge">
<title>dom/projectDomMiniComponent.js&#45;&gt;dom/uiIcons.js</title>
<path fill="none" stroke="#757575" d="M2034.21,-781.26C2142.74,-764.11 2333.72,-733.92 2433.28,-718.19"/>
<polygon fill="#757575" stroke="#757575" points="2433.55,-721.69 2442.88,-716.67 2432.46,-714.78 2433.55,-721.69"/>
</g>
<!-- dom/projectDomMiniComponent.js&#45;&gt;dom/fixCircularDependenciesInDomComponents.js -->
<g id="edge51" class="edge">
<title>dom/projectDomMiniComponent.js&#45;&gt;dom/fixCircularDependenciesInDomComponents.js</title>
<path fill="none" stroke="#757575" d="M1834.49,-800.13C1757.41,-798.74 1654.63,-791.88 1565.25,-775 1500.63,-762.79 1427.74,-737.25 1388.28,-719.48"/>
<polygon fill="#757575" stroke="#757575" points="1389.99,-716.42 1379.45,-715.34 1387.02,-722.76 1389.99,-716.42"/>
</g>
<!-- dom/projectListDomComponent.js&#45;&gt;dom/baseListDomComponent.js -->
<g id="edge56" class="edge">
<title>dom/projectListDomComponent.js&#45;&gt;dom/baseListDomComponent.js</title>
<path fill="none" stroke="#757575" d="M1760.01,-542.75C1773.03,-545.44 1786.34,-548.53 1798.75,-552 1837.87,-562.93 1881.13,-579.49 1911.62,-591.96"/>
<polygon fill="#757575" stroke="#757575" points="1910.26,-595.19 1920.84,-595.77 1912.93,-588.72 1910.26,-595.19"/>
</g>
<!-- dom/projectListDomComponent.js&#45;&gt;dom/fixCircularDependenciesInDomComponents.js -->
<g id="edge57" class="edge">
<title>dom/projectListDomComponent.js&#45;&gt;dom/fixCircularDependenciesInDomComponents.js</title>
<path fill="none" stroke="#757575" d="M1632,-542.71C1610.84,-546.6 1586.18,-551.94 1565.25,-561 1493.92,-591.87 1423.45,-650.98 1386.23,-682.15"/>
<polygon fill="#757575" stroke="#757575" points="1384.1,-679.37 1378.67,-688.46 1388.59,-684.74 1384.1,-679.37"/>
</g>
<!-- dom/todoDomComponent.js&#45;&gt;../js&#45;utilities/commonDomComponents.js -->
<g id="edge58" class="edge">
<title>dom/todoDomComponent.js&#45;&gt;../js&#45;utilities/commonDomComponents.js</title>
<path fill="none" stroke="#757575" d="M2050.92,-955.02C2126.63,-948.7 2234.13,-937.77 2327.25,-921 2366.52,-913.93 2410.15,-902.87 2443.44,-893.73"/>
<polygon fill="#757575" stroke="#757575" points="2444.15,-897.17 2452.85,-891.12 2442.28,-890.42 2444.15,-897.17"/>
</g>
<!-- dom/todoDomComponent.js&#45;&gt;../js&#45;utilities/fontAwesomeUtilities.js -->
<g id="edge59" class="edge">
<title>dom/todoDomComponent.js&#45;&gt;../js&#45;utilities/fontAwesomeUtilities.js</title>
<path fill="none" stroke="#757575" d="M1959.25,-974.6C1975.75,-1009.82 2027.92,-1109.13 2106.5,-1146 2195.32,-1187.68 2234.71,-1178.6 2327.25,-1146 2563.49,-1062.76 2730.84,-776.16 2775.34,-692.87"/>
<polygon fill="#757575" stroke="#757575" points="2778.42,-694.53 2779.99,-684.05 2772.23,-691.27 2778.42,-694.53"/>
</g>
<!-- dom/todoDomComponent.js&#45;&gt;dom/baseDomComponent.js -->
<g id="edge60" class="edge">
<title>dom/todoDomComponent.js&#45;&gt;dom/baseDomComponent.js</title>
<path fill="none" stroke="#757575" d="M1966.63,-949.4C2008.84,-908.53 2142.28,-779.28 2194.57,-728.64"/>
<polygon fill="#757575" stroke="#757575" points="2196.96,-731.2 2201.7,-721.72 2192.09,-726.17 2196.96,-731.2"/>
</g>
<!-- dom/todoDomComponent.js&#45;&gt;dom/fixCircularDependenciesInDomComponents.js -->
<g id="edge61" class="edge">
<title>dom/todoDomComponent.js&#45;&gt;dom/fixCircularDependenciesInDomComponents.js</title>
<path fill="none" stroke="#757575" d="M1900.97,-974.71C1824.03,-986.09 1675.08,-992.33 1565.25,-938 1467.88,-889.83 1394.77,-774.22 1369.11,-724.73"/>
<polygon fill="#757575" stroke="#757575" points="1372.38,-723.44 1364.79,-716.05 1366.11,-726.56 1372.38,-723.44"/>
</g>
<!-- dom/todoDomMiniComponent.js&#45;&gt;../js&#45;utilities/commonDomComponents.js -->
<g id="edge62" class="edge">
<title>dom/todoDomMiniComponent.js&#45;&gt;../js&#45;utilities/commonDomComponents.js</title>
<path fill="none" stroke="#757575" d="M2327.69,-860.99C2338.03,-862.02 2348.61,-863.08 2359.18,-864.14"/>
<polygon fill="#757575" stroke="#757575" points="2358.82,-867.62 2369.12,-865.13 2359.52,-860.65 2358.82,-867.62"/>
</g>
<!-- dom/todoDomMiniComponent.js&#45;&gt;dom/uiIcons.js -->
<g id="edge64" class="edge">
<title>dom/todoDomMiniComponent.js&#45;&gt;dom/uiIcons.js</title>
<path fill="none" stroke="#757575" d="M2242.71,-837.4C2292.71,-812.03 2405.61,-754.75 2462.94,-725.66"/>
<polygon fill="#757575" stroke="#757575" points="2464.28,-728.9 2471.62,-721.26 2461.12,-722.66 2464.28,-728.9"/>
</g>
<!-- dom/todoDomMiniComponent.js&#45;&gt;dom/fixCircularDependenciesInDomComponents.js -->
<g id="edge63" class="edge">
<title>dom/todoDomMiniComponent.js&#45;&gt;dom/fixCircularDependenciesInDomComponents.js</title>
<path fill="none" stroke="#757575" d="M2106.18,-860.4C1975.15,-865.01 1750.45,-859.56 1565.25,-810 1493.74,-790.86 1417.04,-747.08 1380.66,-721.23"/>
<polygon fill="#757575" stroke="#757575" points="1382.84,-718.49 1372.72,-715.35 1378.67,-724.11 1382.84,-718.49"/>
</g>
<!-- dom/todoListDomComponent.js&#45;&gt;dom/baseListDomComponent.js -->
<g id="edge69" class="edge">
<title>dom/todoListDomComponent.js&#45;&gt;dom/baseListDomComponent.js</title>
<path fill="none" stroke="#757575" d="M1778.09,-585.74C1799.91,-588.67 1823.24,-591.79 1845.49,-594.78"/>
<polygon fill="#757575" stroke="#757575" points="1844.79,-598.21 1855.17,-596.07 1845.72,-591.28 1844.79,-598.21"/>
</g>
<!-- dom/todoListDomComponent.js&#45;&gt;dom/fixCircularDependenciesInDomComponents.js -->
<g id="edge70" class="edge">
<title>dom/todoListDomComponent.js&#45;&gt;dom/fixCircularDependenciesInDomComponents.js</title>
<path fill="none" stroke="#757575" d="M1640.34,-585.71C1617.8,-590.15 1589.51,-595.6 1565.25,-604 1504.26,-625.12 1438.96,-661.66 1398.58,-683.88"/>
<polygon fill="#757575" stroke="#757575" points="1397.03,-680.73 1389.94,-688.61 1400.4,-686.87 1397.03,-680.73"/>
</g>
<!-- dom/navDomComponent.js&#45;&gt;../js&#45;utilities/commonDomComponents.js -->
<g id="edge39" class="edge">
<title>dom/navDomComponent.js&#45;&gt;../js&#45;utilities/commonDomComponents.js</title>
<path fill="none" stroke="#757575" d="M2299.3,-1112.27C2309.15,-1108.85 2318.72,-1104.51 2327.25,-1099 2406.62,-1047.73 2463.99,-946.36 2486.83,-900.95"/>
<polygon fill="#757575" stroke="#757575" points="2489.95,-902.55 2491.22,-892.03 2483.67,-899.46 2489.95,-902.55"/>
</g>
<!-- dom/homeDomComponent.js&#45;&gt;../js&#45;utilities/commonDomComponents.js -->
<g id="edge31" class="edge">
<title>dom/homeDomComponent.js&#45;&gt;../js&#45;utilities/commonDomComponents.js</title>
<path fill="none" stroke="#757575" d="M752.2,-694.56C797.54,-748.1 984.05,-958.92 1187,-1054 1256.6,-1086.61 1280.27,-1085 1357.12,-1085 1357.12,-1085 1357.12,-1085 1953.62,-1085 2120.25,-1085 2176.64,-1125.28 2327.25,-1054 2400.16,-1019.49 2458.6,-939.55 2484.01,-900.41"/>
<polygon fill="#757575" stroke="#757575" points="2486.93,-902.33 2489.34,-892.01 2481.02,-898.58 2486.93,-902.33"/>
</g>
<!-- dom/homeDomComponent.js&#45;&gt;dom/uiIcons.js -->
<g id="edge34" class="edge">
<title>dom/homeDomComponent.js&#45;&gt;dom/uiIcons.js</title>
<path fill="none" stroke="#757575" d="M777.57,-669.35C911.33,-623.57 1394.69,-471.11 1798.75,-509 2036.76,-531.32 2103.23,-525.56 2327.25,-609 2381.9,-629.35 2439.33,-666.47 2471.63,-689.01"/>
<polygon fill="#757575" stroke="#757575" points="2469.39,-691.72 2479.58,-694.64 2473.44,-686 2469.39,-691.72"/>
</g>
<!-- dom/homeDomComponent.js&#45;&gt;dom/fixCircularDependenciesInDomComponents.js -->
<g id="edge32" class="edge">
<title>dom/homeDomComponent.js&#45;&gt;dom/fixCircularDependenciesInDomComponents.js</title>
<path fill="none" stroke="#757575" d="M842.68,-685.28C932.66,-688.2 1066.57,-692.56 1175.2,-696.09"/>
<polygon fill="#757575" stroke="#757575" points="1175.02,-699.58 1185.13,-696.41 1175.25,-692.59 1175.02,-699.58"/>
</g>
<!-- dom/projectDomMiniNavComponent.js -->
<g id="node29" class="node">
<title>dom/projectDomMiniNavComponent.js</title>
<path fill="none" stroke="#c6c5fe" d="M1142.83,-734.25C1142.83,-734.25 899.42,-734.25 899.42,-734.25 895.33,-734.25 891.25,-730.17 891.25,-726.08 891.25,-726.08 891.25,-717.92 891.25,-717.92 891.25,-713.83 895.33,-709.75 899.42,-709.75 899.42,-709.75 1142.83,-709.75 1142.83,-709.75 1146.92,-709.75 1151,-713.83 1151,-717.92 1151,-717.92 1151,-726.08 1151,-726.08 1151,-730.17 1146.92,-734.25 1142.83,-734.25"/>
<text text-anchor="middle" x="1021.12" y="-716.95" font-family="Arial" font-size="14.00" fill="#c6c5fe">dom/projectDomMiniNavComponent.js</text>
</g>
<!-- dom/homeDomComponent.js&#45;&gt;dom/projectDomMiniNavComponent.js -->
<g id="edge33" class="edge">
<title>dom/homeDomComponent.js&#45;&gt;dom/projectDomMiniNavComponent.js</title>
<path fill="none" stroke="#757575" d="M830.21,-694.71C858.87,-698.83 890.85,-703.42 920.28,-707.65"/>
<polygon fill="#757575" stroke="#757575" points="919.52,-711.08 929.92,-709.04 920.52,-704.15 919.52,-711.08"/>
</g>
<!-- dom/projectDomMiniNavComponent.js&#45;&gt;../js&#45;utilities/commonDomComponents.js -->
<g id="edge53" class="edge">
<title>dom/projectDomMiniNavComponent.js&#45;&gt;../js&#45;utilities/commonDomComponents.js</title>
<path fill="none" stroke="#757575" d="M1024.53,-734.71C1034.36,-782.71 1076.38,-953.79 1187,-1023 1280.17,-1081.3 1571.09,-1047 1681,-1047 1681,-1047 1681,-1047 1953.62,-1047 2120.02,-1047 2173,-1085.41 2327.25,-1023 2393.76,-996.09 2453.02,-932.57 2480.9,-899.25"/>
<polygon fill="#757575" stroke="#757575" points="2483.31,-901.82 2486.94,-891.87 2477.9,-897.38 2483.31,-901.82"/>
</g>
<!-- dom/projectDomMiniNavComponent.js&#45;&gt;dom/fixCircularDependenciesInDomComponents.js -->
<g id="edge54" class="edge">
<title>dom/projectDomMiniNavComponent.js&#45;&gt;dom/fixCircularDependenciesInDomComponents.js</title>
<path fill="none" stroke="#757575" d="M1151.17,-714.3C1159.06,-713.82 1167.07,-713.35 1175.13,-712.87"/>
<polygon fill="#757575" stroke="#757575" points="1175.26,-716.36 1185.03,-712.27 1174.84,-709.38 1175.26,-716.36"/>
</g>
<!-- logic/listInComponentMixin.js -->
<g id="node35" class="node">
<title>logic/listInComponentMixin.js</title>
<path fill="none" stroke="#ff6c60" d="M1773.33,-267.25C1773.33,-267.25 1590.67,-267.25 1590.67,-267.25 1586.58,-267.25 1582.5,-263.17 1582.5,-259.08 1582.5,-259.08 1582.5,-250.92 1582.5,-250.92 1582.5,-246.83 1586.58,-242.75 1590.67,-242.75 1590.67,-242.75 1773.33,-242.75 1773.33,-242.75 1777.42,-242.75 1781.5,-246.83 1781.5,-250.92 1781.5,-250.92 1781.5,-259.08 1781.5,-259.08 1781.5,-263.17 1777.42,-267.25 1773.33,-267.25"/>
<text text-anchor="middle" x="1682" y="-249.95" font-family="Arial" font-size="14.00" fill="#ff6c60">logic/listInComponentMixin.js</text>
</g>
<!-- logic/fixCircularDependenciesInComponents.js&#45;&gt;logic/listInComponentMixin.js -->
<g id="edge74" class="edge">
<title>logic/fixCircularDependenciesInComponents.js&#45;&gt;logic/listInComponentMixin.js</title>
<path fill="none" stroke="#757575" d="M1420.9,-183.74C1461.61,-195.42 1516.25,-212.01 1565.25,-224 1589.11,-229.84 1616.05,-235.04 1637.93,-239.85"/>
<polygon fill="#757575" stroke="#757575" points="1636.87,-243.19 1647.4,-241.99 1638.42,-236.37 1636.87,-243.19"/>
</g>
<!-- logic/noteComponent.js -->
<g id="node36" class="node">
<title>logic/noteComponent.js</title>
<path fill="none" stroke="#ff6c60" d="M1756.83,-310.25C1756.83,-310.25 1607.17,-310.25 1607.17,-310.25 1603.08,-310.25 1599,-306.17 1599,-302.08 1599,-302.08 1599,-293.92 1599,-293.92 1599,-289.83 1603.08,-285.75 1607.17,-285.75 1607.17,-285.75 1756.83,-285.75 1756.83,-285.75 1760.92,-285.75 1765,-289.83 1765,-293.92 1765,-293.92 1765,-302.08 1765,-302.08 1765,-306.17 1760.92,-310.25 1756.83,-310.25"/>
<text text-anchor="middle" x="1682" y="-292.95" font-family="Arial" font-size="14.00" fill="#ff6c60">logic/noteComponent.js</text>
</g>
<!-- logic/fixCircularDependenciesInComponents.js&#45;&gt;logic/noteComponent.js -->
<g id="edge75" class="edge">
<title>logic/fixCircularDependenciesInComponents.js&#45;&gt;logic/noteComponent.js</title>
<path fill="none" stroke="#757575" d="M1389.35,-183.64C1428.49,-204.47 1499.51,-244.52 1565.25,-267 1585.73,-274 1609.06,-278.98 1629.38,-283.04"/>
<polygon fill="#757575" stroke="#757575" points="1628.66,-286.46 1639.15,-284.97 1630.02,-279.6 1628.66,-286.46"/>
</g>
<!-- logic/noteListComponent.js -->
<g id="node37" class="node">
<title>logic/noteListComponent.js</title>
<path fill="none" stroke="#ff6c60" d="M1768.08,-138.25C1768.08,-138.25 1595.92,-138.25 1595.92,-138.25 1591.83,-138.25 1587.75,-134.17 1587.75,-130.08 1587.75,-130.08 1587.75,-121.92 1587.75,-121.92 1587.75,-117.83 1591.83,-113.75 1595.92,-113.75 1595.92,-113.75 1768.08,-113.75 1768.08,-113.75 1772.17,-113.75 1776.25,-117.83 1776.25,-121.92 1776.25,-121.92 1776.25,-130.08 1776.25,-130.08 1776.25,-134.17 1772.17,-138.25 1768.08,-138.25"/>
<text text-anchor="middle" x="1682" y="-120.95" font-family="Arial" font-size="14.00" fill="#ff6c60">logic/noteListComponent.js</text>
</g>
<!-- logic/fixCircularDependenciesInComponents.js&#45;&gt;logic/noteListComponent.js -->
<g id="edge76" class="edge">
<title>logic/fixCircularDependenciesInComponents.js&#45;&gt;logic/noteListComponent.js</title>
<path fill="none" stroke="#757575" d="M1413,-158.28C1457.45,-150.51 1521.85,-141.11 1576.38,-134.26"/>
<polygon fill="#757575" stroke="#757575" points="1576.5,-137.77 1585.99,-133.07 1575.64,-130.82 1576.5,-137.77"/>
</g>
<!-- logic/projectComponent.js -->
<g id="node38" class="node">
<title>logic/projectComponent.js</title>
<path fill="none" stroke="#ff6c60" d="M1764.71,-52.25C1764.71,-52.25 1599.29,-52.25 1599.29,-52.25 1595.21,-52.25 1591.12,-48.17 1591.12,-44.08 1591.12,-44.08 1591.12,-35.92 1591.12,-35.92 1591.12,-31.83 1595.21,-27.75 1599.29,-27.75 1599.29,-27.75 1764.71,-27.75 1764.71,-27.75 1768.79,-27.75 1772.88,-31.83 1772.88,-35.92 1772.88,-35.92 1772.88,-44.08 1772.88,-44.08 1772.88,-48.17 1768.79,-52.25 1764.71,-52.25"/>
<text text-anchor="middle" x="1682" y="-34.95" font-family="Arial" font-size="14.00" fill="#ff6c60">logic/projectComponent.js</text>
</g>
<!-- logic/fixCircularDependenciesInComponents.js&#45;&gt;logic/projectComponent.js -->
<g id="edge77" class="edge">
<title>logic/fixCircularDependenciesInComponents.js&#45;&gt;logic/projectComponent.js</title>
<path fill="none" stroke="#757575" d="M1371.54,-158.27C1402.7,-133.31 1487.32,-80.32 1565.25,-53 1569.99,-51.34 1574.89,-49.79 1579.87,-48.36"/>
<polygon fill="#757575" stroke="#757575" points="1580.66,-51.78 1589.42,-45.81 1578.85,-45.01 1580.66,-51.78"/>
</g>
<!-- logic/projectListComponent.js -->
<g id="node39" class="node">
<title>logic/projectListComponent.js</title>
<path fill="none" stroke="#ff6c60" d="M1775.96,-95.25C1775.96,-95.25 1588.04,-95.25 1588.04,-95.25 1583.96,-95.25 1579.88,-91.17 1579.88,-87.08 1579.88,-87.08 1579.88,-78.92 1579.88,-78.92 1579.88,-74.83 1583.96,-70.75 1588.04,-70.75 1588.04,-70.75 1775.96,-70.75 1775.96,-70.75 1780.04,-70.75 1784.12,-74.83 1784.12,-78.92 1784.12,-78.92 1784.12,-87.08 1784.12,-87.08 1784.12,-91.17 1780.04,-95.25 1775.96,-95.25"/>
<text text-anchor="middle" x="1682" y="-77.95" font-family="Arial" font-size="14.00" fill="#ff6c60">logic/projectListComponent.js</text>
</g>
<!-- logic/fixCircularDependenciesInComponents.js&#45;&gt;logic/projectListComponent.js -->
<g id="edge78" class="edge">
<title>logic/fixCircularDependenciesInComponents.js&#45;&gt;logic/projectListComponent.js</title>
<path fill="none" stroke="#757575" d="M1379.36,-158.29C1416.03,-141.42 1496.06,-113.58 1565.25,-96 1566.41,-95.7 1567.59,-95.41 1568.77,-95.12"/>
<polygon fill="#757575" stroke="#757575" points="1569.14,-98.63 1578.05,-92.91 1567.51,-91.82 1569.14,-98.63"/>
</g>
<!-- logic/todoComponent.js -->
<g id="node40" class="node">
<title>logic/todoComponent.js</title>
<path fill="none" stroke="#ff6c60" d="M1757.21,-224.25C1757.21,-224.25 1606.79,-224.25 1606.79,-224.25 1602.71,-224.25 1598.62,-220.17 1598.62,-216.08 1598.62,-216.08 1598.62,-207.92 1598.62,-207.92 1598.62,-203.83 1602.71,-199.75 1606.79,-199.75 1606.79,-199.75 1757.21,-199.75 1757.21,-199.75 1761.29,-199.75 1765.38,-203.83 1765.38,-207.92 1765.38,-207.92 1765.38,-216.08 1765.38,-216.08 1765.38,-220.17 1761.29,-224.25 1757.21,-224.25"/>
<text text-anchor="middle" x="1682" y="-206.95" font-family="Arial" font-size="14.00" fill="#ff6c60">logic/todoComponent.js</text>
</g>
<!-- logic/fixCircularDependenciesInComponents.js&#45;&gt;logic/todoComponent.js -->
<g id="edge79" class="edge">
<title>logic/fixCircularDependenciesInComponents.js&#45;&gt;logic/todoComponent.js</title>
<path fill="none" stroke="#757575" d="M1512.05,-183.74C1546.99,-188.12 1582.43,-193 1611.78,-197.52"/>
<polygon fill="#757575" stroke="#757575" points="1611.2,-200.97 1621.63,-199.07 1612.29,-194.06 1611.2,-200.97"/>
</g>
<!-- logic/todoListComponent.js -->
<g id="node41" class="node">
<title>logic/todoListComponent.js</title>
<path fill="none" stroke="#ff6c60" d="M1768.46,-181.25C1768.46,-181.25 1595.54,-181.25 1595.54,-181.25 1591.46,-181.25 1587.38,-177.17 1587.38,-173.08 1587.38,-173.08 1587.38,-164.92 1587.38,-164.92 1587.38,-160.83 1591.46,-156.75 1595.54,-156.75 1595.54,-156.75 1768.46,-156.75 1768.46,-156.75 1772.54,-156.75 1776.62,-160.83 1776.62,-164.92 1776.62,-164.92 1776.62,-173.08 1776.62,-173.08 1776.62,-177.17 1772.54,-181.25 1768.46,-181.25"/>
<text text-anchor="middle" x="1682" y="-163.95" font-family="Arial" font-size="14.00" fill="#ff6c60">logic/todoListComponent.js</text>
</g>
<!-- logic/fixCircularDependenciesInComponents.js&#45;&gt;logic/todoListComponent.js -->
<g id="edge80" class="edge">
<title>logic/fixCircularDependenciesInComponents.js&#45;&gt;logic/todoListComponent.js</title>
<path fill="none" stroke="#757575" d="M1514.88,-163.29C1535.53,-163.13 1556.31,-163.13 1575.83,-163.28"/>
<polygon fill="#757575" stroke="#757575" points="1575.62,-166.78 1585.66,-163.37 1575.69,-159.78 1575.62,-166.78"/>
</g>
<!-- initWebpage.js -->
<g id="node31" class="node">
<title>initWebpage.js</title>
<path fill="none" stroke="#c6c5fe" d="M102.33,-274.25C102.33,-274.25 8.17,-274.25 8.17,-274.25 4.08,-274.25 0,-270.17 0,-266.08 0,-266.08 0,-257.92 0,-257.92 0,-253.83 4.08,-249.75 8.17,-249.75 8.17,-249.75 102.33,-249.75 102.33,-249.75 106.42,-249.75 110.5,-253.83 110.5,-257.92 110.5,-257.92 110.5,-266.08 110.5,-266.08 110.5,-270.17 106.42,-274.25 102.33,-274.25"/>
<text text-anchor="middle" x="55.25" y="-256.95" font-family="Arial" font-size="14.00" fill="#c6c5fe">initWebpage.js</text>
</g>
<!-- initWebpage.js&#45;&gt;dom/domStructure.js -->
<g id="edge71" class="edge">
<title>initWebpage.js&#45;&gt;dom/domStructure.js</title>
<path fill="none" stroke="#757575" d="M110.75,-273.49C125.12,-276.52 140.84,-279.83 155.95,-283.02"/>
<polygon fill="#757575" stroke="#757575" points="154.82,-286.36 165.33,-285 156.26,-279.51 154.82,-286.36"/>
</g>
<!-- logic/rootComponent.js -->
<g id="node32" class="node">
<title>logic/rootComponent.js</title>
<path fill="none" stroke="#c6c5fe" d="M301.33,-214.25C301.33,-214.25 154.67,-214.25 154.67,-214.25 150.58,-214.25 146.5,-210.17 146.5,-206.08 146.5,-206.08 146.5,-197.92 146.5,-197.92 146.5,-193.83 150.58,-189.75 154.67,-189.75 154.67,-189.75 301.33,-189.75 301.33,-189.75 305.42,-189.75 309.5,-193.83 309.5,-197.92 309.5,-197.92 309.5,-206.08 309.5,-206.08 309.5,-210.17 305.42,-214.25 301.33,-214.25"/>
<text text-anchor="middle" x="228" y="-196.95" font-family="Arial" font-size="14.00" fill="#c6c5fe">logic/rootComponent.js</text>
</g>
<!-- initWebpage.js&#45;&gt;logic/rootComponent.js -->
<g id="edge72" class="edge">
<title>initWebpage.js&#45;&gt;logic/rootComponent.js</title>
<path fill="none" stroke="#757575" d="M92.46,-249.28C118.04,-240.29 152.56,-228.16 180.22,-218.44"/>
<polygon fill="#757575" stroke="#757575" points="181.14,-221.83 189.41,-215.21 178.82,-215.22 181.14,-221.83"/>
</g>
<!-- logic/rootComponent.js&#45;&gt;logic/fixCircularDependenciesInComponents.js -->
<g id="edge90" class="edge">
<title>logic/rootComponent.js&#45;&gt;logic/fixCircularDependenciesInComponents.js</title>
<path fill="none" stroke="#757575" d="M309.68,-199.78C492.95,-194.75 943.76,-182.36 1189.98,-175.59"/>
<polygon fill="#757575" stroke="#757575" points="1189.78,-179.1 1199.68,-175.33 1189.59,-172.1 1189.78,-179.1"/>
</g>
<!-- logic/baseComponent.js -->
<g id="node33" class="node">
<title>logic/baseComponent.js</title>
<path fill="none" stroke="#cfffac" d="M2293.58,-182.25C2293.58,-182.25 2140.17,-182.25 2140.17,-182.25 2136.08,-182.25 2132,-178.17 2132,-174.08 2132,-174.08 2132,-165.92 2132,-165.92 2132,-161.83 2136.08,-157.75 2140.17,-157.75 2140.17,-157.75 2293.58,-157.75 2293.58,-157.75 2297.67,-157.75 2301.75,-161.83 2301.75,-165.92 2301.75,-165.92 2301.75,-174.08 2301.75,-174.08 2301.75,-178.17 2297.67,-182.25 2293.58,-182.25"/>
<text text-anchor="middle" x="2216.88" y="-164.95" font-family="Arial" font-size="14.00" fill="#cfffac">logic/baseComponent.js</text>
</g>
<!-- logic/baseListComponent.js -->
<g id="node34" class="node">
<title>logic/baseListComponent.js</title>
<path fill="none" stroke="#c6c5fe" d="M2040.58,-140.25C2040.58,-140.25 1864.67,-140.25 1864.67,-140.25 1860.58,-140.25 1856.5,-136.17 1856.5,-132.08 1856.5,-132.08 1856.5,-123.92 1856.5,-123.92 1856.5,-119.83 1860.58,-115.75 1864.67,-115.75 1864.67,-115.75 2040.58,-115.75 2040.58,-115.75 2044.67,-115.75 2048.75,-119.83 2048.75,-123.92 2048.75,-123.92 2048.75,-132.08 2048.75,-132.08 2048.75,-136.17 2044.67,-140.25 2040.58,-140.25"/>
<text text-anchor="middle" x="1952.62" y="-122.95" font-family="Arial" font-size="14.00" fill="#c6c5fe">logic/baseListComponent.js</text>
</g>
<!-- logic/baseListComponent.js&#45;&gt;logic/baseComponent.js -->
<g id="edge73" class="edge">
<title>logic/baseListComponent.js&#45;&gt;logic/baseComponent.js</title>
<path fill="none" stroke="#757575" d="M2033.02,-140.72C2062.03,-145.36 2095.06,-150.65 2124.99,-155.44"/>
<polygon fill="#757575" stroke="#757575" points="2124.38,-158.89 2134.8,-157.02 2125.48,-151.98 2124.38,-158.89"/>
</g>
<!-- logic/listInComponentMixin.js&#45;&gt;logic/fixCircularDependenciesInComponents.js -->
<g id="edge81" class="edge">
<title>logic/listInComponentMixin.js&#45;&gt;logic/fixCircularDependenciesInComponents.js</title>
<path fill="none" stroke="#757575" d="M1582.03,-245.89C1576.34,-244.64 1570.71,-243.34 1565.25,-242 1502.87,-226.74 1431.36,-204.03 1391.08,-188.02"/>
<polygon fill="#757575" stroke="#757575" points="1392.56,-184.85 1381.98,-184.28 1389.9,-191.32 1392.56,-184.85"/>
</g>
<!-- logic/noteComponent.js&#45;&gt;logic/fixCircularDependenciesInComponents.js -->
<g id="edge83" class="edge">
<title>logic/noteComponent.js&#45;&gt;logic/fixCircularDependenciesInComponents.js</title>
<path fill="none" stroke="#757575" d="M1598.67,-294.25C1587.31,-291.73 1575.9,-288.64 1565.25,-285 1494.39,-260.77 1417.4,-216.13 1380.8,-190.19"/>
<polygon fill="#757575" stroke="#757575" points="1382.93,-187.41 1372.81,-184.3 1378.78,-193.05 1382.93,-187.41"/>
</g>
<!-- logic/noteComponent.js&#45;&gt;logic/baseComponent.js -->
<g id="edge82" class="edge">
<title>logic/noteComponent.js&#45;&gt;logic/baseComponent.js</title>
<path fill="none" stroke="#757575" d="M1752.25,-285.27C1767.58,-282.33 1783.73,-279.14 1798.75,-276 1920.01,-250.65 1950.75,-245.74 2070.5,-214 2102.45,-205.53 2137.97,-194.8 2165.9,-186.06"/>
<polygon fill="#757575" stroke="#757575" points="2166.67,-189.49 2175.15,-183.15 2164.56,-182.82 2166.67,-189.49"/>
</g>
<!-- logic/noteListComponent.js&#45;&gt;logic/fixCircularDependenciesInComponents.js -->
<g id="edge85" class="edge">
<title>logic/noteListComponent.js&#45;&gt;logic/fixCircularDependenciesInComponents.js</title>
<path fill="none" stroke="#757575" d="M1626.98,-138.75C1594.48,-144.43 1551.36,-150.97 1509.23,-156.75"/>
<polygon fill="#757575" stroke="#757575" points="1508.9,-153.26 1499.46,-158.08 1509.84,-160.2 1508.9,-153.26"/>
</g>
<!-- logic/noteListComponent.js&#45;&gt;logic/baseListComponent.js -->
<g id="edge84" class="edge">
<title>logic/noteListComponent.js&#45;&gt;logic/baseListComponent.js</title>
<path fill="none" stroke="#757575" d="M1776.57,-126.7C1798.6,-126.86 1822.23,-127.04 1844.78,-127.2"/>
<polygon fill="#757575" stroke="#757575" points="1844.57,-130.7 1854.6,-127.28 1844.62,-123.7 1844.57,-130.7"/>
</g>
<!-- logic/projectComponent.js&#45;&gt;logic/fixCircularDependenciesInComponents.js -->
<g id="edge87" class="edge">
<title>logic/projectComponent.js&#45;&gt;logic/fixCircularDependenciesInComponents.js</title>
<path fill="none" stroke="#757575" d="M1639.78,-52.75C1617.32,-57.14 1589.28,-62.58 1565.25,-71 1503.75,-92.56 1438.09,-130.11 1397.81,-152.77"/>
<polygon fill="#757575" stroke="#757575" points="1396.23,-149.65 1389.22,-157.59 1399.65,-155.75 1396.23,-149.65"/>
</g>
<!-- logic/projectComponent.js&#45;&gt;logic/baseComponent.js -->
<g id="edge86" class="edge">
<title>logic/projectComponent.js&#45;&gt;logic/baseComponent.js</title>
<path fill="none" stroke="#757575" d="M1773.27,-49.44C1852.71,-59.2 1970.9,-77.27 2070.5,-107 2109.82,-118.74 2152.68,-138.19 2181.6,-152.38"/>
<polygon fill="#757575" stroke="#757575" points="2179.73,-155.35 2190.24,-156.67 2182.84,-149.08 2179.73,-155.35"/>
</g>
<!-- logic/projectListComponent.js&#45;&gt;logic/fixCircularDependenciesInComponents.js -->
<g id="edge89" class="edge">
<title>logic/projectListComponent.js&#45;&gt;logic/fixCircularDependenciesInComponents.js</title>
<path fill="none" stroke="#757575" d="M1648.09,-95.7C1624.79,-101.07 1592.91,-106.97 1565.25,-114 1518.48,-125.89 1466.76,-142.46 1426.83,-154.88"/>
<polygon fill="#757575" stroke="#757575" points="1425.85,-151.52 1417.34,-157.82 1427.93,-158.21 1425.85,-151.52"/>
</g>
<!-- logic/projectListComponent.js&#45;&gt;logic/baseListComponent.js -->
<g id="edge88" class="edge">
<title>logic/projectListComponent.js&#45;&gt;logic/baseListComponent.js</title>
<path fill="none" stroke="#757575" d="M1758.9,-95.71C1791.94,-101.25 1830.83,-107.77 1865,-113.49"/>
<polygon fill="#757575" stroke="#757575" points="1863.98,-116.87 1874.42,-115.07 1865.14,-109.96 1863.98,-116.87"/>
</g>
<!-- logic/todoComponent.js&#45;&gt;../js&#45;utilities/mathUtilities.js -->
<g id="edge91" class="edge">
<title>logic/todoComponent.js&#45;&gt;../js&#45;utilities/mathUtilities.js</title>
<path fill="none" stroke="#757575" d="M1765.79,-199.67C1794.08,-195.46 1825.98,-190.71 1855.25,-186.35"/>
<polygon fill="#757575" stroke="#757575" points="1855.45,-189.86 1864.83,-184.92 1854.42,-182.94 1855.45,-189.86"/>
</g>
<!-- logic/todoComponent.js&#45;&gt;logic/fixCircularDependenciesInComponents.js -->
<g id="edge93" class="edge">
<title>logic/todoComponent.js&#45;&gt;logic/fixCircularDependenciesInComponents.js</title>
<path fill="none" stroke="#757575" d="M1598.13,-207.43C1545.48,-201.84 1478.12,-193.15 1428.34,-185.48"/>
<polygon fill="#757575" stroke="#757575" points="1428.96,-182.03 1418.54,-183.94 1427.87,-188.95 1428.96,-182.03"/>
</g>
<!-- logic/todoComponent.js&#45;&gt;logic/baseComponent.js -->
<g id="edge92" class="edge">
<title>logic/todoComponent.js&#45;&gt;logic/baseComponent.js</title>
<path fill="none" stroke="#757575" d="M1765.59,-210.53C1844.18,-208.52 1965.65,-203.83 2070.5,-193 2091.2,-190.86 2113.43,-187.76 2134.14,-184.52"/>
<polygon fill="#757575" stroke="#757575" points="2134.64,-187.98 2143.97,-182.95 2133.54,-181.07 2134.64,-187.98"/>
</g>
<!-- logic/todoListComponent.js&#45;&gt;logic/fixCircularDependenciesInComponents.js -->
<g id="edge95" class="edge">
<title>logic/todoListComponent.js&#45;&gt;logic/fixCircularDependenciesInComponents.js</title>
<path fill="none" stroke="#757575" d="M1587.17,-175.78C1567.92,-176.24 1547.12,-176.55 1526.17,-176.71"/>
<polygon fill="#757575" stroke="#757575" points="1526.37,-173.21 1516.39,-176.77 1526.41,-180.21 1526.37,-173.21"/>
</g>
<!-- logic/todoListComponent.js&#45;&gt;logic/baseListComponent.js -->
<g id="edge94" class="edge">
<title>logic/todoListComponent.js&#45;&gt;logic/baseListComponent.js</title>
<path fill="none" stroke="#757575" d="M1766.52,-156.25C1795.2,-151.87 1827.5,-146.94 1857,-142.44"/>
<polygon fill="#757575" stroke="#757575" points="1857.3,-145.94 1866.66,-140.97 1856.24,-139.02 1857.3,-145.94"/>
</g>
</g>
</svg>
